{"glyphs":{"0":{"ha":697,"x_min":0,"x_max":0,"o":"m 701 650 b 224 -15 701 431 475 -15 b 72 165 119 -15 72 71 b 572 804 72 376 339 804 b 701 650 668 804 701 736 m 649 676 b 574 778 649 728 633 778 b 156 117 392 778 156 274 b 240 13 156 60 175 13 b 649 676 429 13 649 510 "},"1":{"ha":525,"x_min":0,"x_max":0,"o":"m 585 768 l 169 7 b 97 -3 156 -1 114 -1 b 85 0 94 -3 88 0 l 83 8 b 458 678 210 232 333 456 b 232 507 388 614 314 557 l 226 507 l 221 518 l 224 526 b 478 740 317 597 399 657 b 540 786 493 757 517 783 l 583 790 b 592 789 586 792 589 790 l 592 782 "},"2":{"ha":678,"x_min":0,"x_max":0,"o":"m 699 685 b 196 140 699 535 301 228 b 386 61 232 122 353 61 b 543 163 464 61 525 157 l 553 154 l 553 149 b 333 -17 508 94 407 -17 b 117 65 293 -17 150 51 l 19 -11 l 1 0 b 138 150 4 10 129 147 b 168 149 146 151 160 153 b 601 696 282 250 601 538 b 535 757 601 739 575 757 b 306 542 429 757 340 632 l 300 536 l 283 536 l 281 544 b 572 800 324 665 432 800 b 699 685 643 800 699 760 "},"3":{"ha":636,"x_min":0,"x_max":0,"o":"m 675 717 b 367 454 675 578 475 493 b 554 326 449 454 554 426 b 143 -15 554 156 301 -15 b 14 18 100 -15 50 -8 l 14 25 l 24 33 l 31 36 b 128 15 57 24 99 15 b 460 338 271 15 460 190 b 363 424 460 394 415 424 b 265 404 331 424 296 413 l 256 408 l 254 421 l 260 428 b 579 708 361 468 579 574 b 525 758 579 743 558 758 b 333 635 453 758 378 685 l 326 635 l 317 643 l 317 650 b 569 803 379 726 465 803 b 675 717 625 803 675 779 "},"4":{"ha":644,"x_min":0,"x_max":0,"o":"m 674 781 b 163 285 676 736 207 325 l 464 290 l 554 465 b 633 492 567 492 608 490 l 642 488 l 643 479 b 550 294 643 472 560 311 l 583 294 l 592 289 l 585 274 l 575 267 l 535 265 b 404 11 518 232 419 26 b 315 -10 397 4 326 -10 l 308 -8 l 308 -3 b 447 261 308 7 435 239 l 110 253 l 110 264 b 115 274 111 267 113 271 b 332 504 176 350 265 429 b 519 731 397 578 460 651 b 663 794 565 790 589 781 l 672 790 l 674 781 "},"5":{"ha":618,"x_min":0,"x_max":0,"o":"m 704 800 b 360 689 654 665 476 682 l 207 424 b 393 486 258 458 331 486 b 532 365 469 486 532 449 b 82 -18 532 174 258 -18 b -17 -1 56 -18 6 -17 l -17 8 l -8 18 l -3 21 b 83 8 24 11 56 8 b 439 361 239 8 439 206 b 349 450 439 418 406 450 b 165 372 281 450 224 401 l 157 375 l 157 383 b 379 769 169 421 361 754 b 699 803 464 804 615 739 l 704 800 "},"6":{"ha":585,"x_min":0,"x_max":0,"o":"m 601 801 b 594 790 599 799 597 793 b 500 710 569 763 529 736 b 321 514 435 650 375 585 b 133 103 244 413 133 233 b 210 17 133 56 160 17 b 471 369 340 17 471 253 b 424 425 471 401 458 425 b 222 204 331 425 251 281 l 217 197 l 203 196 l 200 204 b 457 468 226 313 333 468 b 556 358 522 468 556 419 b 201 -15 556 201 363 -15 b 51 133 110 -15 51 40 b 583 815 51 386 390 682 l 592 817 l 601 801 "},"7":{"ha":678,"x_min":0,"x_max":0,"o":"m 800 771 b 528 482 714 672 619 578 b 217 119 418 367 315 244 b 124 7 207 108 132 10 b 24 -7 100 -4 51 -4 l 15 -3 l 14 3 b 693 688 28 57 625 624 b 472 693 619 689 546 693 b 307 593 350 693 349 596 l 303 596 l 303 604 b 572 785 378 751 407 785 b 769 775 638 785 704 783 b 797 789 775 779 790 789 l 803 781 "},"8":{"ha":583,"x_min":0,"x_max":0,"o":"m 640 694 b 431 394 640 579 511 465 b 457 239 456 339 457 300 b 178 -15 457 100 311 -15 b 19 119 97 -15 19 31 b 303 464 19 250 206 392 b 279 575 288 499 279 538 b 513 801 279 697 393 801 b 640 694 582 801 640 769 m 590 696 b 514 774 590 744 563 774 b 369 621 435 774 369 697 b 421 424 369 560 400 479 b 590 696 496 485 590 593 m 368 218 b 310 438 368 286 336 374 b 83 115 213 365 83 249 b 181 14 83 54 117 14 b 368 218 285 14 368 118 "},"9":{"ha":604,"x_min":0,"x_max":0,"o":"m 608 633 b 96 -31 608 375 294 100 l 88 -31 l 81 -18 l 86 -10 b 511 576 293 136 447 326 b 525 676 519 608 525 643 b 449 772 525 728 507 772 b 182 447 317 772 182 569 b 251 369 182 403 203 369 b 442 563 349 369 410 486 l 447 567 l 463 565 l 464 558 b 201 289 425 458 324 289 b 103 397 138 289 103 336 b 472 801 103 554 313 801 b 608 633 568 801 608 718 "}," ":{"ha":360,"x_min":0,"x_max":0,"o":""},"¾":{"ha":864,"x_min":0,"x_max":0,"o":"m 733 472 b 850 496 757 511 831 508 b 589 254 849 474 686 338 b 529 194 567 236 549 219 l 697 199 b 750 303 714 233 724 250 b 831 308 771 326 851 343 b 778 201 831 304 794 232 l 785 201 b 779 167 819 196 822 183 l 758 167 l 678 10 b 590 -1 672 4 615 -15 b 676 163 590 4 660 131 l 472 158 l 478 185 b 557 269 500 213 528 242 l 614 329 b 733 472 654 375 697 422 m 439 804 b 274 644 439 726 344 674 b 364 560 319 638 364 614 b 94 338 364 449 222 338 b 10 389 54 338 24 353 b 24 407 4 404 1 418 b 89 360 33 382 60 360 b 289 569 196 360 289 482 b 246 621 289 599 272 621 b 182 603 233 621 199 607 b 163 619 147 594 150 614 b 353 799 233 633 353 706 b 317 821 353 814 331 821 b 207 754 278 821 235 786 b 189 764 197 744 185 740 b 360 867 231 815 289 867 b 439 804 401 867 439 849 m 757 842 b 818 835 778 865 839 861 b 106 -1 697 683 219 71 b 90 13 82 -17 75 -6 b 757 842 254 197 689 747 "},"¦":{"ha":674,"x_min":0,"x_max":0,"o":"m 464 447 l 397 454 l 522 1040 l 594 1040 m 306 -321 l 233 -321 l 367 306 l 432 300 "},"−":{"ha":518,"x_min":0,"x_max":0,"o":"m 501 288 l 150 288 l 149 289 l 149 318 l 150 319 l 501 319 l 503 318 l 503 289 "},"×":{"ha":422,"x_min":0,"x_max":0,"o":"m 258 285 l 318 168 b 292 140 317 163 297 142 l 233 258 l 131 147 b 115 176 126 149 115 172 l 218 288 l 158 404 b 185 432 160 410 179 431 l 243 314 l 346 425 b 361 396 351 425 361 401 "},"¼":{"ha":864,"x_min":0,"x_max":0,"o":"m 733 472 b 850 496 757 511 831 508 b 589 254 849 474 686 338 b 529 194 567 236 549 219 l 697 199 b 750 303 714 233 724 250 b 831 308 771 326 851 343 b 778 201 831 304 794 232 l 785 201 b 779 167 819 196 822 183 l 758 167 l 678 10 b 590 -1 672 4 615 -15 b 676 163 590 4 660 131 l 472 158 l 478 185 b 557 269 500 213 528 242 l 614 329 b 733 472 654 375 697 422 m 757 842 b 818 835 778 865 839 861 b 106 -1 697 683 219 71 b 90 13 82 -17 75 -6 b 757 842 254 197 689 747 m 340 856 b 368 835 368 858 378 860 b 121 356 281 676 208 515 b 44 347 108 338 43 333 l 251 732 b 144 664 224 710 178 689 b 129 676 128 654 100 646 l 151 693 b 293 825 196 726 253 785 b 340 856 303 836 321 854 "},"!":{"ha":486,"x_min":0,"x_max":0,"o":"m 750 849 b 285 149 735 807 336 226 l 271 150 l 272 160 l 625 832 b 740 860 644 869 704 858 l 747 857 l 750 849 m 281 38 b 214 -19 275 6 246 -19 b 167 38 182 -19 161 6 b 233 94 171 69 201 94 b 281 38 264 94 286 69 "},"\"":{"ha":442,"x_min":0,"x_max":0,"o":"m 460 885 b 413 638 468 844 422 679 l 399 638 l 388 868 b 428 913 385 894 403 913 b 460 885 447 913 457 903 m 308 886 b 263 638 317 844 274 681 l 249 638 l 236 867 b 278 913 235 890 254 913 b 308 886 294 913 306 904 "},"#":{"ha":1036,"x_min":0,"x_max":0,"o":"m 960 579 l 753 579 l 638 383 l 861 383 l 821 318 l 597 318 l 404 0 l 331 0 l 521 318 l 329 318 l 136 0 l 63 0 l 254 318 l 35 318 l 76 383 l 293 383 l 410 579 l 174 579 l 214 646 l 450 646 l 642 967 l 718 967 l 524 646 l 718 646 l 911 967 l 986 967 l 793 646 l 999 646 m 485 579 l 367 383 l 561 383 l 678 579 "},"$":{"ha":624,"x_min":0,"x_max":0,"o":"m 660 676 b 583 585 660 628 628 585 b 522 649 549 585 521 614 b 585 707 524 682 549 707 b 628 683 600 707 624 694 b 540 767 619 739 579 758 l 378 472 b 471 267 422 414 471 343 b 115 -3 471 89 268 -3 l 76 -76 l 29 -85 l 78 0 b -93 74 25 10 -60 29 b -68 107 -92 82 -74 101 l -56 107 b 94 29 -15 65 39 40 l 301 407 b 218 583 261 457 218 517 b 519 799 218 733 394 799 l 558 871 l 603 879 l 557 794 b 660 676 632 782 660 728 m 506 772 b 486 774 499 772 493 774 b 306 619 403 774 306 711 b 356 503 306 572 332 542 l 506 772 m 383 242 b 326 378 383 292 356 339 l 131 25 b 383 242 250 25 383 111 "},"%":{"ha":863,"x_min":0,"x_max":0,"o":"m 7 -117 l -44 -117 l -46 -110 b 607 657 186 135 396 396 b 304 576 499 564 378 500 b 183 529 267 547 225 528 b 115 783 78 532 63 660 b 379 1017 169 910 286 1018 b 331 600 586 1011 428 690 b 574 661 369 531 472 581 b 825 924 636 710 806 913 b 861 918 829 926 861 933 m 681 446 b 485 -40 925 440 679 -46 b 417 213 379 -37 364 89 b 681 446 471 340 588 449 m 408 969 b 211 788 349 986 264 899 b 194 563 158 674 144 576 b 289 596 222 554 256 568 b 268 664 275 618 267 643 b 315 724 268 696 282 724 b 357 682 339 724 357 706 b 354 667 357 676 357 672 b 408 969 394 724 497 944 m 725 240 b 711 399 750 313 760 385 b 513 218 650 417 565 328 b 496 -8 460 103 446 6 b 656 97 560 -26 622 56 b 725 240 675 122 704 182 "},"&":{"ha":842,"x_min":0,"x_max":0,"o":"m 1015 583 b 719 349 1100 457 904 346 b 363 -62 871 224 669 -62 b 418 549 -136 -62 -79 496 b 379 674 393 583 379 631 b 801 976 383 871 629 979 b 968 854 878 975 968 947 b 883 751 968 801 931 751 b 818 818 846 751 817 782 b 885 881 819 856 847 882 b 931 856 901 881 926 868 b 838 939 942 918 888 938 b 567 825 764 940 660 906 b 465 553 503 768 422 643 b 581 556 494 553 539 558 b 576 468 661 549 674 468 b 436 529 515 468 465 500 b 363 -44 107 481 39 -44 b 699 226 558 -44 693 117 b 300 219 706 381 326 378 b 392 92 293 176 321 129 b 392 63 407 83 408 54 b 503 393 149 193 221 393 l 749 393 b 1000 572 814 393 1074 463 b 1015 583 990 588 1006 599 m 579 532 b 476 533 543 535 510 535 b 576 492 497 507 531 492 b 579 532 644 492 629 528 "},"'":{"ha":219,"x_min":0,"x_max":0,"o":"m 261 700 b 122 539 261 610 181 558 b 118 554 104 533 101 549 b 225 675 169 572 217 613 b 185 661 213 667 200 661 b 138 719 154 661 132 688 b 204 776 143 750 172 776 b 261 700 244 776 261 736 "},"(":{"ha":486,"x_min":0,"x_max":0,"o":"m 689 1049 b 689 1019 735 1060 729 1031 b 151 463 371 936 203 624 b 329 -51 68 206 122 -76 b 319 -82 365 -47 365 -76 b 57 450 122 -106 -25 132 b 689 1049 111 654 369 967 "},")":{"ha":719,"x_min":0,"x_max":0,"o":"m 683 528 b 51 -71 631 324 371 11 b 53 -42 6 -82 11 -53 b 589 515 369 42 538 354 b 413 1029 672 772 618 1053 b 421 1060 375 1025 375 1054 b 683 528 618 1083 765 846 "},"*":{"ha":599,"x_min":0,"x_max":0,"o":"m 544 540 b 518 496 583 540 567 497 l 335 489 b 408 343 358 440 382 393 b 356 310 419 321 379 264 l 286 465 l 135 300 b 94 344 117 282 57 307 l 233 485 l 50 478 b 51 540 25 476 1 540 l 253 540 b 174 714 229 594 203 653 b 221 715 156 750 197 760 l 303 556 l 464 718 b 474 668 492 747 510 707 l 356 540 l 544 540 "},"+":{"ha":636,"x_min":0,"x_max":0,"o":"m 640 331 b 636 293 671 329 674 293 b 451 285 583 293 511 289 b 419 94 440 217 424 136 b 353 94 417 75 343 54 b 400 282 360 126 382 207 b 204 269 335 276 244 274 b 221 336 183 267 179 336 b 414 332 251 336 340 333 b 463 533 426 383 447 478 b 501 539 471 565 510 576 b 460 332 489 488 471 389 b 640 331 514 331 581 332 "},",":{"ha":213,"x_min":0,"x_max":0,"o":"m 158 28 b 14 -142 158 -64 72 -122 b 11 -126 -3 -149 -7 -132 b 117 -6 63 -110 110 -68 b 78 -19 106 -14 92 -19 b 31 38 46 -19 25 6 b 97 94 35 69 65 94 b 158 28 138 94 158 64 "},"-":{"ha":564,"x_min":0,"x_max":0,"o":"m 539 293 b 228 269 411 293 311 279 b 228 336 208 267 188 336 b 533 331 286 336 372 335 b 539 293 565 329 576 293 "},".":{"ha":289,"x_min":0,"x_max":0,"o":"m 257 38 b 190 -19 251 6 222 -19 b 143 38 158 -19 138 6 b 210 94 147 69 178 94 b 257 38 240 94 263 69 "},"/":{"ha":761,"x_min":0,"x_max":0,"o":"m 969 1111 b 1039 1094 999 1149 1072 1132 b 61 -46 808 829 231 65 b 38 -24 24 -69 10 -47 b 969 1111 175 97 588 629 "},":":{"ha":356,"x_min":0,"x_max":0,"o":"m 353 349 b 286 292 347 317 318 292 b 239 349 254 292 233 317 b 306 406 243 381 274 406 b 353 349 336 406 358 381 m 200 38 b 133 -19 196 6 165 -19 b 86 38 103 -19 81 6 b 153 94 92 69 121 94 b 200 38 185 94 206 69 "},";":{"ha":354,"x_min":0,"x_max":0,"o":"m 353 349 b 286 292 347 317 318 292 b 239 349 254 292 233 317 b 306 406 243 381 274 406 b 353 349 336 406 358 381 m 210 19 b 71 -142 210 -72 129 -122 b 67 -126 53 -149 50 -132 b 174 -6 118 -110 165 -68 b 133 -19 161 -14 149 -19 b 86 38 103 -19 81 6 b 153 94 92 69 121 94 b 210 19 193 94 210 56 "},"<":{"ha":457,"x_min":0,"x_max":0,"o":"m 463 413 b 238 236 438 371 276 265 l 236 47 l 229 33 l 219 29 b 208 33 215 29 211 31 b 156 249 182 99 172 179 b 451 426 186 267 436 428 l 461 422 l 463 413 "},"=":{"ha":636,"x_min":0,"x_max":0,"o":"m 568 447 b 544 432 568 435 554 432 b 335 421 475 432 404 428 b 228 408 299 417 264 408 b 204 449 211 408 204 436 b 228 475 204 463 213 475 l 432 475 b 568 447 451 475 568 476 m 568 308 b 544 293 568 296 554 293 b 335 282 475 293 404 289 b 228 269 299 278 264 269 b 204 310 211 269 204 297 b 228 336 204 324 213 336 l 432 336 b 568 308 451 336 568 338 "},">":{"ha":457,"x_min":0,"x_max":0,"o":"m 60 31 l 50 29 b 39 32 47 29 42 31 l 38 38 b 263 219 38 67 257 215 l 264 408 b 271 421 267 413 268 418 l 282 426 l 294 421 b 344 208 321 356 329 276 "},"?":{"ha":531,"x_min":0,"x_max":0,"o":"m 589 617 b 278 222 469 481 349 410 b 251 232 271 206 247 214 b 531 651 285 371 428 522 b 390 815 653 806 525 881 b 313 719 349 794 307 753 b 361 769 318 742 339 757 b 417 668 443 814 481 718 b 297 765 343 611 257 669 b 399 857 315 806 361 835 b 589 617 592 967 804 860 m 281 38 b 214 -19 275 6 246 -19 b 167 38 182 -19 161 6 b 233 94 171 69 201 94 b 281 38 264 94 286 69 "},"@":{"ha":1328,"x_min":0,"x_max":0,"o":"m 1308 614 b 1068 136 1324 426 1207 247 b 843 63 1018 96 911 63 b 733 278 785 58 681 94 b 607 114 706 232 658 164 b 538 543 406 -79 274 228 b 943 624 642 668 843 733 b 925 574 967 597 953 568 b 775 617 906 639 839 653 b 543 368 696 574 606 471 b 471 190 528 343 481 257 b 632 179 453 68 550 83 b 788 424 694 253 743 339 b 907 538 826 499 851 542 b 981 529 929 536 956 525 b 818 203 943 493 839 308 b 1061 164 782 26 981 99 b 1253 611 1185 264 1265 446 b 854 914 1235 832 1049 914 b 174 182 478 914 143 563 b 636 -175 193 -65 415 -175 b 1065 -37 792 -175 942 -121 b 1081 -60 1082 -21 1103 -50 b 626 -206 947 -149 794 -206 b 106 199 371 -206 129 -89 b 851 943 74 600 465 943 b 1308 614 1061 943 1290 850 "},"A":{"ha":989,"x_min":0,"x_max":0,"o":"m 1194 897 b 763 621 1194 796 1086 650 b 343 653 606 607 474 611 b 142 303 293 582 192 426 b 476 99 0 -51 221 -114 b 840 536 619 219 767 400 b 919 497 926 697 1000 585 b 738 125 842 410 763 261 b 942 61 694 -110 832 -75 b 1063 258 985 117 1032 189 b 1086 253 1075 285 1101 286 b 957 31 1061 197 1008 99 b 753 -89 910 -33 831 -89 b 696 267 599 -89 633 185 b 125 -49 582 132 322 -133 b 131 506 -8 8 -8 254 b 253 682 165 568 206 628 b 114 778 197 708 149 739 b 101 935 75 822 71 913 b 126 908 118 957 142 942 b 156 799 108 867 124 835 b 278 711 186 764 228 735 b 956 1074 453 906 685 1074 b 1194 897 1104 1074 1194 1000 m 1138 914 b 960 1038 1138 996 1061 1038 b 365 681 700 1038 521 867 b 763 654 474 646 586 639 b 1138 914 993 674 1138 776 "},"B":{"ha":1446,"x_min":0,"x_max":0,"o":"m 1481 678 b 1168 533 1421 576 1272 538 b 1431 336 1260 504 1400 440 b 907 -49 1506 82 1157 -79 b 538 47 731 -26 624 8 b 183 -50 431 -32 310 -67 b 308 203 -100 -15 -4 313 b 510 100 360 183 422 143 b 1032 914 694 278 794 650 l 1111 1004 b 579 989 957 1031 767 1029 b 274 510 194 907 68 574 b 525 661 438 458 532 621 b 554 650 525 669 554 681 l 554 649 b 260 476 533 511 382 433 b 597 1047 -24 575 108 978 b 1144 1035 790 1075 983 1069 b 1221 1082 1168 1056 1197 1074 b 1235 1061 1265 1100 1268 1082 b 1194 1024 1217 1049 1197 1031 b 1481 678 1433 963 1575 839 m 1308 946 b 1178 989 1271 964 1226 978 b 621 122 992 733 806 322 l 568 72 b 906 -11 654 36 763 3 b 1217 451 1268 -44 1486 322 b 958 553 1108 504 972 522 b 1160 572 958 600 1051 572 b 1308 946 1332 575 1564 826 m 479 74 b 274 167 415 104 356 138 b 218 -11 61 240 38 -1 b 479 74 319 -15 406 18 "},"C":{"ha":986,"x_min":0,"x_max":0,"o":"m 1083 254 b 860 -35 1024 132 978 49 b 319 -97 718 -132 521 -183 b 251 776 -29 50 58 533 b 246 1094 229 863 218 992 b 274 1088 251 1118 281 1126 b 285 824 258 1000 271 899 b 863 1078 435 1017 643 1103 b 635 432 1404 1017 1207 349 b 290 668 490 453 363 518 b 374 -71 240 603 13 40 b 839 -12 522 -115 701 -94 b 1067 268 960 58 1008 149 b 1083 254 1078 292 1097 282 m 875 1025 b 318 713 668 1056 456 922 b 656 465 381 553 504 482 b 875 1025 1157 410 1281 967 "},"D":{"ha":1408,"x_min":0,"x_max":0,"o":"m 1421 332 b 521 50 1378 -110 801 -108 b 174 -50 419 -32 307 -67 b 299 203 -110 -17 -14 311 b 510 100 351 183 465 124 b 1038 921 715 297 819 678 b 560 999 901 1003 732 1035 b 264 510 175 917 58 574 b 515 661 428 458 513 613 b 543 649 517 675 547 675 b 250 476 524 511 372 433 b 588 1047 7 561 15 964 b 1076 964 758 1072 932 1040 b 1258 1090 1147 1047 1219 1099 b 1258 1072 1276 1086 1268 1072 b 1136 929 1221 1072 1153 960 b 1421 332 1325 804 1447 596 m 1333 329 b 1103 876 1357 557 1260 753 b 607 125 940 621 760 289 b 554 75 589 106 572 90 b 1333 329 822 -85 1294 -28 m 474 72 b 264 167 407 104 347 138 b 208 -11 63 236 39 -3 b 474 72 308 -15 397 17 "},"E":{"ha":1132,"x_min":0,"x_max":0,"o":"m 1101 357 b 1053 106 1203 306 1175 201 b 450 -76 915 -3 679 -76 b 371 560 -110 -76 -83 424 b 511 583 418 574 467 582 b 344 757 433 611 338 675 b 993 1114 365 996 772 1139 b 964 768 1317 1076 1244 831 b 960 793 885 750 897 786 b 988 1081 1088 807 1242 1054 b 450 792 771 1101 482 969 b 742 544 413 574 763 643 b 376 501 725 489 553 551 b 456 -46 86 421 -22 -46 b 996 143 669 -46 876 50 b 1072 339 1099 224 1149 321 b 1101 357 1008 354 1056 379 "},"F":{"ha":1456,"x_min":0,"x_max":0,"o":"m 1925 794 b 1749 710 1917 738 1843 696 b 1424 829 1588 736 1450 818 b 1239 471 1335 728 1278 561 b 1500 463 1324 460 1443 460 b 1503 435 1547 465 1546 446 b 1222 428 1454 422 1293 419 b 528 -181 1126 168 976 -181 b 94 367 204 -181 -4 64 b 239 511 119 446 199 499 b 213 475 283 525 254 504 b 106 314 178 450 122 408 b 511 -115 57 42 308 -107 b 1172 432 819 -129 1040 129 b 869 358 1119 432 935 453 b 847 371 853 336 840 356 b 1192 483 911 513 1058 507 b 1393 847 1257 643 1367 817 b 1015 979 1275 906 1151 960 b 586 608 636 1036 460 688 b 876 692 726 521 878 653 b 900 697 878 722 917 747 b 574 576 860 563 685 513 b 1039 1032 343 707 582 1161 b 1411 871 1192 990 1325 925 b 1528 914 1426 888 1465 932 b 1528 881 1564 903 1558 846 b 1444 854 1496 893 1464 872 b 1900 801 1538 806 1847 689 b 1925 794 1919 846 1933 829 "},"G":{"ha":971,"x_min":0,"x_max":0,"o":"m 1069 -156 b 1058 -181 1110 -165 1111 -193 b 746 -156 994 -164 857 -154 b 35 -507 568 -412 190 -564 b 401 -142 -224 -412 56 -190 b 696 -119 474 -131 608 -121 b 836 222 764 -4 807 93 l 842 246 b 267 50 758 167 496 -26 b 133 693 93 110 -17 378 b 128 1096 26 804 0 965 b 146 1085 147 1117 168 1114 b 156 735 54 969 71 836 b 186 789 164 753 175 771 b 838 1131 333 1029 614 1165 b 585 546 1267 1064 1172 554 b 219 642 450 543 308 582 b 314 96 97 378 151 149 b 789 276 497 36 750 183 b 954 339 869 465 964 410 b 765 -119 935 185 867 47 b 1069 -156 889 -121 986 -135 m 844 1089 b 281 754 656 1117 411 968 b 238 678 265 729 250 703 b 607 589 324 613 465 575 b 844 1089 1075 636 1185 1038 m 674 -157 b 418 -179 586 -160 496 -167 b 71 -471 172 -217 -133 -428 b 674 -157 194 -499 511 -390 "},"H":{"ha":1918,"x_min":0,"x_max":0,"o":"m 2115 1042 b 1828 494 2089 1028 1939 818 b 1939 504 1856 494 1917 496 b 1950 488 1965 514 1974 504 b 1815 450 1914 463 1856 453 b 1743 11 1790 368 1682 78 b 1821 11 1761 -8 1790 -11 b 1994 263 1892 64 1950 172 b 2015 253 2010 293 2031 286 b 1846 -8 1943 100 1908 53 b 1689 -46 1797 -56 1738 -71 b 1735 450 1563 19 1701 354 b 1264 468 1672 450 1390 463 b 543 -232 1156 146 901 -186 b 6 257 226 -272 -85 -90 b 175 433 29 347 131 432 b 178 414 204 433 192 419 b 36 194 132 394 51 310 b 529 -139 -3 -108 335 -182 b 1192 471 918 -51 1100 229 b 1108 449 1163 471 1135 461 b 1071 464 1093 442 1050 428 b 1157 517 1083 485 1121 513 l 1211 517 b 1414 967 1281 690 1385 908 b 714 636 1142 936 814 957 b 896 410 667 485 756 358 b 1018 657 999 447 1036 631 b 1036 667 1003 679 1026 688 b 897 383 1089 551 997 419 b 619 658 731 322 574 476 b 1433 1000 707 1010 1163 974 b 1540 1111 1443 1017 1496 1097 b 1619 1072 1581 1122 1619 1111 b 1456 969 1619 1007 1511 969 b 1276 517 1403 867 1300 576 b 1747 493 1463 517 1650 493 b 2050 1040 1768 551 1940 1003 b 2115 1042 2104 1060 2167 1068 m 1554 1071 b 1481 1004 1540 1078 1500 1029 b 1554 1071 1599 1022 1571 1071 "},"I":{"ha":1267,"x_min":0,"x_max":0,"o":"m 1661 1118 b 1554 1021 1663 1061 1607 1039 b 1496 1008 1538 1021 1508 1008 b 1115 138 1326 697 1336 421 b 567 -203 963 -58 768 -169 b 6 253 175 -268 -125 -94 b 196 435 40 344 151 432 b 197 415 225 436 211 422 b 29 192 149 394 58 307 b 540 -158 -44 -111 318 -214 b 1244 553 944 -57 1169 351 b 1453 1001 1326 771 1424 951 b 776 560 1203 947 843 860 b 939 381 746 426 819 335 b 1056 624 1085 439 1078 603 b 1085 636 1050 631 1074 661 b 940 349 1139 532 1054 392 b 683 560 793 292 647 396 b 1475 1038 756 888 1213 993 b 1582 1151 1486 1060 1538 1136 b 1661 1118 1624 1164 1660 1156 m 1594 1113 b 1519 1043 1581 1118 1540 1069 b 1594 1113 1642 1068 1611 1113 "},"J":{"ha":1342,"x_min":0,"x_max":0,"o":"m 1764 1075 b 1651 981 1763 1018 1706 997 b 1592 969 1635 981 1604 969 b 1129 -83 1411 661 1378 303 b 489 -506 967 -336 669 -481 b -51 -29 94 -560 -197 -376 b 146 147 -14 61 101 146 b 144 128 175 149 160 135 b -31 -90 96 108 1 24 b 472 -461 -118 -394 249 -510 b 1328 542 960 -353 1197 253 b 1550 964 1425 757 1519 915 b 894 508 1326 928 939 778 b 1054 336 875 381 938 293 b 1182 576 1203 389 1203 554 b 1211 588 1160 590 1189 615 b 1053 303 1257 481 1169 344 b 801 517 904 251 775 353 b 1574 1000 853 838 1319 968 b 1686 1111 1586 1021 1640 1097 b 1764 1075 1728 1122 1764 1113 m 1697 1071 b 1617 1004 1682 1078 1640 1029 b 1697 1071 1740 1025 1713 1071 "},"K":{"ha":1589,"x_min":0,"x_max":0,"o":"m 2251 1133 b 1325 360 2029 764 1565 421 b 1408 21 1308 367 1339 179 b 1657 -196 1467 -114 1549 -196 b 1944 -50 1765 -196 1893 -150 b 1963 -61 1956 -22 1982 -22 b 1650 -256 1913 -162 1768 -256 b 1313 4 1497 -256 1379 -142 b 1244 389 1235 176 1219 378 b 2217 1151 1346 381 1929 710 b 2251 1133 2249 1200 2275 1172 m 1540 1111 b 1456 969 1644 1142 1679 993 b 578 -231 1246 592 1206 -136 b 6 257 263 -278 -85 -90 b 165 424 32 357 129 419 b 175 404 188 426 186 410 b 36 194 150 393 53 319 b 524 -154 -3 -108 329 -197 b 1203 507 919 -64 1097 269 b 1414 967 1229 567 1367 872 b 1011 911 1290 953 1140 947 b 896 417 601 797 638 324 b 1011 676 989 451 1028 588 b 1036 667 1008 690 1028 686 b 906 392 1075 569 1004 428 b 994 953 594 278 426 825 b 1433 1000 1146 986 1313 989 b 1540 1111 1443 1017 1496 1097 m 1542 1021 b 1535 1063 1603 1050 1581 1100 b 1481 1004 1517 1049 1494 1021 b 1542 1021 1508 1008 1528 1014 "},"L":{"ha":989,"x_min":0,"x_max":0,"o":"m 1329 1088 b 750 450 1353 807 1046 500 b 628 211 710 368 678 300 l 599 164 b 1054 -43 735 131 925 57 b 1181 -368 1186 -146 1215 -310 b 1146 -406 1169 -389 1157 -400 b 1128 -364 1086 -437 1117 -387 b 1060 -93 1150 -315 1154 -175 b 557 101 925 26 733 67 b 311 -125 485 0 401 -82 b 197 161 21 -265 -176 49 b 546 176 296 190 444 194 b 692 444 599 258 642 342 b 642 972 292 432 167 864 b 644 949 700 986 706 957 b 711 479 358 914 265 426 b 829 776 728 517 829 776 b 1329 1088 1035 1306 1319 1201 m 1272 1057 b 892 729 1271 1150 1107 1150 b 769 488 892 729 826 606 b 1272 1057 1019 543 1274 800 m 503 110 b 214 104 411 129 304 128 b 289 -86 -122 18 35 -208 b 503 110 364 -50 436 15 "},"M":{"ha":1846,"x_min":0,"x_max":0,"o":"m 1908 -136 b 1886 -158 1961 -133 1942 -164 b 1668 106 1829 -153 1646 -129 b 1888 693 1685 272 1797 488 b 1594 622 1999 949 1844 935 b 1221 28 1507 514 1271 149 b 1094 0 1168 -94 1068 -40 b 1371 807 1117 46 1315 349 b 1165 840 1393 986 1275 976 b 664 -50 924 540 854 372 b 550 -58 642 -101 536 -103 b 889 824 668 125 857 597 b 136 618 965 1376 271 988 b 393 208 19 294 210 142 b 482 592 571 275 703 621 b 489 621 457 589 422 613 b 392 182 721 654 692 307 b 63 632 186 97 -76 301 b 969 821 263 1099 1021 1374 b 897 544 960 733 932 636 b 915 529 879 492 892 485 b 1142 865 996 675 1043 746 b 1456 814 1249 994 1478 1050 b 1319 294 1439 636 1376 468 b 1594 672 1376 383 1481 531 b 1964 664 1915 1074 2124 983 b 1908 -136 1843 424 1585 -150 "},"N":{"ha":1443,"x_min":0,"x_max":0,"o":"m 1650 928 b 1333 224 1647 763 1471 524 b 1414 -150 1207 -53 1254 -224 b 1383 -203 1510 -106 1485 -207 b 1214 157 1194 -194 1139 -68 b 1540 913 1263 301 1518 769 b 1371 964 1557 1010 1468 1011 b 1063 711 1268 915 1161 829 b 633 -50 867 474 724 139 b 518 -58 610 -100 507 -103 b 869 769 586 42 803 475 b 433 958 950 1135 672 1107 b 251 196 24 704 -24 196 b 469 592 543 196 717 624 b 467 614 442 589 453 611 b 247 169 796 693 615 169 b 38 631 71 169 -79 347 b 418 1018 104 790 258 931 b 960 822 647 1143 1001 1164 b 844 499 947 715 892 603 b 851 483 772 342 825 443 b 1035 733 901 561 965 650 b 1364 1022 1139 860 1257 974 b 1650 928 1494 1083 1653 1079 "},"O":{"ha":1008,"x_min":0,"x_max":0,"o":"m 1256 760 b 1049 551 1204 679 1136 607 b 1017 403 1044 504 1033 456 b 321 -67 931 140 615 -162 b 178 460 163 -15 83 218 b 71 635 118 500 78 558 b 1054 600 17 1168 1082 1286 b 1235 775 1129 650 1200 707 b 1256 760 1244 794 1276 793 m 969 556 b 147 622 1035 1289 74 1118 b 203 517 153 579 172 543 b 735 886 279 678 525 1004 b 724 867 756 875 742 861 b 274 469 550 921 332 600 b 969 556 438 389 743 433 m 961 507 b 253 421 732 385 436 347 b 325 -22 186 246 190 44 b 936 408 568 -142 840 136 b 961 507 947 440 957 475 "},"P":{"ha":1236,"x_min":0,"x_max":0,"o":"m 1339 979 b 1061 379 1689 771 1336 446 b 750 346 947 351 824 340 b 542 93 689 256 621 169 b 133 -50 424 -18 282 -68 b 258 203 -150 -17 -56 308 b 254 185 288 192 278 175 b 168 -11 32 268 -24 -1 b 488 133 292 -17 394 43 b 1011 947 669 313 775 682 b 1085 1025 1038 975 1060 1001 b 628 1015 926 1049 744 1038 b 131 669 453 983 164 876 b 267 493 115 572 183 496 b 475 661 354 490 443 568 b 494 660 479 682 494 679 b 264 465 493 533 372 463 b 58 681 154 469 51 539 b 622 1061 71 929 424 1032 b 1122 1060 776 1083 958 1093 b 1226 1118 1153 1083 1185 1103 b 1240 1097 1271 1136 1274 1118 b 1178 1046 1226 1088 1201 1069 b 1339 979 1236 1031 1290 1008 m 1307 950 b 1151 1013 1265 978 1211 999 b 769 375 1010 814 904 582 b 1017 413 840 372 929 386 b 1307 950 1318 504 1525 804 "},"Q":{"ha":1044,"x_min":0,"x_max":0,"o":"m 735 886 b 724 867 756 875 742 861 b 224 113 506 933 138 422 b 699 44 289 -115 515 -94 b 439 1047 1188 414 1053 1128 b 182 629 222 1018 129 844 b 149 621 189 599 167 585 b 433 1078 46 831 201 1039 b 701 -3 1253 1217 1211 333 b 164 96 519 -122 256 -136 b 735 886 10 481 461 1040 m 924 -512 b 154 -126 435 -512 371 -126 b 63 -192 119 -126 67 -151 b 40 -183 60 -219 39 -211 b 154 -85 43 -146 92 -85 b 924 -471 401 -85 507 -390 b 899 -176 1225 -529 1164 -219 b 894 -150 871 -172 868 -146 b 924 -512 1218 -201 1278 -512 "},"R":{"ha":1422,"x_min":0,"x_max":0,"o":"m 1522 260 b 1381 13 1504 219 1440 78 b 1086 14 1294 -81 1176 -81 b 885 507 960 146 900 417 b 640 122 818 375 754 247 b 203 -50 518 -10 364 -71 b 328 203 -92 -15 4 314 b 319 186 353 193 343 178 b 238 -11 97 271 46 -1 b 786 492 483 -24 638 231 b 1115 1021 899 689 1001 894 b 599 989 958 1036 786 1029 b 203 686 363 940 228 806 b 503 561 164 499 383 433 b 556 651 538 599 554 633 b 574 649 558 685 575 664 b 519 536 567 604 547 565 b 132 686 379 389 111 451 b 617 1047 146 833 308 1003 b 1146 1054 810 1075 985 1076 b 1197 1047 1206 1119 1211 1090 b 1335 1021 1247 1039 1293 1032 b 1100 536 1713 911 1540 608 b 972 524 1046 528 1003 525 b 1126 110 979 485 1022 268 b 1365 53 1196 4 1265 -46 b 1499 260 1432 119 1483 229 b 1522 260 1511 283 1536 290 m 1317 986 b 1181 1013 1276 997 1231 1004 b 914 560 1093 860 994 721 b 1089 578 968 569 1022 569 b 1317 986 1376 614 1589 904 "},"S":{"ha":1251,"x_min":0,"x_max":0,"o":"m 1250 864 b 1157 819 1228 846 1197 831 b 1164 847 1119 810 1118 842 b 811 1053 1338 868 1258 1213 b 736 722 646 993 549 838 b 1064 558 821 671 961 622 b 926 -18 1347 383 1161 122 b -3 225 613 -206 21 -167 b 235 610 -10 357 99 546 b 249 589 254 618 294 624 b 153 485 211 560 178 525 b 75 225 103 407 76 314 b 849 -11 72 -119 571 -156 b 1013 486 1082 111 1181 350 b 636 675 926 556 740 606 b 758 1090 429 813 556 1018 b 1204 1097 897 1139 1104 1147 b 1250 864 1303 1049 1336 935 "},"T":{"ha":1275,"x_min":0,"x_max":0,"o":"m 1944 847 b 1788 775 1944 794 1875 764 b 1438 864 1582 801 1467 851 b 1056 61 1271 599 1260 294 b 68 417 761 -274 -119 -176 b 239 544 110 546 247 603 b 96 353 217 517 118 485 b 517 -81 46 68 303 -85 b 989 128 735 -75 883 13 b 1397 878 1157 310 1339 800 b 976 954 1251 924 1125 947 b 638 497 579 974 419 567 b 903 654 808 443 908 615 l 903 657 b 931 646 917 669 931 664 b 624 463 913 497 754 418 b 967 1025 340 561 446 1072 b 1419 904 1133 1011 1331 929 b 1522 989 1432 919 1492 989 l 1521 989 b 1531 949 1565 1003 1576 935 b 1458 893 1518 958 1476 911 b 1915 856 1578 854 1915 761 b 1931 876 1915 868 1918 876 b 1944 847 1940 876 1944 854 "},"U":{"ha":1308,"x_min":0,"x_max":0,"o":"m 1369 669 b 1319 454 1438 636 1357 539 b 1236 229 1301 415 1263 328 b 1256 -86 1196 79 1179 -90 b 1246 -118 1322 -81 1289 -125 b 1164 249 1115 -94 1140 129 b 1079 124 1143 214 1114 168 b 669 63 894 -114 699 -115 b 914 807 639 250 863 606 b 885 1108 947 940 951 1068 b 422 1046 771 1178 581 1138 b 389 249 -133 721 3 104 b 460 658 579 319 725 718 b 453 682 388 642 442 678 b 388 217 739 803 694 346 b 425 1092 -28 40 -251 722 b 878 1153 583 1179 754 1207 b 996 801 1014 1094 1031 954 b 749 63 946 582 728 265 b 1058 163 764 -82 906 -58 b 1292 596 1151 297 1235 493 b 1369 669 1322 650 1353 669 "},"V":{"ha":1354,"x_min":0,"x_max":0,"o":"m 1433 540 b 736 -131 1300 189 915 -162 b 842 569 621 -110 656 125 b 904 1101 914 740 1013 1035 b 104 656 679 1240 218 965 b 300 224 -1 365 143 224 b 621 544 456 224 621 392 b 494 656 621 619 588 683 b 488 675 453 643 461 663 b 682 547 606 731 682 653 b 278 188 682 371 451 188 b 31 700 86 188 -99 404 b 899 1144 181 1043 653 1253 b 933 553 1101 1056 1040 772 b 756 28 844 372 778 154 b 1139 183 701 -286 1092 128 b 1383 751 1288 357 1411 582 b 1317 822 1371 824 1349 817 b 1322 860 1268 832 1267 874 b 1433 540 1390 842 1513 746 "},"W":{"ha":1867,"x_min":0,"x_max":0,"o":"m 1869 313 b 1144 83 1728 -47 1171 -283 b 1172 282 1140 151 1156 226 b 722 -172 1094 154 875 -165 b 625 -28 667 -175 617 -142 b 806 519 633 89 701 271 b 871 1051 876 690 979 985 b 100 594 644 1190 215 906 b 360 192 -29 246 175 124 b 431 608 553 263 676 649 b 428 631 388 601 397 621 b 357 158 735 725 697 301 b 22 646 139 68 -133 290 b 865 1096 171 989 619 1204 b 906 525 1067 1007 1004 747 b 706 -42 824 342 732 90 b 778 -119 686 -137 722 -153 b 1258 550 947 -19 1138 382 b 1350 503 1331 651 1389 618 b 1211 119 1314 399 1226 236 b 1783 325 1161 -279 1667 47 b 1643 817 1899 599 1864 847 b 1663 850 1518 783 1599 863 b 1869 313 1840 865 2001 650 "},"X":{"ha":1121,"x_min":0,"x_max":0,"o":"m 1499 1067 b 778 549 1394 965 1104 782 b 799 74 774 356 776 158 b 1194 263 863 -164 1078 -7 b 1218 256 1206 286 1235 290 b 697 24 1015 -169 750 -221 b 692 496 682 90 688 286 b -65 -235 400 285 114 46 b -150 -306 -99 -289 -131 -306 b -143 -235 -174 -306 -178 -282 b 690 549 76 69 386 332 b 676 914 692 682 693 800 b 172 797 640 1158 236 935 b 150 842 165 792 121 800 b 600 1094 165 865 418 1094 b 776 601 782 1094 775 847 b 1400 1054 1053 796 1268 924 b 1501 1135 1449 1101 1479 1135 b 1499 1067 1524 1135 1561 1128 "},"Y":{"ha":1332,"x_min":0,"x_max":0,"o":"m 1556 -40 b 1456 -182 1567 -76 1540 -146 b 1110 -214 1383 -211 1250 -212 b 725 -510 1017 -354 867 -456 b 464 -268 363 -649 117 -411 b 1064 -179 653 -190 863 -179 b 1254 358 1136 -1 1204 172 b 972 -19 1201 244 1101 68 b 656 118 831 -115 628 -93 b 858 567 675 257 782 442 b 956 1097 982 768 1063 1029 b 153 651 732 1240 282 958 b 400 238 10 308 219 172 b 511 657 593 307 753 700 b 508 676 464 647 483 671 b 394 206 801 756 706 333 b 81 688 174 114 -89 340 b 950 1142 244 1025 707 1251 b 969 585 1154 1050 1094 796 b 753 110 876 426 781 236 b 953 10 717 -57 844 -68 b 1310 624 1125 132 1267 479 b 1378 535 1317 657 1425 742 b 1131 -178 1329 321 1233 4 b 1539 -39 1267 -169 1511 -193 b 1556 -40 1536 -18 1544 -4 m 1044 -214 b 486 -326 857 -214 651 -231 b 704 -481 214 -482 482 -562 b 1044 -214 828 -435 961 -347 "},"Z":{"ha":940,"x_min":0,"x_max":0,"o":"m 1453 918 b 1228 918 1410 882 1328 893 b 875 481 1128 826 979 610 b 440 64 717 285 542 147 b 969 -131 440 64 821 -101 b 1354 3 1075 -151 1332 -156 b 1386 -18 1361 47 1394 61 b 1060 -219 1381 -71 1331 -214 b 406 44 856 -224 406 44 b 128 -51 285 -42 193 -65 b 214 185 -47 -11 -17 246 b 413 85 256 174 317 146 b 882 639 413 85 774 507 b 1178 931 960 731 1074 846 b 597 969 1014 976 763 1013 b 486 724 479 939 342 819 b 469 697 535 690 483 693 b 414 739 458 700 435 715 b 681 1063 338 824 357 1038 b 1204 951 851 1076 1050 999 b 1358 1044 1261 996 1315 1029 b 1453 918 1474 1085 1544 996 m 1428 929 b 1413 1029 1468 954 1463 1029 b 1249 939 1369 1029 1313 993 b 1428 929 1328 917 1392 907 m 386 58 b 344 90 386 58 358 81 b 203 144 288 122 239 140 b 208 -11 38 163 35 -17 b 386 58 272 -8 347 25 "},"[":{"ha":813,"x_min":0,"x_max":0,"o":"m 810 947 b 775 922 810 921 796 922 b 672 928 740 922 707 928 b 607 921 656 928 622 929 b 135 94 467 850 135 254 b 228 33 135 40 186 33 b 328 39 261 33 294 39 b 386 8 346 39 386 33 b 214 -24 386 -28 246 -24 b 53 39 172 -24 53 -24 b 471 892 53 272 318 714 b 656 997 526 956 565 997 l 683 997 b 810 947 717 997 810 997 "},"\\":{"ha":1204,"x_min":0,"x_max":0,"o":"m 1183 -56 b 96 1057 929 19 346 1057 b 38 1038 76 1057 57 1043 l 28 1047 b 128 1097 42 1088 89 1097 b 601 713 282 1097 457 906 b 1181 -26 793 454 954 208 b 1193 -47 1186 -33 1192 -39 "},"]":{"ha":772,"x_min":0,"x_max":0,"o":"m 761 931 b 382 40 761 663 571 231 b 128 -24 319 -22 211 -24 b 24 -17 100 -24 44 -26 b 349 107 43 85 239 -17 b 679 882 483 258 679 679 b 675 924 679 896 678 910 b 629 929 660 929 644 929 b 475 924 578 929 526 924 l 471 926 b 674 994 489 996 618 994 b 761 931 722 994 761 990 "},"^":{"ha":514,"x_min":0,"x_max":0,"o":"m 560 543 b 543 531 560 533 550 531 b 361 658 499 531 388 622 b 172 536 332 638 197 540 l 164 546 b 392 717 168 571 361 713 l 400 713 b 553 554 443 653 496 601 l 560 543 "},"_":{"ha":1119,"x_min":0,"x_max":0,"o":"m 1092 -83 b 304 -93 829 -83 567 -87 b 35 -101 214 -94 125 -101 b 11 -61 18 -101 11 -74 b 35 -35 11 -47 19 -35 l 1063 -35 b 1101 -74 1083 -35 1100 -54 "},"`":{"ha":293,"x_min":0,"x_max":0,"o":"m 268 567 b 254 554 268 558 261 554 b 64 650 242 554 90 638 b 13 713 39 663 13 682 b 39 742 13 729 24 742 b 268 567 65 742 268 576 "},"a":{"ha":486,"x_min":0,"x_max":0,"o":"m 585 256 b 375 -3 543 171 458 4 b 306 176 329 -6 264 31 b 206 46 283 140 246 85 b 150 388 46 -107 -60 136 b 472 451 233 486 393 538 b 457 411 492 431 481 407 b 339 446 442 463 390 474 b 154 247 276 411 204 329 b 97 107 143 228 106 160 b 225 99 83 10 160 21 b 349 293 274 157 313 225 b 443 382 379 351 399 385 b 501 376 461 381 482 372 b 372 117 472 347 390 201 b 386 33 361 60 368 33 b 565 267 444 31 536 207 b 585 256 578 292 599 283 "},"b":{"ha":479,"x_min":0,"x_max":0,"o":"m 364 790 b 457 858 397 839 426 860 l 464 858 b 522 853 482 857 503 849 b 217 389 472 800 310 574 b 181 33 146 249 86 53 b 300 113 213 26 251 54 b 404 285 339 158 381 229 b 351 457 440 376 439 465 b 371 485 310 453 308 494 b 482 289 472 469 500 378 b 256 10 457 172 372 40 b 64 149 97 -33 39 49 b 125 301 75 192 97 244 b -22 54 61 181 6 81 b -33 72 -33 44 -42 60 b 364 790 61 197 244 613 "},"c":{"ha":361,"x_min":0,"x_max":0,"o":"m 469 254 b 193 -6 401 110 346 -6 b 146 379 -26 -6 46 244 b 332 489 197 449 265 489 b 428 393 401 489 435 450 b 335 319 422 347 365 289 b 378 390 350 338 371 365 b 350 458 390 439 376 458 b 201 339 300 458 240 394 b 125 126 176 303 125 207 b 207 19 125 71 147 19 b 450 264 328 19 394 154 b 469 254 463 289 482 282 "},"d":{"ha":510,"x_min":0,"x_max":0,"o":"m 767 864 b 400 185 725 825 481 376 b 408 36 386 153 343 36 b 588 267 478 36 558 208 b 608 258 599 292 621 286 b 383 0 575 181 494 0 b 321 38 361 0 339 11 b 308 160 306 61 294 103 b 106 6 267 92 201 -19 b 153 388 -25 42 51 265 b 451 468 231 478 351 526 b 613 797 518 594 579 722 b 707 869 639 860 663 874 b 767 864 725 868 746 861 m 440 446 b 144 224 371 514 218 360 b 254 132 53 51 136 -35 b 440 446 306 204 375 324 "},"e":{"ha":342,"x_min":0,"x_max":0,"o":"m 442 260 b 176 -6 390 149 331 -6 b 43 128 107 -6 44 40 b 150 388 42 211 89 315 b 388 478 221 471 326 524 b 311 275 440 438 400 343 b 140 214 268 243 178 214 b 188 24 119 164 96 24 b 417 261 310 24 385 188 b 442 260 428 286 456 289 m 297 299 b 233 368 411 394 404 575 b 150 238 197 324 163 263 b 297 299 175 238 247 257 "},"f":{"ha":275,"x_min":0,"x_max":0,"o":"m 504 863 b 97 147 417 781 236 460 b 142 43 115 125 132 92 l 146 25 b 354 271 229 19 308 174 b 375 261 364 289 385 282 b 149 -1 324 144 247 -1 b -90 -483 165 -196 60 -490 b -162 -411 -129 -482 -161 -467 b -19 40 -165 -321 -101 -153 b -10 164 -49 85 -36 144 b 40 179 4 175 22 182 b 325 772 140 404 249 629 b 443 869 356 832 385 869 b 504 863 460 869 483 860 m 119 -7 b 39 15 92 -10 57 0 b -76 -328 -10 -107 -54 -236 b 4 -390 -114 -489 -50 -462 b 119 -7 72 -301 122 -131 m 117 19 b 104 82 115 43 111 64 b 83 115 99 94 90 107 l 53 46 b 108 19 61 31 83 19 l 117 19 "},"g":{"ha":544,"x_min":0,"x_max":0,"o":"m 643 256 b 429 -17 572 110 532 32 b -17 -439 368 -192 185 -439 b -147 -332 -104 -439 -147 -404 b -26 -172 -147 -264 -93 -211 b 343 -22 110 -92 236 -65 b 375 132 360 26 369 76 b 376 246 381 186 381 231 b 110 6 332 160 221 -28 b 157 388 -29 65 54 265 b 479 451 239 486 375 533 b 464 411 528 411 479 369 b 240 360 428 510 325 454 b 133 46 139 246 61 78 b 376 311 215 11 350 224 b 463 367 396 375 440 350 b 444 29 481 256 474 139 b 542 119 478 53 514 82 b 622 267 588 181 608 240 b 643 256 635 292 657 283 m 281 -79 b -25 -212 179 -114 63 -154 b -50 -411 -115 -272 -165 -411 b 125 -339 10 -411 92 -364 b 250 -203 168 -304 211 -254 b 329 -62 283 -156 310 -110 "},"h":{"ha":461,"x_min":0,"x_max":0,"o":"m 558 254 b 333 -6 513 158 436 -6 b 260 157 285 -6 218 28 b 336 303 271 193 297 240 b 238 294 369 357 344 394 b 43 19 190 251 122 174 b -8 -1 33 0 21 -1 b -56 -10 -29 -3 -42 -1 b 326 756 57 224 192 507 b 425 843 358 814 381 846 b 483 838 443 842 464 835 b 128 203 422 775 242 435 b 240 325 165 250 203 293 b 497 456 307 385 450 472 b 331 97 497 456 349 194 b 351 24 319 40 333 25 b 539 268 415 19 510 208 b 558 254 551 293 572 283 "},"i":{"ha":242,"x_min":0,"x_max":0,"o":"m 293 581 b 226 524 288 549 258 524 b 178 581 194 524 174 549 b 244 638 183 613 214 638 b 293 581 276 638 299 613 m 97 118 b 126 31 85 72 88 33 b 189 57 147 28 174 43 b 319 267 235 103 281 189 b 338 254 331 292 350 282 b 119 0 301 176 222 0 b 44 181 15 0 15 108 l 133 407 b 119 465 144 433 125 458 l 196 467 b 225 418 240 467 240 451 l 114 158 b 97 118 114 158 100 128 "},"j":{"ha":246,"x_min":0,"x_max":0,"o":"m 82 225 b 69 247 74 225 61 229 l 143 407 b 129 465 156 432 135 458 l 206 467 b 235 418 250 467 250 451 l 124 158 b 38 -25 97 97 68 36 b 242 119 121 7 179 28 b 325 268 286 185 311 242 b 344 256 338 293 358 283 b 14 -69 250 63 214 3 b -417 -439 -74 -226 -211 -439 b -528 -269 -556 -439 -569 -347 b -397 -156 -501 -218 -451 -181 b -60 -56 -304 -111 -172 -87 b -15 25 -44 -29 -28 -1 b 82 225 18 92 58 176 m -86 -100 b -374 -186 -175 -124 -294 -151 b -450 -411 -517 -247 -568 -411 b -117 -151 -328 -411 -179 -239 b -86 -100 -106 -136 -96 -118 m 293 581 b 226 524 288 549 258 524 b 178 581 194 524 174 549 b 244 638 183 613 214 638 b 293 581 276 638 299 613 "},"k":{"ha":504,"x_min":0,"x_max":0,"o":"m 364 790 b 457 858 397 839 426 860 l 464 858 b 522 853 482 857 503 849 b 217 389 451 799 310 574 b 167 271 199 353 181 313 b 393 465 225 343 313 435 b 450 301 572 532 556 376 b 310 247 408 272 371 253 b 474 81 257 118 346 -56 b 586 271 508 118 547 190 b 604 258 597 293 614 281 b 328 -8 494 6 408 -17 b 221 110 278 -3 235 38 b 286 269 204 200 256 267 b 396 311 317 267 364 285 b 263 343 483 382 422 479 b 149 217 226 311 186 269 b 110 0 124 169 86 19 l 22 0 b 11 31 3 0 6 13 b 125 301 36 126 83 206 b -22 54 61 181 6 81 b -33 72 -33 44 -42 60 b 364 790 61 197 244 613 "},"l":{"ha":294,"x_min":0,"x_max":0,"o":"m 440 685 b 156 268 376 542 292 392 b 126 176 149 244 135 211 b 269 89 85 10 196 -14 b 372 265 315 154 354 229 b 393 258 385 289 406 286 b 146 -3 358 185 286 -3 b 81 271 -10 -3 57 188 b 292 761 124 426 211 626 b 440 685 390 926 540 907 m 419 706 b 386 768 447 769 461 875 b 167 313 318 672 210 424 b 419 706 265 413 365 576 "},"m":{"ha":704,"x_min":0,"x_max":0,"o":"m 803 256 b 574 -6 761 171 679 -6 b 499 157 524 -6 457 28 b 575 303 510 193 536 240 b 476 294 608 357 583 394 b 281 0 417 239 299 83 b 236 76 249 0 229 36 b 294 235 246 138 271 183 b 239 294 340 329 385 431 b 47 24 192 251 126 176 b -6 1 38 3 25 1 b -51 -7 -25 0 -37 1 b 138 379 15 125 69 254 b 236 467 174 446 192 469 b 294 461 254 465 275 457 b 126 200 253 439 176 300 b 242 325 154 235 199 288 b 444 456 308 385 397 472 b 465 394 469 446 478 422 b 364 200 440 336 397 268 b 479 325 392 235 438 288 b 736 456 546 385 690 472 b 569 97 736 456 589 194 b 593 28 560 40 575 28 b 783 268 665 28 754 204 b 803 256 794 293 817 283 "},"n":{"ha":465,"x_min":0,"x_max":0,"o":"m 564 256 b 335 -6 522 171 442 -6 b 261 157 286 -6 219 28 b 338 303 272 193 299 240 b 239 294 371 357 346 394 b 46 19 192 251 124 174 b -7 -1 35 0 22 -1 b -54 -10 -28 -3 -40 -1 b 138 379 13 122 69 254 b 236 467 174 446 192 469 b 294 461 254 465 275 457 b 126 200 253 439 176 300 b 242 325 154 235 199 288 b 499 456 308 385 451 472 b 332 97 499 456 350 194 b 354 28 321 40 336 28 b 544 268 426 28 515 210 b 564 256 556 293 578 283 "},"o":{"ha":465,"x_min":0,"x_max":0,"o":"m 567 261 b 349 11 543 208 465 11 b 260 47 307 11 278 26 b 139 0 221 18 179 -1 b 71 253 33 3 18 129 b 335 486 125 381 240 489 b 403 233 440 485 456 357 b 286 69 382 185 339 119 b 351 35 297 49 318 35 b 546 274 440 35 513 207 b 567 261 553 288 576 282 m 364 440 b 167 258 304 457 218 368 b 150 32 113 144 100 47 b 244 67 176 25 211 39 b 222 135 229 89 222 114 b 271 194 224 167 236 194 b 313 153 294 194 313 175 b 310 138 313 147 311 143 b 353 213 325 160 340 186 b 364 440 407 326 414 425 "},"p":{"ha":467,"x_min":0,"x_max":0,"o":"m 426 486 b 379 106 558 450 481 228 b 82 25 303 14 181 -33 l -50 -304 b -143 -376 -78 -364 -97 -379 b -201 -369 -161 -375 -182 -367 b 94 242 -167 -336 69 115 b 63 229 79 218 53 210 b 90 292 69 243 83 275 b 99 465 117 353 132 458 b 167 476 99 465 156 475 b 217 419 207 481 219 488 b 178 253 215 374 196 300 b 426 486 219 321 332 513 m 389 269 b 279 361 481 440 397 526 b 93 46 226 289 158 168 b 389 269 161 -22 314 132 "},"q":{"ha":475,"x_min":0,"x_max":0,"o":"m 508 351 b 182 -399 401 188 194 -312 b 142 -357 172 -382 153 -369 b 150 -225 111 -324 122 -286 b 360 219 263 35 301 89 b 263 78 351 204 275 94 b 108 6 224 32 168 -12 b 157 388 -29 65 54 265 b 478 451 239 486 375 533 b 464 411 528 411 479 369 b 133 46 385 626 1 104 b 365 288 207 14 329 229 b 450 357 401 349 414 360 b 508 351 467 357 489 349 "},"r":{"ha":361,"x_min":0,"x_max":0,"o":"m 458 254 b 257 1 418 171 347 24 b 181 176 210 -10 125 32 b 267 340 201 233 251 306 b 160 406 286 386 238 404 l 143 361 b -25 54 110 274 43 119 b -36 72 -36 44 -44 60 b 178 582 74 217 150 426 b 263 532 192 660 282 625 b 186 439 254 493 210 456 b 378 444 238 436 310 438 b 349 338 388 425 365 372 b 269 36 328 294 186 40 b 442 268 326 35 413 208 b 458 254 454 292 472 282 "},"s":{"ha":356,"x_min":0,"x_max":0,"o":"m 457 263 b 165 8 406 147 322 -39 b 108 -6 146 0 126 -6 b 39 190 -60 -6 -28 188 b 158 431 76 261 122 351 b 274 550 183 485 225 543 b 325 543 294 553 311 550 b 319 519 350 531 344 507 b 275 521 306 525 289 528 b 246 344 211 490 225 394 b 296 181 268 292 299 242 b 197 26 293 126 251 63 l 207 25 b 332 89 254 18 297 47 b 436 271 364 128 407 214 b 457 263 443 285 464 276 m 211 181 b 193 444 215 268 182 382 b 63 188 156 369 96 249 b 92 143 63 188 93 189 b 150 36 89 90 118 51 b 211 181 181 60 207 107 m 126 24 b 71 128 97 42 74 75 b 99 18 26 83 44 18 b 126 24 108 18 118 19 "},"t":{"ha":278,"x_min":0,"x_max":0,"o":"m 421 528 b 418 497 435 528 432 497 l 338 497 b 153 268 290 417 235 343 b 121 126 140 232 121 126 b 210 54 100 33 164 21 b 357 264 274 101 319 189 b 375 256 368 289 389 283 b 239 39 314 128 290 90 b 47 143 164 -33 26 -10 b 156 497 60 238 111 389 l 83 497 b 86 528 68 497 71 528 l 169 528 b 271 725 201 597 236 665 b 414 647 367 893 517 869 b 354 528 394 606 375 567 l 421 528 m 393 669 b 353 731 419 728 439 851 b 254 528 319 683 289 607 l 324 528 b 393 669 350 575 374 624 m 240 497 b 165 313 211 429 185 361 b 306 497 218 367 265 431 "},"u":{"ha":496,"x_min":0,"x_max":0,"o":"m 594 256 b 374 1 550 161 475 1 b 310 179 311 1 274 67 b 122 1 263 96 190 1 b 35 64 94 1 46 11 b 82 225 22 124 57 175 b 69 247 74 225 61 229 l 94 296 b 172 449 122 349 151 406 b 226 478 183 471 200 478 l 311 478 b 222 361 279 454 260 438 b 135 182 222 361 160 235 b 217 86 68 38 126 -18 b 424 449 294 176 371 339 b 478 478 435 471 451 478 l 553 478 b 457 340 513 446 499 426 b 364 119 418 263 372 167 b 390 36 351 60 371 38 b 575 268 458 36 528 168 b 594 256 586 293 608 283 "},"v":{"ha":364,"x_min":0,"x_max":0,"o":"m 444 467 b 442 460 443 465 442 463 b 101 -7 410 360 293 -46 b 92 242 18 10 53 135 b 67 246 76 218 58 226 l 92 293 b 96 465 119 347 133 456 b 164 476 96 465 153 475 b 214 419 204 481 217 488 b 174 251 213 374 192 297 b 140 40 139 160 104 57 b 338 265 207 11 282 128 b 326 404 318 308 314 367 b 444 467 365 528 471 528 "},"w":{"ha":661,"x_min":0,"x_max":0,"o":"m 694 468 b 692 461 693 467 692 464 b 354 0 663 364 556 -43 b 306 188 279 17 288 128 b 121 0 274 129 197 0 b 35 64 82 0 43 24 b 82 225 22 124 57 175 b 69 247 74 225 61 229 l 94 296 b 172 449 122 350 151 406 b 226 478 183 471 200 478 l 311 478 b 222 361 279 454 260 438 b 135 182 222 361 160 235 b 189 58 75 53 119 -8 b 414 449 274 140 382 382 b 467 478 424 471 442 478 l 551 478 b 496 426 540 467 513 456 b 419 281 467 378 456 357 b 390 25 403 246 301 31 b 594 267 469 19 542 133 b 583 406 575 310 572 368 b 694 468 619 529 719 528 "},"x":{"ha":463,"x_min":0,"x_max":0,"o":"m 563 260 b 321 0 517 168 454 0 b 219 136 251 0 217 75 b 221 164 219 146 219 156 b 61 -33 174 72 111 -10 b -43 -28 28 -50 -15 -56 b -19 -6 -56 -14 -32 8 b 51 -6 -4 -19 21 -19 b 238 285 107 21 199 157 b 250 390 244 322 251 356 b 160 369 250 433 213 456 b 74 210 143 342 90 239 b 61 228 61 188 47 199 b 181 433 88 283 144 400 b 258 465 206 454 232 468 b 314 290 333 457 329 368 b 479 490 363 383 439 479 b 535 449 510 497 543 486 b 479 404 529 424 504 404 b 444 428 461 404 449 414 b 294 186 389 375 324 275 b 332 35 281 106 297 42 b 542 267 421 15 489 165 b 563 260 556 293 572 279 "},"y":{"ha":554,"x_min":0,"x_max":0,"o":"m 651 253 b 321 -69 557 61 521 3 b -110 -439 233 -226 96 -439 b -221 -269 -249 -439 -262 -347 b -90 -156 -194 -218 -144 -181 b 247 -56 3 -111 135 -87 b 367 257 300 36 344 185 b 122 1 319 174 229 1 b 35 64 94 1 46 11 b 82 225 22 124 57 175 b 69 247 74 225 61 229 l 94 296 b 172 449 122 349 151 406 b 226 478 183 471 200 478 l 311 478 b 260 428 299 467 276 457 b 135 182 213 347 174 265 b 217 86 68 38 126 -18 b 435 449 294 176 382 339 b 489 478 446 471 463 478 l 564 478 b 456 293 511 442 490 386 b 344 -25 421 200 385 85 b 544 113 406 -7 490 35 b 632 265 588 175 618 239 b 651 253 644 290 665 281 m 222 -100 b -67 -186 132 -124 13 -151 b -142 -411 -208 -247 -261 -411 b 192 -151 -19 -411 128 -239 l 222 -100 "},"z":{"ha":474,"x_min":0,"x_max":0,"o":"m 572 256 b 331 -17 508 126 449 7 b -83 -421 260 -211 117 -362 b -242 -240 -225 -462 -315 -354 b 246 -15 -167 -128 69 -71 b 219 178 267 51 300 192 b 158 151 201 168 181 160 b 147 178 136 143 125 171 b 303 300 239 206 285 272 b 144 340 368 400 229 486 b 71 201 128 313 92 246 b 54 217 60 178 39 185 b 136 375 79 265 106 319 b 394 401 221 529 400 514 b 258 210 392 340 346 263 b 354 119 328 211 353 171 b 339 18 354 100 346 40 b 553 267 431 36 499 153 b 572 256 565 292 586 283 m 233 -50 b -111 -171 110 -89 -31 -122 b -126 -397 -233 -242 -272 -428 b 233 -50 -18 -374 158 -247 "},"{":{"ha":513,"x_min":0,"x_max":0,"o":"m 585 1008 b 578 976 617 1008 589 976 b 435 939 511 976 463 964 b 278 511 344 860 368 621 b 93 422 242 467 179 438 b 236 347 168 408 215 383 b 204 25 274 279 218 93 b 214 -115 190 -44 193 -92 b 339 -151 235 -140 276 -151 b 335 -182 356 -150 349 -182 l 328 -182 b 146 -133 238 -182 176 -165 b 169 215 85 -67 157 151 b 160 356 183 283 181 331 b 111 392 147 371 131 383 b 21 404 90 400 61 404 b 29 442 -3 404 29 442 b 189 490 107 450 160 465 b 254 631 219 514 240 561 b 376 960 274 722 292 894 b 579 1008 419 992 488 1008 l 585 1008 "},"|":{"ha":674,"x_min":0,"x_max":0,"o":"m 307 -321 l 307 1040 l 367 1040 l 367 -321 "},"}":{"ha":674,"x_min":0,"x_max":0,"o":"m 663 422 b 650 385 686 421 650 385 b 485 336 583 385 528 369 b 247 -135 367 247 394 -32 b 43 -182 201 -167 133 -182 l 36 -182 b 47 -151 19 -181 29 -151 b 194 -114 114 -151 164 -139 b 407 326 296 -33 289 218 b 588 403 447 363 507 388 b 454 478 517 415 474 440 b 507 794 421 549 488 728 b 514 933 528 863 531 908 b 389 971 497 958 456 971 b 397 1003 361 971 397 1003 l 404 1003 b 583 954 499 1003 558 988 b 529 468 663 853 463 556 b 663 422 547 444 592 429 "},"~":{"ha":674,"x_min":0,"x_max":0,"o":"m 629 686 b 492 575 604 635 557 569 b 324 629 433 581 381 625 b 251 583 290 632 265 610 b 219 586 249 575 217 579 b 356 690 246 633 292 696 b 524 640 415 686 468 644 b 600 689 561 636 585 657 b 629 686 603 696 632 692 "},"Ä":{"ha":989,"x_min":0,"x_max":0,"o":"m 1163 1135 b 1118 1089 1163 1108 1144 1089 b 1071 1135 1092 1089 1071 1107 b 1115 1181 1071 1161 1089 1181 b 1163 1135 1142 1181 1163 1163 m 983 1135 b 939 1089 983 1108 965 1089 b 892 1135 913 1089 892 1107 b 936 1181 892 1161 910 1181 b 983 1135 963 1181 983 1163 m 1135 819 b 729 565 1135 726 1033 592 b 326 603 581 553 449 564 b 142 303 286 567 192 426 b 476 99 0 -51 221 -114 b 801 488 619 219 732 361 b 876 451 883 635 951 532 b 738 125 803 371 763 261 b 942 61 694 -110 832 -75 b 1063 258 985 117 1032 189 b 1086 253 1075 285 1101 286 b 957 31 1061 197 1008 99 b 753 -89 910 -33 831 -89 b 696 267 599 -89 633 185 b 125 -49 582 132 322 -133 b 244 640 -71 35 65 443 b 114 729 192 665 146 693 b 101 874 76 769 74 853 b 125 849 117 893 139 879 b 153 749 108 811 122 781 b 268 668 182 717 221 689 b 910 982 432 846 656 982 b 1135 819 1050 982 1135 914 m 1081 835 b 914 949 1081 910 1010 949 b 347 628 669 949 493 800 b 729 596 449 596 563 582 b 1081 835 946 614 1081 708 "},"Å":{"ha":989,"x_min":0,"x_max":0,"o":"m 1049 1104 b 1088 1053 1047 1075 1064 1053 b 1135 1107 1113 1053 1132 1078 b 1096 1157 1138 1136 1119 1158 b 1049 1104 1072 1156 1051 1133 m 1000 1101 b 1101 1179 1004 1143 1051 1176 b 1185 1107 1153 1181 1189 1147 b 1083 1029 1179 1065 1135 1031 b 1000 1101 1032 1028 994 1061 m 1135 819 b 729 565 1135 726 1033 592 b 326 603 581 553 449 564 b 142 303 286 567 192 426 b 476 99 0 -51 221 -114 b 801 488 619 219 732 361 b 876 451 883 635 951 532 b 738 125 803 371 763 261 b 942 61 694 -110 832 -75 b 1063 258 985 117 1032 189 b 1086 253 1075 285 1101 286 b 957 31 1061 197 1008 99 b 753 -89 910 -33 831 -89 b 696 267 599 -89 633 185 b 125 -49 582 132 322 -133 b 244 640 -71 35 65 443 b 114 729 192 665 146 693 b 101 874 76 769 74 853 b 125 849 117 893 139 879 b 153 749 108 811 122 781 b 268 668 182 717 221 689 b 910 982 432 846 656 982 b 1135 819 1050 982 1135 914 m 1081 835 b 914 949 1081 910 1010 949 b 347 628 669 949 493 800 b 729 596 449 596 563 582 b 1081 835 946 614 1081 708 "},"Ç":{"ha":986,"x_min":0,"x_max":0,"o":"m 681 -290 b 608 -396 681 -335 643 -372 b 503 -419 579 -415 536 -419 b 328 -356 468 -419 328 -404 b 336 -346 328 -350 331 -346 b 357 -361 344 -346 351 -356 b 476 -396 382 -387 442 -396 b 610 -346 519 -396 585 -385 b 629 -289 621 -329 629 -308 b 525 -210 629 -235 572 -210 b 425 -243 472 -210 439 -243 b 399 -222 413 -243 399 -235 b 404 -210 399 -217 400 -214 b 493 -139 411 -201 465 -160 b 319 -97 436 -135 378 -122 b 251 776 -29 50 58 533 b 246 1094 229 863 218 992 b 274 1088 251 1118 281 1126 b 285 824 258 1000 271 899 b 863 1078 435 1017 643 1103 b 635 432 1404 1017 1207 349 b 290 668 490 453 363 518 b 374 -71 240 603 13 40 b 839 -12 522 -115 701 -94 b 1067 268 960 58 1008 149 b 1083 254 1078 292 1097 282 b 860 -35 1024 132 978 49 b 521 -140 765 -99 649 -143 b 461 -189 511 -149 460 -181 b 515 -185 479 -186 497 -185 b 681 -290 578 -185 681 -211 m 875 1025 b 318 713 668 1056 456 922 b 656 465 381 553 504 482 b 875 1025 1157 410 1281 967 "},"É":{"ha":1253,"x_min":0,"x_max":0,"o":"m 1238 1143 b 1017 1039 1228 1124 1025 1035 b 1014 1054 1011 1042 1010 1049 b 1158 1161 1018 1063 1140 1146 b 1226 1175 1178 1175 1203 1186 b 1238 1143 1239 1169 1243 1156 m 1100 267 b 1051 15 1201 215 1174 111 b 449 -167 914 -93 678 -167 b 369 469 -111 -167 -85 333 b 510 493 417 483 465 492 b 343 667 432 521 336 585 b 982 1010 364 906 761 1035 b 953 664 1306 972 1233 726 b 949 689 874 646 886 682 b 976 976 1076 703 1231 950 b 449 701 760 997 481 879 b 740 454 411 483 761 553 b 375 411 724 399 551 461 b 454 -136 85 331 -24 -136 b 994 53 668 -136 875 -40 b 1071 249 1097 133 1147 231 b 1100 267 1007 264 1054 289 "},"Ñ":{"ha":1443,"x_min":0,"x_max":0,"o":"m 1656 889 b 1339 185 1653 724 1476 485 b 1419 -189 1213 -92 1260 -262 b 1389 -242 1515 -144 1490 -246 b 1219 118 1200 -233 1144 -107 b 1546 874 1268 263 1524 731 b 1376 925 1563 971 1474 972 b 1068 672 1274 876 1167 790 b 639 -89 872 435 729 100 b 524 -97 615 -139 513 -142 b 875 731 592 3 808 436 b 439 919 956 1096 678 1068 b 257 157 29 665 -18 157 b 475 553 549 157 722 585 b 472 575 447 550 458 572 b 253 131 801 654 621 131 b 43 592 76 131 -74 308 b 424 979 110 751 264 892 b 965 783 653 1104 1007 1125 b 850 460 953 676 897 564 b 857 444 778 303 831 404 b 1040 694 907 522 971 611 b 1369 983 1144 821 1263 935 b 1656 889 1500 1044 1658 1040 m 1624 1174 b 1510 1082 1603 1132 1564 1078 b 1371 1126 1461 1086 1418 1124 b 1311 1089 1343 1129 1322 1111 b 1285 1092 1308 1082 1282 1086 b 1397 1178 1307 1131 1344 1182 b 1536 1136 1447 1174 1490 1140 b 1600 1176 1568 1133 1588 1150 b 1624 1174 1603 1182 1626 1179 "},"Ö":{"ha":1089,"x_min":0,"x_max":0,"o":"m 981 1135 b 936 1089 981 1108 963 1089 b 889 1135 910 1089 889 1107 b 933 1181 889 1161 907 1181 b 981 1135 960 1181 981 1163 m 801 1135 b 757 1089 801 1108 783 1089 b 710 1135 731 1089 710 1107 b 754 1181 710 1161 728 1181 b 801 1135 781 1181 801 1163 m 1238 733 b 1031 525 1186 653 1118 581 b 999 376 1026 478 1015 429 b 303 -93 913 114 597 -189 b 160 433 144 -42 65 192 b 53 608 100 474 60 532 b 1036 574 -1 1142 1064 1260 b 1217 749 1111 624 1182 681 b 1238 733 1226 768 1258 767 m 951 529 b 129 596 1017 1263 56 1092 b 185 490 135 553 154 517 b 717 860 261 651 507 978 b 706 840 738 849 724 835 b 256 443 532 894 314 574 b 951 529 419 363 725 407 m 943 481 b 235 394 714 358 418 321 b 307 -49 168 219 172 18 b 918 382 550 -168 822 110 b 943 481 929 414 939 449 "},"Ü":{"ha":1308,"x_min":0,"x_max":0,"o":"m 1369 669 b 1319 454 1438 636 1357 539 b 1236 229 1301 415 1263 328 b 1256 -86 1196 79 1179 -90 b 1246 -118 1322 -81 1289 -125 b 1164 249 1115 -94 1140 129 b 1079 124 1143 214 1114 168 b 669 63 894 -114 699 -115 b 914 807 639 250 863 606 b 885 1108 947 940 951 1068 b 422 1046 771 1178 581 1138 b 389 249 -133 721 3 104 b 460 658 579 319 725 718 b 453 682 388 642 442 678 b 388 217 739 803 694 346 b 425 1092 -28 40 -251 722 b 878 1153 583 1179 754 1207 b 996 801 1014 1094 1031 954 b 749 63 946 582 728 265 b 1058 163 764 -82 906 -58 b 1292 596 1151 297 1235 493 b 1369 669 1322 650 1353 669 m 1382 999 b 1338 953 1382 972 1364 953 b 1290 999 1311 953 1290 971 b 1335 1044 1290 1025 1308 1044 b 1382 999 1361 1044 1382 1026 m 1203 999 b 1158 953 1203 972 1185 953 b 1111 999 1132 953 1111 971 b 1156 1044 1111 1025 1129 1044 b 1203 999 1182 1044 1203 1026 "},"á":{"ha":486,"x_min":0,"x_max":0,"o":"m 585 256 b 375 -3 543 171 458 4 b 306 176 329 -6 264 31 b 206 46 283 140 246 85 b 150 388 46 -107 -60 136 b 472 451 233 486 393 538 b 457 411 492 431 481 407 b 339 446 442 463 390 474 b 154 247 276 411 204 329 b 97 107 143 228 106 160 b 225 99 83 10 160 21 b 349 293 274 157 313 225 b 443 382 379 351 399 385 b 501 376 461 381 482 372 b 372 117 472 347 390 201 b 386 33 361 60 368 33 b 565 267 444 31 536 207 b 585 256 578 292 599 283 m 571 671 b 311 547 560 647 321 543 b 307 565 304 551 303 560 b 478 692 313 576 456 674 b 558 708 500 708 531 722 b 571 671 572 701 578 685 "},"à":{"ha":486,"x_min":0,"x_max":0,"o":"m 585 256 b 375 -3 543 171 458 4 b 306 176 329 -6 264 31 b 206 46 283 140 246 85 b 150 388 46 -107 -60 136 b 472 451 233 486 393 538 b 457 411 492 431 481 407 b 339 446 442 463 390 474 b 154 247 276 411 204 329 b 97 107 143 228 106 160 b 225 99 83 10 160 21 b 349 293 274 157 313 225 b 443 382 379 351 399 385 b 501 376 461 381 482 372 b 372 117 472 347 390 201 b 386 33 361 60 368 33 b 565 267 444 31 536 207 b 585 256 578 292 599 283 m 449 564 b 435 551 449 556 442 551 b 244 647 422 551 271 635 b 193 710 219 660 193 679 b 219 739 193 726 204 739 b 449 564 246 739 449 574 "},"â":{"ha":486,"x_min":0,"x_max":0,"o":"m 585 256 b 375 -3 543 171 458 4 b 306 176 329 -6 264 31 b 206 46 283 140 246 85 b 150 388 46 -107 -60 136 b 472 451 233 486 393 538 b 457 411 492 431 481 407 b 339 446 442 463 390 474 b 154 247 276 411 204 329 b 97 107 143 228 106 160 b 225 99 83 10 160 21 b 349 293 274 157 313 225 b 443 382 379 351 399 385 b 501 376 461 381 482 372 b 372 117 472 347 390 201 b 386 33 361 60 368 33 b 565 267 444 31 536 207 b 585 256 578 292 599 283 m 569 569 b 542 569 575 557 547 560 l 478 668 b 294 569 478 668 313 579 b 260 569 281 557 249 561 l 467 717 b 519 717 467 717 518 724 l 569 569 "},"ä":{"ha":486,"x_min":0,"x_max":0,"o":"m 585 256 b 375 -3 543 171 458 4 b 306 176 329 -6 264 31 b 206 46 283 140 246 85 b 150 388 46 -107 -60 136 b 472 451 233 486 393 538 b 457 411 492 431 481 407 b 339 446 442 463 390 474 b 154 247 276 411 204 329 b 97 107 143 228 106 160 b 225 99 83 10 160 21 b 349 293 274 157 313 225 b 443 382 379 351 399 385 b 501 376 461 381 482 372 b 372 117 472 347 390 201 b 386 33 361 60 368 33 b 565 267 444 31 536 207 b 585 256 578 292 599 283 m 569 638 b 525 592 569 611 551 592 b 478 638 499 592 478 610 b 522 683 478 664 496 683 b 569 638 549 683 569 665 m 390 638 b 346 592 390 611 372 592 b 299 638 319 592 299 610 b 343 683 299 664 317 683 b 390 638 369 683 390 665 "},"ã":{"ha":486,"x_min":0,"x_max":0,"o":"m 585 256 b 375 -3 543 171 458 4 b 306 176 329 -6 264 31 b 206 46 283 140 246 85 b 150 388 46 -107 -60 136 b 472 451 233 486 393 538 b 457 411 492 431 481 407 b 339 446 442 463 390 474 b 154 247 276 411 204 329 b 97 107 143 228 106 160 b 225 99 83 10 160 21 b 349 293 274 157 313 225 b 443 382 379 351 399 385 b 501 376 461 381 482 372 b 372 117 472 347 390 201 b 386 33 361 60 368 33 b 565 267 444 31 536 207 b 585 256 578 292 599 283 m 621 724 b 483 613 596 672 549 607 b 315 667 425 618 372 663 b 243 621 282 669 257 647 b 211 624 240 613 208 617 b 347 728 238 671 283 733 b 515 678 407 724 460 682 b 592 726 553 674 576 694 b 621 724 594 733 624 729 "},"å":{"ha":486,"x_min":0,"x_max":0,"o":"m 585 256 b 375 -3 543 171 458 4 b 306 176 329 -6 264 31 b 206 46 283 140 246 85 b 150 388 46 -107 -60 136 b 472 451 233 486 393 538 b 457 411 492 431 481 407 b 339 446 442 463 390 474 b 154 247 276 411 204 329 b 97 107 143 228 106 160 b 225 99 83 10 160 21 b 349 293 274 157 313 225 b 443 382 379 351 399 385 b 501 376 461 381 482 372 b 372 117 472 347 390 201 b 386 33 361 60 368 33 b 565 267 444 31 536 207 b 585 256 578 292 599 283 m 389 682 b 428 631 388 653 404 631 b 475 685 453 631 472 656 b 436 735 478 714 460 736 b 389 682 413 733 392 711 m 340 679 b 442 757 344 721 392 754 b 525 685 493 758 529 725 b 424 607 519 643 475 608 b 340 679 372 606 335 639 "},"ç":{"ha":361,"x_min":0,"x_max":0,"o":"m 376 -160 b 304 -265 376 -204 339 -242 b 199 -289 275 -285 232 -289 b 24 -225 164 -289 24 -274 b 32 -215 24 -219 26 -215 b 53 -231 40 -215 47 -225 b 172 -265 78 -257 138 -265 b 306 -215 215 -265 281 -254 b 325 -158 317 -199 325 -178 b 221 -79 325 -104 268 -79 b 121 -112 168 -79 135 -112 b 94 -92 108 -112 94 -104 b 100 -79 94 -86 96 -83 b 194 -6 107 -71 168 -24 l 193 -6 b 146 379 -26 -6 46 244 b 332 489 197 449 265 489 b 428 393 401 489 435 450 b 335 319 422 347 365 289 b 378 390 350 338 371 365 b 350 458 390 439 376 458 b 201 339 300 458 240 394 b 125 126 176 303 125 207 b 207 19 125 71 147 19 b 450 264 328 19 394 154 b 469 254 463 289 482 282 b 215 -4 404 117 351 6 l 218 -10 b 157 -58 210 -17 156 -50 b 211 -54 175 -56 193 -54 b 376 -160 274 -54 376 -81 "},"é":{"ha":342,"x_min":0,"x_max":0,"o":"m 442 260 b 176 -6 390 149 331 -6 b 43 128 107 -6 44 40 b 150 388 42 211 89 315 b 388 478 221 471 326 524 b 311 275 440 438 400 343 b 140 214 268 243 178 214 b 188 24 119 164 96 24 b 417 261 310 24 385 188 b 442 260 428 286 456 289 m 297 299 b 233 368 411 394 404 575 b 150 238 197 324 163 263 b 297 299 175 238 247 257 m 547 671 b 288 547 536 647 297 543 b 283 565 281 551 279 560 b 454 692 289 576 432 674 b 535 708 476 708 507 722 b 547 671 549 701 554 685 "},"è":{"ha":342,"x_min":0,"x_max":0,"o":"m 442 260 b 176 -6 390 149 331 -6 b 43 128 107 -6 44 40 b 150 388 42 211 89 315 b 388 478 221 471 326 524 b 311 275 440 438 400 343 b 140 214 268 243 178 214 b 188 24 119 164 96 24 b 417 261 310 24 385 188 b 442 260 428 286 456 289 m 297 299 b 233 368 411 394 404 575 b 150 238 197 324 163 263 b 297 299 175 238 247 257 m 399 551 b 385 539 399 543 392 539 b 194 635 372 539 221 622 b 143 697 169 647 143 667 b 169 726 143 714 154 726 b 399 551 196 726 399 561 "},"ê":{"ha":342,"x_min":0,"x_max":0,"o":"m 442 260 b 176 -6 390 149 331 -6 b 43 128 107 -6 44 40 b 150 388 42 211 89 315 b 388 478 221 471 326 524 b 311 275 440 438 400 343 b 140 214 268 243 178 214 b 188 24 119 164 96 24 b 417 261 310 24 385 188 b 442 260 428 286 456 289 m 297 299 b 233 368 411 394 404 575 b 150 238 197 324 163 263 b 297 299 175 238 247 257 m 508 569 b 481 569 514 557 486 560 l 417 668 b 233 569 417 668 251 579 b 199 569 219 557 188 561 l 406 717 b 458 717 406 717 457 724 l 508 569 "},"ë":{"ha":342,"x_min":0,"x_max":0,"o":"m 442 260 b 176 -6 390 149 331 -6 b 43 128 107 -6 44 40 b 150 388 42 211 89 315 b 388 478 221 471 326 524 b 311 275 440 438 400 343 b 140 214 268 243 178 214 b 188 24 119 164 96 24 b 417 261 310 24 385 188 b 442 260 428 286 456 289 m 297 299 b 233 368 411 394 404 575 b 150 238 197 324 163 263 b 297 299 175 238 247 257 m 494 611 b 450 565 494 585 476 565 b 403 611 424 565 403 583 b 447 657 403 638 421 657 b 494 611 474 657 494 639 m 315 611 b 271 565 315 585 297 565 b 224 611 244 565 224 583 b 268 657 224 638 242 657 b 315 611 294 657 315 639 "},"í":{"ha":233,"x_min":0,"x_max":0,"o":"m 328 254 b 110 0 292 176 214 0 b 35 181 7 0 -1 113 l 156 411 b 231 478 190 478 186 478 l 301 478 b 250 428 290 467 265 457 b 106 158 250 428 143 254 b 89 118 106 158 92 128 b 118 31 75 72 78 33 b 179 57 139 28 165 43 b 310 267 226 103 272 189 b 328 254 322 292 342 282 m 525 700 b 265 576 514 676 275 572 b 261 594 258 581 257 589 b 432 721 267 606 410 703 b 513 738 454 738 485 751 b 525 700 526 731 532 714 "},"ì":{"ha":233,"x_min":0,"x_max":0,"o":"m 328 254 b 110 0 292 176 214 0 b 35 181 7 0 -1 113 l 156 411 b 231 478 190 478 186 478 l 301 478 b 250 428 290 467 265 457 b 106 158 250 428 143 254 b 89 118 106 158 92 128 b 118 31 75 72 78 33 b 179 57 139 28 165 43 b 310 267 226 103 272 189 b 328 254 322 292 342 282 m 331 567 b 317 554 331 558 324 554 b 126 650 304 554 153 638 b 75 713 101 663 75 682 b 101 742 75 729 86 742 b 331 567 128 742 331 576 "},"î":{"ha":233,"x_min":0,"x_max":0,"o":"m 328 254 b 110 0 292 176 214 0 b 35 181 7 0 -1 113 l 156 411 b 231 478 190 478 186 478 l 301 478 b 250 428 290 467 265 457 b 106 158 250 428 143 254 b 89 118 106 158 92 128 b 118 31 75 72 78 33 b 179 57 139 28 165 43 b 310 267 226 103 272 189 b 328 254 322 292 342 282 m 439 564 b 411 564 444 551 417 554 l 347 663 b 164 564 347 663 182 574 b 129 564 150 551 118 556 l 336 711 b 389 711 336 711 388 718 l 439 564 "},"ï":{"ha":233,"x_min":0,"x_max":0,"o":"m 328 254 b 110 0 292 176 214 0 b 35 181 7 0 -1 113 l 156 411 b 231 478 190 478 186 478 l 301 478 b 250 428 290 467 265 457 b 106 158 250 428 143 254 b 89 118 106 158 92 128 b 118 31 75 72 78 33 b 179 57 139 28 165 43 b 310 267 226 103 272 189 b 328 254 322 292 342 282 m 419 596 b 375 550 419 569 401 550 b 328 596 349 550 328 568 b 372 642 328 622 346 642 b 419 596 399 642 419 624 m 240 596 b 196 550 240 569 222 550 b 149 596 169 550 149 568 b 193 642 149 622 167 642 b 240 596 219 642 240 624 "},"ñ":{"ha":465,"x_min":0,"x_max":0,"o":"m 564 256 b 335 -6 522 171 442 -6 b 261 157 286 -6 219 28 b 338 303 272 193 299 240 b 239 294 371 357 346 394 b 46 19 192 251 124 174 b -7 -1 35 0 22 -1 b -54 -10 -28 -3 -40 -1 b 138 379 13 122 69 254 b 236 467 174 446 192 469 b 294 461 254 465 275 457 b 126 200 253 439 176 300 b 242 325 154 235 199 288 b 499 456 308 385 451 472 b 332 97 499 456 350 194 b 354 28 321 40 336 28 b 544 268 426 28 515 210 b 564 256 556 293 578 283 m 607 679 b 469 568 582 628 535 563 b 301 622 411 574 358 618 b 229 576 268 625 243 603 b 197 579 226 568 194 572 b 333 683 224 626 269 689 b 501 633 393 679 446 638 b 578 682 539 629 563 650 b 607 679 581 689 610 685 "},"ó":{"ha":465,"x_min":0,"x_max":0,"o":"m 567 261 b 349 11 543 208 465 11 b 260 47 307 11 278 26 b 139 0 221 18 179 -1 b 71 253 33 3 18 129 b 335 486 125 381 240 489 b 403 233 440 485 456 357 b 286 69 382 185 339 119 b 351 35 297 49 318 35 b 546 274 440 35 513 207 b 567 261 553 288 576 282 m 364 440 b 167 258 304 457 218 368 b 150 32 113 144 100 47 b 244 67 176 25 211 39 b 222 135 229 89 222 114 b 271 194 224 167 236 194 b 313 153 294 194 313 175 b 310 138 313 147 311 143 b 353 213 325 160 340 186 b 364 440 407 326 414 425 m 614 704 b 354 581 603 681 364 576 b 350 599 347 585 346 593 b 521 725 356 610 499 707 b 601 742 543 742 574 756 b 614 704 615 735 621 718 "},"ò":{"ha":465,"x_min":0,"x_max":0,"o":"m 567 261 b 349 11 543 208 465 11 b 260 47 307 11 278 26 b 139 0 221 18 179 -1 b 71 253 33 3 18 129 b 335 486 125 381 240 489 b 403 233 440 485 456 357 b 286 69 382 185 339 119 b 351 35 297 49 318 35 b 546 274 440 35 513 207 b 567 261 553 288 576 282 m 364 440 b 167 258 304 457 218 368 b 150 32 113 144 100 47 b 244 67 176 25 211 39 b 222 135 229 89 222 114 b 271 194 224 167 236 194 b 313 153 294 194 313 175 b 310 138 313 147 311 143 b 353 213 325 160 340 186 b 364 440 407 326 414 425 m 429 567 b 415 554 429 558 422 554 b 225 650 403 554 251 638 b 174 713 200 663 174 682 b 200 742 174 729 185 742 b 429 567 226 742 429 576 "},"ô":{"ha":465,"x_min":0,"x_max":0,"o":"m 567 261 b 349 11 543 208 465 11 b 260 47 307 11 278 26 b 139 0 221 18 179 -1 b 71 253 33 3 18 129 b 335 486 125 381 240 489 b 403 233 440 485 456 357 b 286 69 382 185 339 119 b 351 35 297 49 318 35 b 546 274 440 35 513 207 b 567 261 553 288 576 282 m 364 440 b 167 258 304 457 218 368 b 150 32 113 144 100 47 b 244 67 176 25 211 39 b 222 135 229 89 222 114 b 271 194 224 167 236 194 b 313 153 294 194 313 175 b 310 138 313 147 311 143 b 353 213 325 160 340 186 b 364 440 407 326 414 425 m 532 569 b 504 569 538 557 510 560 l 440 668 b 257 569 440 668 275 579 b 222 569 243 557 211 561 l 429 717 b 482 717 429 717 481 724 l 532 569 "},"ö":{"ha":465,"x_min":0,"x_max":0,"o":"m 567 261 b 349 11 543 208 465 11 b 260 47 307 11 278 26 b 139 0 221 18 179 -1 b 71 253 33 3 18 129 b 335 486 125 381 240 489 b 403 233 440 485 456 357 b 286 69 382 185 339 119 b 351 35 297 49 318 35 b 546 274 440 35 513 207 b 567 261 553 288 576 282 m 364 440 b 167 258 304 457 218 368 b 150 32 113 144 100 47 b 244 67 176 25 211 39 b 222 135 229 89 222 114 b 271 194 224 167 236 194 b 313 153 294 194 313 175 b 310 138 313 147 311 143 b 353 213 325 160 340 186 b 364 440 407 326 414 425 m 542 635 b 497 589 542 608 524 589 b 450 635 471 589 450 607 b 494 681 450 661 468 681 b 542 635 521 681 542 663 m 363 635 b 318 589 363 608 344 589 b 271 635 292 589 271 607 b 315 681 271 661 289 681 b 363 635 342 681 363 663 "},"õ":{"ha":465,"x_min":0,"x_max":0,"o":"m 567 261 b 349 11 543 208 465 11 b 260 47 307 11 278 26 b 139 0 221 18 179 -1 b 71 253 33 3 18 129 b 335 486 125 381 240 489 b 403 233 440 485 456 357 b 286 69 382 185 339 119 b 351 35 297 49 318 35 b 546 274 440 35 513 207 b 567 261 553 288 576 282 m 364 440 b 167 258 304 457 218 368 b 150 32 113 144 100 47 b 244 67 176 25 211 39 b 222 135 229 89 222 114 b 271 194 224 167 236 194 b 313 153 294 194 313 175 b 310 138 313 147 311 143 b 353 213 325 160 340 186 b 364 440 407 326 414 425 m 601 710 b 464 599 576 658 529 593 b 296 653 406 604 353 649 b 224 607 263 656 238 633 b 192 610 221 599 189 603 b 328 714 218 657 264 719 b 496 664 388 710 440 668 b 572 713 533 660 557 681 b 601 710 575 719 604 715 "},"ú":{"ha":496,"x_min":0,"x_max":0,"o":"m 594 256 b 374 1 550 161 475 1 b 310 179 311 1 274 67 b 122 1 263 96 190 1 b 35 64 94 1 46 11 b 82 225 22 124 57 175 b 69 247 74 225 61 229 l 94 296 b 172 449 122 349 151 406 b 226 478 183 471 200 478 l 311 478 b 222 361 279 454 260 438 b 135 182 222 361 160 235 b 217 86 68 38 126 -18 b 424 449 294 176 371 339 b 478 478 435 471 451 478 l 553 478 b 457 340 513 446 499 426 b 364 119 418 263 372 167 b 390 36 351 60 371 38 b 575 268 458 36 528 168 b 594 256 586 293 608 283 m 603 688 b 343 564 592 664 353 560 b 339 582 336 568 335 576 b 510 708 344 593 488 690 b 590 725 532 725 563 739 b 603 688 604 718 610 701 "},"ù":{"ha":496,"x_min":0,"x_max":0,"o":"m 594 256 b 374 1 550 161 475 1 b 310 179 311 1 274 67 b 122 1 263 96 190 1 b 35 64 94 1 46 11 b 82 225 22 124 57 175 b 69 247 74 225 61 229 l 94 296 b 172 449 122 349 151 406 b 226 478 183 471 200 478 l 311 478 b 222 361 279 454 260 438 b 135 182 222 361 160 235 b 217 86 68 38 126 -18 b 424 449 294 176 371 339 b 478 478 435 471 451 478 l 553 478 b 457 340 513 446 499 426 b 364 119 418 263 372 167 b 390 36 351 60 371 38 b 575 268 458 36 528 168 b 594 256 586 293 608 283 m 453 571 b 439 558 453 563 446 558 b 249 654 426 558 275 642 b 197 717 224 667 197 686 b 224 746 197 733 208 746 b 453 571 250 746 453 581 "},"û":{"ha":496,"x_min":0,"x_max":0,"o":"m 594 256 b 374 1 550 161 475 1 b 310 179 311 1 274 67 b 122 1 263 96 190 1 b 35 64 94 1 46 11 b 82 225 22 124 57 175 b 69 247 74 225 61 229 l 94 296 b 172 449 122 349 151 406 b 226 478 183 471 200 478 l 311 478 b 222 361 279 454 260 438 b 135 182 222 361 160 235 b 217 86 68 38 126 -18 b 424 449 294 176 371 339 b 478 478 435 471 451 478 l 553 478 b 457 340 513 446 499 426 b 364 119 418 263 372 167 b 390 36 351 60 371 38 b 575 268 458 36 528 168 b 594 256 586 293 608 283 m 565 585 b 538 585 571 572 543 575 l 474 683 b 290 585 474 683 308 594 b 256 585 276 572 244 576 l 463 732 b 515 732 463 732 514 739 l 565 585 "},"ü":{"ha":496,"x_min":0,"x_max":0,"o":"m 594 256 b 374 1 550 161 475 1 b 310 179 311 1 274 67 b 122 1 263 96 190 1 b 35 64 94 1 46 11 b 82 225 22 124 57 175 b 69 247 74 225 61 229 l 94 296 b 172 449 122 349 151 406 b 226 478 183 471 200 478 l 311 478 b 222 361 279 454 260 438 b 135 182 222 361 160 235 b 217 86 68 38 126 -18 b 424 449 294 176 371 339 b 478 478 435 471 451 478 l 553 478 b 457 340 513 446 499 426 b 364 119 418 263 372 167 b 390 36 351 60 371 38 b 575 268 458 36 528 168 b 594 256 586 293 608 283 m 374 663 b 329 617 374 636 356 617 b 282 663 303 617 282 635 b 326 708 282 689 300 708 b 374 663 353 708 374 690 m 553 663 b 508 617 553 636 535 617 b 461 663 482 617 461 635 b 506 708 461 689 479 708 b 553 663 532 708 553 690 "},"†":{"ha":613,"x_min":0,"x_max":0,"o":"m 599 504 b 572 492 599 497 590 494 l 454 469 b 404 458 439 465 424 464 b 76 -81 263 267 121 42 b 58 -156 74 -93 67 -112 b 46 -164 56 -160 51 -164 b 28 -153 36 -164 28 -161 l 28 -150 b 46 -79 28 -140 36 -118 b 308 442 94 78 168 243 b 161 417 265 435 217 425 l 157 417 b 142 414 150 415 144 414 b 131 419 135 414 132 417 b 126 425 128 421 126 424 b 156 451 126 433 139 442 b 271 476 164 458 203 468 l 340 486 b 529 718 393 561 456 635 b 611 715 539 731 590 740 b 608 703 615 711 611 706 b 433 496 571 658 482 558 b 469 500 444 497 457 497 b 564 508 492 503 521 508 l 572 508 b 599 504 588 508 597 507 "},"°":{"ha":449,"x_min":0,"x_max":0,"o":"m 315 956 b 226 867 315 906 275 867 b 138 956 171 867 138 908 b 226 1044 138 1004 178 1044 b 315 956 275 1044 315 1004 m 289 954 b 225 1018 289 990 261 1018 b 161 954 190 1018 161 990 b 225 888 161 897 210 888 b 289 954 258 888 289 921 "},"¢":{"ha":439,"x_min":0,"x_max":0,"o":"m 467 1140 b 371 906 456 1111 417 1019 b 443 801 415 892 444 849 b 368 715 442 756 413 715 b 303 782 331 715 301 746 b 368 844 304 819 331 846 b 415 819 386 844 411 831 b 385 878 421 851 400 874 b 207 761 336 889 260 831 b 126 533 158 694 124 615 b 203 442 129 465 163 442 b 357 544 260 442 314 492 b 374 526 372 564 382 538 b 196 418 329 464 274 421 b 114 31 181 374 22 51 b 101 6 140 25 124 -1 b 158 418 -32 49 135 344 b 143 810 -28 435 56 706 b 328 913 186 860 261 914 l 336 913 b 432 1147 369 996 403 1078 b 467 1140 453 1196 475 1163 "},"£":{"ha":796,"x_min":0,"x_max":0,"o":"m 1136 738 b 969 500 1136 653 1033 546 b 953 493 965 496 960 493 b 946 499 950 493 946 494 b 954 510 946 503 950 507 b 1117 739 1011 557 1117 658 b 1064 785 1117 772 1094 785 b 811 604 965 785 863 678 b 738 468 782 561 758 515 b 689 360 722 432 706 396 b 754 356 710 357 732 356 b 794 360 768 356 781 357 b 819 367 799 361 818 367 b 826 349 826 367 826 353 b 822 338 826 346 826 339 b 754 326 804 331 774 326 b 674 332 728 326 701 329 b 388 15 603 197 522 93 b 664 -104 446 -26 596 -89 b 732 -112 686 -110 710 -112 b 901 4 803 -112 901 -83 b 907 11 901 7 903 11 b 913 1 913 11 913 6 l 913 -1 b 724 -125 903 -99 806 -125 b 592 -108 679 -125 635 -118 b 314 -10 536 -96 361 -36 b 199 -37 278 -26 239 -37 b 33 63 143 -37 33 -8 b 140 144 33 118 93 144 b 356 40 225 144 292 89 b 568 346 444 115 510 244 b 521 349 553 347 536 349 b 446 342 496 349 471 347 l 421 333 b 411 329 417 332 415 329 b 404 347 406 329 404 343 b 408 358 404 351 404 356 b 521 378 442 375 483 378 b 583 374 542 378 563 376 b 1036 815 667 519 847 815 b 1136 738 1085 815 1136 792 m 293 3 b 88 111 246 32 140 111 b 44 72 64 111 44 97 b 164 -24 44 17 117 -19 b 189 -25 172 -25 181 -25 b 293 3 226 -25 261 -15 "},"•":{"ha":1064,"x_min":0,"x_max":0,"o":"m 536 21 b 76 481 282 21 76 226 b 536 940 76 735 282 940 b 997 481 790 940 997 735 b 536 21 997 226 790 21 "},"¶":{"ha":560,"x_min":0,"x_max":0,"o":"m 814 839 l 786 839 l 479 0 l 386 0 l 693 839 l 625 839 l 318 0 l 225 0 l 410 504 b 274 701 285 504 226 571 b 458 889 303 782 369 854 b 600 908 506 907 554 908 l 839 908 "},"ß":{"ha":607,"x_min":0,"x_max":0,"o":"m 411 400 b 557 632 388 513 485 546 b 544 922 633 721 656 883 b 328 774 436 961 353 844 b -79 -237 185 378 75 -58 b -408 -451 -171 -344 -297 -443 b -557 -361 -487 -457 -551 -432 b -464 -256 -560 -306 -518 -256 b -403 -324 -426 -256 -399 -286 b -478 -392 -407 -361 -440 -392 b -519 -375 -494 -392 -508 -385 b -408 -411 -506 -410 -447 -421 b 8 96 -243 -368 -117 -218 b 283 792 138 422 81 297 b 575 950 349 919 421 1001 b 682 788 665 918 683 858 b 586 608 681 722 649 661 b 454 401 536 568 392 503 b 546 181 490 344 549 242 b 447 26 543 126 501 63 l 457 25 b 582 89 504 18 547 47 b 686 271 614 128 657 214 b 707 263 693 285 714 276 b 415 8 656 147 572 -39 b 358 -6 396 0 376 -6 b 289 190 190 -6 222 188 b 342 143 317 194 343 182 b 400 36 339 90 368 51 b 461 181 431 60 457 107 b 411 400 464 240 424 335 m 376 24 b 321 128 347 42 324 75 b 349 18 276 83 294 18 b 376 24 358 18 368 19 "},"®":{"ha":996,"x_min":0,"x_max":0,"o":"m 36 367 b 546 782 61 589 290 775 b 964 392 803 788 990 613 b 454 -22 939 169 710 -17 b 36 367 199 -29 11 144 m 97 367 b 456 -3 74 157 232 -10 b 901 389 678 3 876 179 b 543 761 925 600 765 767 b 97 367 319 754 121 578 m 793 306 b 733 203 785 289 758 229 b 596 206 697 164 633 167 b 531 399 543 261 536 361 b 428 239 503 343 476 290 b 243 176 378 183 311 168 b 296 282 121 192 161 328 b 292 275 306 278 301 271 b 258 193 200 310 178 197 b 486 401 360 188 425 293 b 624 622 533 483 576 569 b 408 608 558 628 486 625 b 243 483 310 589 254 532 b 368 431 228 406 318 378 b 390 468 383 446 390 461 b 397 467 392 482 399 474 b 375 421 394 449 388 432 b 214 483 317 360 206 385 b 415 633 219 544 288 615 b 636 636 496 644 569 646 b 657 633 661 663 663 651 b 714 622 678 629 697 626 b 639 422 872 576 822 451 b 564 415 617 418 576 415 b 628 243 567 399 585 308 b 728 219 657 199 686 178 b 782 306 756 247 776 293 b 793 306 788 315 799 318 m 711 606 b 661 615 697 610 679 613 b 561 433 628 554 592 499 l 628 440 b 711 606 735 454 814 572 "},"©":{"ha":996,"x_min":0,"x_max":0,"o":"m 97 367 b 456 -3 74 157 232 -10 b 901 389 678 3 876 179 b 543 761 925 600 765 767 b 97 367 319 754 121 578 m 36 367 b 546 782 61 589 290 775 b 964 392 803 788 990 613 b 454 -22 939 169 710 -17 b 36 367 199 -29 11 144 m 592 293 b 613 282 608 318 625 303 b 432 172 572 217 519 172 b 392 504 243 172 304 388 b 551 600 436 564 494 600 b 635 517 613 600 640 565 b 554 453 629 476 581 426 b 592 514 568 468 586 493 b 568 574 603 556 590 574 b 439 469 524 574 472 518 b 374 286 418 439 374 356 b 444 193 374 238 393 193 b 592 293 508 193 556 239 "},"™":{"ha":1022,"x_min":0,"x_max":0,"o":"m 901 547 b 853 525 889 529 871 525 b 833 540 843 525 832 529 b 874 700 833 556 867 675 b 700 574 836 658 753 574 b 599 706 646 574 615 657 b 492 513 576 657 550 513 b 471 525 485 513 471 515 b 578 753 472 549 568 711 b 622 846 586 782 581 846 b 714 608 664 846 639 608 b 924 838 767 608 889 821 b 942 803 939 838 942 815 b 924 728 940 775 928 753 b 901 547 915 667 911 607 m 192 506 b 164 525 179 506 164 508 b 289 801 167 568 288 763 b 263 804 281 803 272 804 b 179 799 236 804 207 799 b 143 819 164 799 149 803 b 490 857 161 844 444 857 b 522 842 499 857 522 857 b 342 796 522 814 357 815 b 222 518 300 736 254 558 b 192 506 214 508 203 506 "},"´":{"ha":371,"x_min":0,"x_max":0,"o":"m 343 697 b 83 574 332 674 93 569 b 79 592 76 578 75 586 b 250 718 85 603 228 700 b 331 735 272 735 303 749 b 343 697 344 728 350 711 "},"¨":{"ha":386,"x_min":0,"x_max":0,"o":"m 324 644 b 279 599 324 618 306 599 b 232 644 253 599 232 617 b 276 690 232 671 250 690 b 324 644 303 690 324 672 m 144 644 b 100 599 144 618 126 599 b 53 644 74 599 53 617 b 97 690 53 671 71 690 b 144 644 124 690 144 672 "},"≠":{"ha":636,"x_min":0,"x_max":0,"o":"m 544 293 b 326 281 463 293 390 288 b 269 206 307 256 288 231 b 232 206 253 183 215 183 l 286 276 l 228 269 b 228 336 208 267 188 336 b 333 335 256 336 289 336 l 408 426 b 228 408 340 422 279 414 b 228 475 208 406 188 475 b 443 472 274 475 339 474 l 485 528 b 521 532 501 550 538 554 b 476 471 506 511 492 490 l 539 469 b 544 432 571 469 582 432 b 444 429 510 432 475 431 l 368 335 l 539 331 b 544 293 571 329 582 293 "},"Æ":{"ha":1907,"x_min":0,"x_max":0,"o":"m 1801 304 b 1774 36 1917 250 1896 139 b 1146 -158 1636 -79 1392 -158 b 688 258 761 -158 617 63 b 125 -49 571 121 318 -132 b 131 506 -8 8 -8 254 b 253 682 165 568 206 628 b 114 778 197 708 149 739 b 101 935 75 822 71 913 b 126 908 118 957 142 942 b 156 799 108 867 124 835 b 278 711 186 764 228 735 b 956 1074 453 906 685 1074 b 1153 1004 1044 1074 1113 1047 b 1618 1114 1294 1088 1485 1129 b 1618 744 1967 1075 1913 811 b 1613 771 1535 725 1546 764 b 1615 1078 1747 785 1889 1051 b 1183 954 1468 1093 1296 1042 b 1194 897 1190 936 1194 918 b 1071 713 1194 840 1160 769 b 1401 506 1111 549 1414 601 b 1015 460 1388 447 1199 513 b 1149 -125 713 374 639 -125 b 1724 76 1376 -125 1604 -22 b 1788 286 1825 163 1871 267 b 1801 304 1717 303 1751 329 m 1151 547 b 978 667 1089 568 1014 611 b 763 621 921 646 849 629 b 343 653 606 607 474 611 b 142 303 293 582 192 426 b 476 99 0 -51 221 -114 b 840 536 619 219 767 400 b 919 497 926 697 1000 585 l 913 486 b 1004 521 940 500 971 511 b 1151 547 1053 536 1104 544 m 1115 981 b 960 1038 1086 1018 1029 1038 b 365 681 700 1038 521 867 b 763 654 474 646 586 639 b 963 699 839 660 907 676 b 957 733 960 710 957 721 b 1115 981 958 832 1022 917 m 1138 913 b 1068 769 1099 869 1071 822 l 1067 764 b 1138 913 1113 806 1138 856 "},"∞":{"ha":963,"x_min":0,"x_max":0,"o":"m 918 539 b 728 350 918 449 842 350 b 476 496 628 350 526 428 b 258 361 422 439 353 361 b 90 522 156 361 90 436 b 281 694 90 621 163 694 b 522 565 382 694 472 639 b 729 700 574 622 638 700 b 918 539 836 700 918 631 m 897 528 b 714 657 897 608 801 657 b 549 581 649 657 589 624 b 531 554 542 572 538 563 b 663 421 571 497 589 451 b 751 403 689 410 721 403 b 897 528 832 403 897 457 m 467 510 b 249 643 422 575 343 643 b 115 515 165 643 115 586 b 261 413 115 447 190 413 b 467 510 343 413 413 461 "},"±":{"ha":636,"x_min":0,"x_max":0,"o":"m 649 399 b 644 361 681 397 682 361 b 460 353 592 361 521 356 b 428 163 449 285 432 203 b 361 163 425 143 351 122 b 410 350 368 194 390 275 b 213 338 343 344 253 342 b 229 404 193 335 188 404 b 422 400 260 404 350 401 b 471 601 436 451 456 546 b 510 607 479 633 518 644 b 468 399 497 556 479 457 b 649 399 522 399 590 400 m 574 49 b 207 31 446 49 290 40 b 207 97 188 28 167 97 b 568 86 265 97 407 90 b 574 49 600 86 611 49 "},"≤":{"ha":349,"x_min":0,"x_max":0,"o":"m 294 126 b 286 117 294 121 292 117 b 72 246 269 117 96 228 b 64 278 64 253 64 267 b 72 311 64 289 64 303 b 279 501 92 332 276 501 b 283 486 283 501 283 489 b 276 457 283 476 282 465 b 221 393 260 435 240 414 l 132 294 l 276 154 b 294 126 285 146 294 142 m 288 28 l 24 28 l 21 29 l 21 58 l 24 60 l 288 60 l 290 58 l 290 29 "},"≥":{"ha":349,"x_min":0,"x_max":0,"o":"m 304 278 b 294 246 304 267 304 253 b 82 117 274 228 97 117 b 72 126 75 117 72 121 b 92 154 72 142 83 146 l 235 294 l 146 393 b 92 457 128 414 108 435 b 83 486 85 465 83 476 b 89 501 83 490 83 500 l 92 500 l 225 376 b 294 311 249 356 274 335 b 304 278 303 303 304 289 m 288 28 l 24 28 l 21 29 l 21 58 l 24 60 l 288 60 l 290 58 l 290 29 "},"¥":{"ha":1003,"x_min":0,"x_max":0,"o":"m 1011 761 b 1000 735 1011 754 1011 735 b 990 744 994 735 990 739 b 993 761 990 750 993 756 b 919 836 993 800 958 836 b 603 457 811 836 651 542 l 747 457 b 750 453 749 457 750 456 b 725 426 750 444 735 426 l 586 426 l 513 296 l 653 296 b 657 292 656 296 657 294 b 632 265 657 283 640 265 l 493 265 b 96 -61 407 136 269 -61 b 69 -51 88 -61 69 -64 b 89 -43 69 -40 82 -43 b 422 265 219 -43 358 169 l 107 265 b 103 269 104 265 103 267 b 128 296 103 278 119 296 l 443 296 l 450 307 b 440 426 450 347 446 386 l 244 426 b 240 429 243 426 240 428 b 265 457 240 439 257 457 l 436 457 b 233 765 419 550 357 765 b 117 611 163 765 117 674 b 153 504 117 557 153 507 b 143 494 153 499 149 494 b 136 499 140 494 138 497 b 100 611 113 531 100 572 b 233 783 100 685 150 783 b 469 547 354 783 436 647 b 500 385 488 494 497 439 l 528 428 b 542 451 526 439 536 444 b 600 546 563 478 582 517 b 919 854 658 635 801 854 b 1011 761 969 854 1011 811 "},"µ":{"ha":450,"x_min":0,"x_max":0,"o":"m 574 224 b 372 -11 542 153 463 -11 b 300 69 325 -11 300 24 b 314 143 300 94 306 119 b 138 -8 281 89 208 -8 b 72 31 111 -8 85 7 l -107 -361 b -125 -365 -110 -365 -121 -365 b -174 -357 -139 -365 -161 -362 b -179 -350 -175 -356 -181 -353 l 89 176 b 233 447 135 268 176 363 l 236 447 b 258 440 242 443 250 440 b 325 469 279 440 308 456 l 328 467 b 260 360 300 436 279 396 b 196 250 239 322 218 286 b 114 44 168 200 114 101 b 149 7 114 22 124 7 b 364 250 228 7 331 190 b 471 456 401 317 439 385 l 474 456 b 508 446 483 450 496 446 b 551 474 526 446 544 457 l 556 472 l 447 263 b 351 31 419 211 351 86 b 375 3 351 15 357 3 b 563 226 451 3 539 171 l 571 226 l 574 224 "},"∂":{"ha":511,"x_min":0,"x_max":0,"o":"m 503 522 b 476 331 503 458 493 393 b 176 -7 442 194 342 -7 b 88 125 110 -7 88 71 b 100 215 88 156 92 186 b 363 447 129 317 251 447 b 431 367 413 447 431 413 b 415 281 431 338 425 308 b 453 478 442 343 453 411 b 235 831 453 603 394 831 b 185 825 217 831 201 825 b 169 835 178 825 169 826 b 250 864 169 864 231 864 b 503 522 440 864 503 685 m 424 364 b 372 438 424 399 413 438 b 176 213 292 438 199 278 b 149 65 161 169 149 111 b 183 3 149 43 151 3 b 382 222 263 3 349 161 b 424 364 406 264 424 317 "},"π":{"ha":586,"x_min":0,"x_max":0,"o":"m 564 500 b 464 381 567 461 497 394 l 465 381 b 426 375 453 376 439 375 l 346 -4 l 321 -4 l 403 378 b 229 439 343 390 288 422 l 135 -8 l 110 -8 l 206 444 b 176 447 196 446 186 447 b 160 446 171 447 165 447 b 92 382 103 438 110 382 b 85 389 86 382 85 385 b 174 504 85 428 140 489 b 203 510 183 508 193 510 b 461 436 286 510 374 436 b 560 506 539 436 543 506 b 564 503 561 506 564 504 l 564 500 "},"∫":{"ha":694,"x_min":0,"x_max":0,"o":"m 601 836 b 456 688 517 836 485 767 l 211 -75 b -22 -282 167 -208 111 -282 b -167 -253 -74 -282 -119 -269 l -153 -231 b -57 -256 -124 -244 -89 -256 b 140 -71 18 -256 99 -207 l 350 638 b 579 867 392 772 446 867 b 714 840 625 867 671 856 l 711 810 b 601 836 675 824 639 836 "},"ª":{"ha":519,"x_min":0,"x_max":0,"o":"m 347 715 b 242 586 326 674 285 590 b 207 675 219 585 186 603 b 157 610 196 657 178 629 b 129 781 78 533 25 656 b 290 813 171 831 251 856 b 283 793 300 803 294 790 b 224 810 275 818 250 824 b 132 711 193 793 157 751 b 103 640 126 701 107 667 b 167 636 96 592 135 599 b 229 733 192 665 211 700 b 276 778 244 763 254 781 b 306 775 285 778 296 774 b 242 646 290 761 250 688 b 247 604 235 617 239 604 b 338 721 276 603 322 690 b 347 715 343 733 354 729 "},"º":{"ha":379,"x_min":0,"x_max":0,"o":"m 342 722 b 229 599 325 683 293 599 b 190 617 213 599 200 606 b 129 593 171 601 150 592 b 96 719 76 594 69 657 b 228 836 122 783 181 838 b 261 710 281 835 288 771 b 203 628 251 685 229 651 b 236 611 208 617 219 611 b 333 729 286 611 324 708 b 342 722 336 736 346 733 m 242 813 b 143 721 213 821 169 776 b 135 608 117 664 110 615 b 182 625 149 606 165 611 b 171 660 175 636 171 650 b 196 689 172 676 178 689 b 217 669 207 689 217 681 b 215 661 217 667 215 664 b 236 699 222 672 231 685 b 242 813 264 756 267 806 "},"∑":{"ha":657,"x_min":0,"x_max":0,"o":"m 356 297 l 83 610 l 611 610 l 568 550 l 242 561 l 457 314 l 144 44 l 539 51 l 592 -8 l 8 -8 "},"Ω":{"ha":618,"x_min":0,"x_max":0,"o":"m 492 -19 b 411 -10 465 -19 439 -10 b 372 -19 397 -10 385 -19 b 353 3 361 -19 351 -11 b 357 17 353 7 356 13 b 517 286 438 63 513 186 b 356 426 519 390 436 426 b 151 249 257 426 156 372 b 232 17 147 121 232 25 b 179 -8 231 -8 193 -8 b 49 7 133 -8 93 7 b 28 6 42 7 35 7 l 24 0 b -14 7 17 -25 -17 -22 b 53 46 -12 40 31 46 b 194 17 94 46 153 25 b 90 261 144 78 88 175 b 375 489 96 421 251 489 b 581 304 478 489 585 435 b 429 26 576 186 500 104 b 517 17 453 22 476 17 b 575 64 553 17 563 51 b 588 51 581 69 586 58 b 492 -19 581 7 528 -19 "},"æ":{"ha":606,"x_min":0,"x_max":0,"o":"m 707 260 b 442 -6 656 149 596 -6 b 360 21 411 -6 383 4 b 306 176 325 44 296 92 b 206 46 283 140 246 85 b 150 388 46 -107 -60 136 b 472 451 233 486 393 538 l 476 446 b 653 478 539 492 608 511 b 576 275 707 438 665 343 b 407 214 533 243 444 214 l 401 203 b 453 24 378 149 368 24 b 682 261 575 24 650 188 b 707 260 693 286 721 289 m 451 425 b 339 446 432 464 385 471 b 154 247 276 411 204 329 b 97 107 143 228 106 160 b 225 99 83 10 160 21 b 349 293 275 157 313 225 b 451 425 374 340 411 389 m 563 299 b 499 368 676 394 669 575 b 447 296 481 346 463 319 l 418 238 b 563 299 446 239 514 258 "},"¿":{"ha":550,"x_min":0,"x_max":0,"o":"m 100 -169 b 411 225 219 -33 340 38 b 438 215 418 242 442 233 b 158 -204 404 76 261 -75 b 299 -368 36 -358 164 -433 b 376 -272 340 -347 382 -306 b 328 -322 371 -294 350 -310 b 272 -221 246 -367 208 -271 b 392 -318 346 -164 432 -222 b 290 -410 374 -358 328 -387 b 100 -169 97 -519 -115 -412 m 408 410 b 475 467 414 442 443 467 b 522 410 507 467 528 442 b 456 353 518 378 488 353 b 408 410 425 353 403 378 "},"¡":{"ha":557,"x_min":0,"x_max":0,"o":"m -61 -401 b 404 299 -46 -360 353 221 l 418 297 l 417 288 l 64 -385 b -51 -412 44 -422 -15 -411 l -58 -410 l -61 -401 m 408 410 b 475 467 414 442 443 467 b 522 410 507 467 528 442 b 456 353 518 378 488 353 b 408 410 425 353 403 378 "},"¬":{"ha":1122,"x_min":0,"x_max":0,"o":"m 858 50 b 821 19 856 32 840 19 b 794 50 807 19 792 35 l 851 318 b 126 318 610 319 368 318 b 99 336 115 318 99 322 b 140 385 99 351 125 385 l 929 385 "},"√":{"ha":864,"x_min":0,"x_max":0,"o":"m 233 288 b 104 193 190 257 151 218 b 263 364 68 213 168 269 b 331 150 292 328 313 201 b 813 788 385 231 747 672 b 844 774 818 797 835 782 b 304 -4 661 515 482 257 l 233 288 "},"ƒ":{"ha":694,"x_min":0,"x_max":0,"o":"m -358 -361 b -351 -454 -369 -404 -367 -435 b -297 -483 -335 -474 -317 -483 b -143 -336 -249 -483 -193 -436 b 200 497 11 -28 149 389 l 92 497 l 108 528 l 213 528 b 261 644 229 569 244 608 b 356 828 299 729 331 789 b 551 951 408 910 472 951 b 642 903 592 951 622 935 b 654 849 649 890 653 872 b 647 796 656 825 653 808 l 624 794 b 617 888 635 838 632 868 b 563 917 600 907 582 917 b 408 769 514 917 463 868 b 293 528 389 735 350 654 l 483 528 l 467 497 l 281 497 b -90 -394 -33 -296 -65 -356 b -286 -518 -143 -476 -207 -518 b -376 -469 -326 -518 -357 -501 b -389 -415 -383 -457 -387 -439 b -382 -362 -390 -392 -387 -375 "},"≈":{"ha":519,"x_min":0,"x_max":0,"o":"m 439 419 b 349 339 440 390 372 346 b 324 335 340 336 332 335 b 132 386 263 335 201 386 b 118 385 128 386 122 386 b 57 342 67 379 74 342 b 51 347 53 342 51 343 b 154 428 51 381 118 428 b 349 376 221 428 281 376 b 435 424 413 376 421 424 b 439 421 436 424 438 422 l 439 419 m 439 286 b 349 206 440 257 372 213 b 324 201 340 203 332 201 b 132 253 263 201 201 253 b 118 251 128 253 122 253 b 57 208 67 246 74 208 b 51 214 53 208 51 210 b 154 294 51 247 118 294 b 349 243 221 294 281 243 b 435 290 413 243 421 290 b 439 288 436 290 438 289 l 439 286 "},"∆":{"ha":806,"x_min":0,"x_max":0,"o":"m 142 -14 b 110 32 125 -14 110 17 b 428 579 111 40 422 575 b 476 622 435 596 461 622 b 492 617 482 622 489 619 l 726 89 l 729 76 b 661 -14 728 35 693 3 m 182 57 l 633 57 l 442 500 "},"«":{"ha":626,"x_min":0,"x_max":0,"o":"m 663 413 b 439 236 635 368 483 269 l 438 47 l 431 33 l 421 29 l 410 33 b 357 249 392 67 368 204 b 653 426 388 267 639 428 l 661 422 l 663 413 m 463 413 b 238 236 438 371 276 265 l 236 47 l 229 33 l 219 29 b 208 33 215 29 211 31 b 156 249 182 99 172 179 b 451 426 186 267 436 428 l 461 422 l 463 413 "},"»":{"ha":626,"x_min":0,"x_max":0,"o":"m 261 31 l 250 29 l 240 32 l 240 44 b 464 219 269 90 419 185 b 471 421 465 256 458 397 l 482 426 l 493 421 b 546 208 507 407 539 238 m 60 31 l 50 29 b 39 32 47 29 42 31 l 38 38 b 263 219 38 67 257 215 l 264 408 b 271 421 267 413 268 418 l 282 426 l 294 421 b 344 208 321 356 329 276 "},"…":{"ha":746,"x_min":0,"x_max":0,"o":"m 700 38 b 633 -19 694 6 665 -19 b 586 38 601 -19 581 6 b 653 94 590 69 621 94 b 700 38 683 94 706 69 m 414 38 b 347 -19 408 6 379 -19 b 300 38 315 -19 294 6 b 367 94 304 69 335 94 b 414 38 397 94 419 69 m 144 38 b 78 -19 139 6 110 -19 b 31 38 46 -19 25 6 b 97 94 35 69 65 94 b 144 38 128 94 150 69 "}," ":{"ha":360,"x_min":0,"x_max":0,"o":""},"À":{"ha":989,"x_min":0,"x_max":0,"o":"m 1135 819 b 729 565 1135 726 1033 592 b 326 603 581 553 449 564 b 142 303 286 567 192 426 b 476 99 0 -51 221 -114 b 801 488 619 219 732 361 b 876 451 883 635 951 532 b 738 125 803 371 763 261 b 942 61 694 -110 832 -75 b 1063 258 985 117 1032 189 b 1086 253 1075 285 1101 286 b 957 31 1061 197 1008 99 b 753 -89 910 -33 831 -89 b 696 267 599 -89 633 185 b 125 -49 582 132 322 -133 b 244 640 -71 35 65 443 b 114 729 192 665 146 693 b 101 874 76 769 74 853 b 125 849 117 893 139 879 b 153 749 108 811 122 781 b 268 668 182 717 221 689 b 910 982 432 846 656 982 b 1135 819 1050 982 1135 914 m 1081 835 b 914 949 1081 910 1010 949 b 347 628 669 949 493 800 b 729 596 449 596 563 582 b 1081 835 946 614 1081 708 m 1042 1019 b 1029 1007 1042 1011 1036 1007 b 850 1096 1017 1007 875 1085 b 801 1153 826 1107 801 1125 b 826 1181 801 1168 813 1181 b 1042 1019 851 1181 1042 1028 "},"Ã":{"ha":989,"x_min":0,"x_max":0,"o":"m 1206 1174 b 1068 1063 1181 1122 1133 1057 b 900 1117 1010 1068 957 1113 b 828 1071 867 1119 842 1097 b 796 1074 825 1063 793 1067 b 932 1178 822 1121 868 1183 b 1100 1128 992 1174 1044 1132 b 1176 1176 1138 1124 1161 1144 b 1206 1174 1179 1183 1208 1179 m 1135 819 b 729 565 1135 726 1033 592 b 326 603 581 553 449 564 b 142 303 286 567 192 426 b 476 99 0 -51 221 -114 b 801 488 619 219 732 361 b 876 451 883 635 951 532 b 738 125 803 371 763 261 b 942 61 694 -110 832 -75 b 1063 258 985 117 1032 189 b 1086 253 1075 285 1101 286 b 957 31 1061 197 1008 99 b 753 -89 910 -33 831 -89 b 696 267 599 -89 633 185 b 125 -49 582 132 322 -133 b 244 640 -71 35 65 443 b 114 729 192 665 146 693 b 101 874 76 769 74 853 b 125 849 117 893 139 879 b 153 749 108 811 122 781 b 268 668 182 717 221 689 b 910 982 432 846 656 982 b 1135 819 1050 982 1135 914 m 1081 835 b 914 949 1081 910 1010 949 b 347 628 669 949 493 800 b 729 596 449 596 563 582 b 1081 835 946 614 1081 708 "},"Õ":{"ha":1089,"x_min":0,"x_max":0,"o":"m 1238 733 b 1031 525 1186 653 1118 581 b 999 376 1026 478 1015 429 b 303 -93 913 114 597 -189 b 160 433 144 -42 65 192 b 53 608 100 474 60 532 b 1036 574 -1 1142 1064 1260 b 1217 749 1111 624 1182 681 b 1238 733 1226 768 1258 767 m 951 529 b 129 596 1017 1263 56 1092 b 185 490 135 553 154 517 b 717 860 261 651 507 978 b 706 840 738 849 724 835 b 256 443 532 894 314 574 b 951 529 419 363 725 407 m 943 481 b 235 394 714 358 418 321 b 307 -49 168 219 172 18 b 918 382 550 -168 822 110 b 943 481 929 414 939 449 m 919 1175 b 807 1083 900 1132 861 1079 b 668 1128 758 1088 715 1125 b 608 1090 640 1131 621 1113 b 582 1093 607 1083 581 1086 b 694 1178 604 1132 642 1183 b 833 1138 744 1175 788 1140 b 896 1178 864 1133 883 1151 b 919 1175 899 1183 922 1179 "},"Œ":{"ha":2074,"x_min":0,"x_max":0,"o":"m 1968 304 b 1939 36 2082 250 2061 139 b 1311 -158 1801 -79 1557 -158 b 840 118 1018 -158 865 -31 b 321 -67 700 -29 507 -128 b 178 460 163 -15 83 218 b 71 635 118 500 78 558 b 1054 600 17 1168 1082 1286 b 1144 667 1085 621 1115 643 b 1124 733 1131 688 1124 710 b 1785 1114 1125 988 1546 1142 b 1785 744 2132 1075 2078 811 b 1778 771 1701 725 1711 764 b 1781 1078 1913 785 2056 1051 b 1233 774 1549 1101 1254 961 l 1235 775 b 1256 760 1244 794 1276 793 l 1233 728 b 1568 506 1258 546 1579 604 b 1181 460 1554 447 1364 513 b 1314 -125 878 374 804 -125 b 1889 76 1543 -125 1769 -22 b 1953 286 1992 163 2036 267 b 1968 304 1882 303 1917 329 m 969 556 b 147 622 1035 1289 74 1118 b 203 517 153 579 172 543 b 735 886 279 678 525 1004 b 724 867 756 875 742 861 b 274 469 550 921 332 600 b 969 556 438 389 743 433 m 961 507 b 253 421 732 385 436 347 b 325 -22 186 246 190 44 b 843 222 513 -114 715 28 b 921 371 856 274 881 325 b 936 408 926 383 932 396 b 961 507 947 440 957 475 m 1317 547 b 1163 643 1264 565 1201 599 b 1049 551 1129 608 1090 578 b 1033 463 1047 522 1042 493 b 1169 521 1074 486 1118 506 b 1317 547 1219 536 1269 544 "},"œ":{"ha":628,"x_min":0,"x_max":0,"o":"m 728 260 b 461 -6 676 149 617 -6 b 329 119 396 -6 333 38 b 139 0 275 56 203 -1 b 71 253 33 3 18 129 b 335 486 125 381 240 489 b 432 382 396 485 426 442 l 436 388 b 674 478 506 472 613 524 b 596 275 726 438 686 343 b 426 214 554 243 464 214 b 474 24 406 164 382 24 b 703 261 596 24 671 188 b 728 260 714 286 740 289 m 583 299 b 519 368 697 394 690 575 b 435 238 482 324 449 263 b 583 299 461 238 533 257 m 392 325 b 364 440 404 386 396 431 b 167 258 304 457 218 368 b 150 32 113 144 100 47 b 333 178 210 15 292 110 b 392 325 343 226 364 279 "},"–":{"ha":742,"x_min":0,"x_max":0,"o":"m 711 293 b 228 269 583 293 311 279 b 228 336 208 267 188 336 b 706 331 286 336 544 335 b 711 293 738 329 749 293 "},"—":{"ha":1138,"x_min":0,"x_max":0,"o":"m 1108 293 b 228 269 981 293 311 279 b 228 336 208 267 188 336 b 1103 331 286 336 942 335 b 1108 293 1135 329 1146 293 "},"“":{"ha":422,"x_min":0,"x_max":0,"o":"m 394 996 b 271 876 342 979 288 938 b 311 889 283 885 297 889 b 350 832 343 889 361 864 b 275 775 340 800 307 775 b 229 850 235 775 224 814 b 394 1013 243 942 333 993 b 394 996 413 1018 414 1003 m 229 996 b 106 876 176 979 122 938 b 146 889 118 885 132 889 b 185 832 178 889 196 864 b 110 775 175 800 142 775 b 64 850 69 775 58 814 b 229 1013 78 942 168 993 b 229 996 247 1018 249 1003 "},"”":{"ha":546,"x_min":0,"x_max":0,"o":"m 538 917 b 397 756 538 825 456 775 b 394 771 381 749 376 765 b 500 892 446 788 493 829 b 461 878 489 883 475 878 b 414 935 429 878 408 903 b 481 992 418 967 449 992 b 538 917 521 992 538 953 m 372 917 b 232 756 372 825 290 775 b 229 771 215 749 211 765 b 335 892 281 788 328 829 b 296 878 324 883 310 878 b 249 935 264 878 243 903 b 315 992 253 967 283 992 b 372 917 356 992 372 953 "},"‘":{"ha":257,"x_min":0,"x_max":0,"o":"m 231 996 b 106 876 176 979 124 938 b 147 889 118 885 133 889 b 186 832 179 889 196 864 b 111 775 176 800 142 775 b 65 850 69 775 60 814 b 231 1013 79 942 168 993 b 231 996 249 1018 249 1003 "},"’":{"ha":219,"x_min":0,"x_max":0,"o":"m 372 917 b 232 756 372 825 290 775 b 229 771 215 749 211 765 b 335 892 281 788 328 829 b 296 878 324 883 310 878 b 249 935 264 878 243 903 b 315 992 253 967 283 992 b 372 917 356 992 372 953 "},"€":{"ha":918,"x_min":0,"x_max":0,"o":"m 935 864 b 822 671 935 804 897 671 b 807 681 815 671 807 672 b 890 911 807 683 890 806 b 801 1013 890 971 865 1013 b 292 588 572 1013 379 776 l 610 588 l 592 553 l 275 553 b 254 493 264 526 263 521 l 568 493 l 553 457 l 246 457 b 224 283 232 400 224 342 b 454 -11 224 132 281 -11 b 860 272 604 -11 775 164 b 874 251 881 303 881 268 b 393 -39 758 83 604 -39 b 128 271 201 -39 128 96 b 153 457 128 333 138 396 l 88 457 l 103 493 l 161 493 b 181 553 169 521 169 526 l 126 553 l 144 588 l 196 588 b 728 1053 279 783 496 1053 b 935 864 844 1053 935 986 "},"ÿ":{"ha":554,"x_min":0,"x_max":0,"o":"m 651 253 b 321 -69 557 61 521 3 b -110 -439 233 -226 96 -439 b -221 -269 -249 -439 -262 -347 b -90 -156 -194 -218 -144 -181 b 247 -56 3 -111 135 -87 b 367 257 300 36 344 185 b 122 1 319 174 229 1 b 35 64 94 1 46 11 b 82 225 22 124 57 175 b 69 247 74 225 61 229 l 94 296 b 172 449 122 349 151 406 b 226 478 183 471 200 478 l 311 478 b 260 428 299 467 276 457 b 135 182 213 347 174 265 b 217 86 68 38 126 -18 b 435 449 294 176 382 339 b 489 478 446 471 463 478 l 564 478 b 456 293 511 442 490 386 b 344 -25 421 200 385 85 b 544 113 406 -7 490 35 b 632 265 588 175 618 239 b 651 253 644 290 665 281 m 222 -100 b -67 -186 132 -124 13 -151 b -142 -411 -208 -247 -261 -411 b 192 -151 -19 -411 128 -239 l 222 -100 m 526 644 b 482 599 526 618 508 599 b 435 644 456 599 435 617 b 479 690 435 671 453 690 b 526 644 506 690 526 672 m 347 644 b 303 599 347 618 329 599 b 256 644 276 599 256 617 b 300 690 256 671 274 690 b 347 644 326 690 347 672 "},"Ÿ":{"ha":1332,"x_min":0,"x_max":0,"o":"m 1556 -40 b 1456 -182 1567 -76 1540 -146 b 1110 -214 1383 -211 1250 -212 b 725 -510 1017 -354 867 -456 b 464 -268 363 -649 117 -411 b 1064 -179 653 -190 863 -179 b 1254 358 1136 -1 1204 172 b 972 -19 1201 244 1101 68 b 656 118 831 -115 628 -93 b 858 567 675 257 782 442 b 956 1097 982 768 1063 1029 b 153 651 732 1240 282 958 b 400 238 10 308 219 172 b 511 657 593 307 753 700 b 508 676 464 647 483 671 b 394 206 801 756 706 333 b 81 688 174 114 -89 340 b 950 1142 244 1025 707 1251 b 969 585 1154 1050 1094 796 b 753 110 876 426 781 236 b 953 10 717 -57 844 -68 b 1310 624 1125 132 1267 479 b 1378 535 1317 657 1425 742 b 1131 -178 1329 321 1233 4 b 1539 -39 1267 -169 1511 -193 b 1556 -40 1536 -18 1544 -4 m 1044 -214 b 486 -326 857 -214 651 -231 b 704 -481 214 -482 482 -562 b 1044 -214 828 -435 961 -347 m 1397 838 b 1353 792 1397 811 1379 792 b 1306 838 1326 792 1306 810 b 1350 883 1306 864 1324 883 b 1397 838 1376 883 1397 865 m 1218 838 b 1174 792 1218 811 1200 792 b 1126 838 1147 792 1126 810 b 1171 883 1126 864 1144 883 b 1218 838 1197 883 1218 865 "},"⁄":{"ha":761,"x_min":0,"x_max":0,"o":"m 757 842 b 818 835 778 865 839 861 b 106 -1 697 683 219 71 b 90 13 82 -17 75 -6 b 757 842 254 197 689 747 "},"¤":{"ha":932,"x_min":0,"x_max":0,"o":"m 654 507 b 672 426 668 483 674 456 b 610 293 671 376 642 329 l 757 65 l 540 242 b 415 208 500 219 458 208 b 301 240 375 208 336 218 l 1 58 l 251 294 b 235 371 239 318 233 344 b 297 511 236 425 260 474 l 153 736 l 367 564 b 494 597 406 585 451 597 b 606 564 533 597 574 588 l 908 744 l 654 507 m 457 544 b 314 401 386 544 317 485 b 447 258 310 318 376 258 b 594 401 519 258 590 317 b 457 544 597 485 529 544 "},"‹":{"ha":694,"x_min":0,"x_max":0,"o":"m 415 667 b 189 401 413 650 331 575 b 310 181 229 317 278 243 b 269 164 306 165 296 154 b 107 358 250 197 215 246 b 100 374 100 360 100 367 b 221 515 104 386 143 433 b 365 663 288 588 338 636 b 404 682 378 675 393 682 b 415 667 414 682 419 678 m 697 667 b 471 401 694 650 613 575 b 592 181 513 317 561 243 b 551 164 588 165 578 154 b 390 358 533 197 499 246 b 382 374 382 360 382 367 b 503 515 386 386 425 433 b 647 663 569 588 619 636 b 686 682 660 675 676 682 b 697 667 696 682 703 678 "},"›":{"ha":694,"x_min":0,"x_max":0,"o":"m 388 169 b 614 435 390 186 472 261 b 493 656 574 519 525 593 b 533 672 497 671 507 682 b 696 478 553 639 588 590 b 703 463 703 476 703 469 b 582 321 699 450 660 403 b 438 174 515 249 465 200 b 399 154 425 161 410 154 b 388 169 389 154 383 158 m 106 169 b 332 435 108 186 190 261 b 211 656 290 519 242 593 b 251 672 215 671 225 682 b 413 478 269 639 304 590 b 421 463 421 476 421 469 b 300 321 417 450 378 403 b 156 174 233 249 183 200 b 117 154 143 161 126 154 b 106 169 107 154 100 158 "},"‡":{"ha":613,"x_min":0,"x_max":0,"o":"m 375 278 b 471 286 399 281 428 286 l 479 286 b 506 282 494 286 503 285 b 478 269 504 275 496 272 l 361 247 b 243 225 321 240 281 233 b 76 -81 167 106 104 -6 b 58 -156 74 -93 67 -112 b 46 -164 56 -160 51 -164 b 28 -153 36 -164 28 -161 l 28 -150 b 46 -79 28 -140 36 -118 b 164 210 74 13 110 107 b 67 194 135 204 101 200 l 61 194 b 47 192 56 193 50 192 b 36 197 40 192 36 194 b 33 203 33 199 33 201 b 61 229 33 211 44 219 b 189 254 67 233 89 240 b 308 442 221 314 261 375 b 161 417 265 435 217 425 l 157 417 b 142 414 150 415 144 414 b 131 419 135 414 132 417 b 126 425 128 421 126 424 b 156 451 126 433 139 442 b 271 476 164 458 203 468 l 340 486 b 529 718 393 561 456 635 b 611 715 539 731 590 740 b 608 703 615 711 611 706 b 433 496 571 658 482 558 b 469 500 444 497 457 497 b 564 508 492 503 521 508 l 572 508 b 599 504 588 508 597 507 b 572 492 599 497 590 494 l 454 469 b 404 458 439 465 424 464 b 268 264 356 396 311 329 l 375 278 "},"‚":{"ha":214,"x_min":0,"x_max":0,"o":"m 261 161 b 122 0 261 69 181 19 b 118 15 104 -7 101 10 b 225 136 169 33 217 74 b 185 122 213 128 200 122 b 138 179 154 122 132 149 b 204 238 143 211 172 238 b 261 161 244 238 261 197 "},"„":{"ha":340,"x_min":0,"x_max":0,"o":"m 317 286 b 269 39 325 246 279 81 l 256 39 l 244 269 b 285 314 242 296 260 314 b 317 286 304 314 314 304 m 165 288 b 119 39 174 246 131 82 l 106 39 l 93 268 b 135 314 92 292 111 314 b 165 288 151 314 163 306 "},"‰":{"ha":956,"x_min":0,"x_max":0,"o":"m 915 244 b 717 -29 915 147 831 -29 b 611 103 643 -29 611 38 b 815 350 611 213 694 350 b 915 244 878 350 915 307 m 89 -21 l 44 -21 l 476 639 b 428 622 463 629 444 622 b 393 632 415 622 403 625 b 261 532 368 586 317 532 b 161 664 190 532 161 603 b 364 911 161 774 243 911 b 456 806 426 911 456 863 b 399 643 456 754 433 682 l 400 640 b 426 633 408 636 417 633 b 494 671 449 633 483 653 l 633 904 l 678 904 m 579 244 b 381 -29 579 147 494 -29 b 276 103 307 -29 276 38 b 479 350 276 213 358 350 b 579 244 543 350 579 307 m 443 794 b 381 892 443 836 436 892 b 225 714 303 892 243 778 b 215 642 218 690 215 667 b 268 544 215 606 221 544 b 382 635 317 544 363 596 l 385 640 b 365 704 372 661 365 678 b 426 796 365 740 381 796 b 443 794 432 796 438 794 m 893 257 b 831 332 893 297 875 332 b 675 154 753 332 693 218 b 665 82 669 131 665 106 b 715 -15 665 49 672 -15 b 893 257 815 -15 893 175 m 557 257 b 496 332 557 297 540 332 b 340 154 418 332 357 218 b 329 82 333 131 329 106 b 381 -15 329 49 336 -15 b 557 257 479 -15 557 175 "},"Â":{"ha":989,"x_min":0,"x_max":0,"o":"m 1090 1029 b 1063 1029 1096 1017 1068 1019 l 999 1128 b 815 1029 999 1128 833 1039 b 781 1029 801 1017 769 1021 l 988 1176 b 1040 1176 988 1176 1039 1183 l 1090 1029 m 1135 819 b 729 565 1135 726 1033 592 b 326 603 581 553 449 564 b 142 303 286 567 192 426 b 476 99 0 -51 221 -114 b 801 488 619 219 732 361 b 876 451 883 635 951 532 b 738 125 803 371 763 261 b 942 61 694 -110 832 -75 b 1063 258 985 117 1032 189 b 1086 253 1075 285 1101 286 b 957 31 1061 197 1008 99 b 753 -89 910 -33 831 -89 b 696 267 599 -89 633 185 b 125 -49 582 132 322 -133 b 244 640 -71 35 65 443 b 114 729 192 665 146 693 b 101 874 76 769 74 853 b 125 849 117 893 139 879 b 153 749 108 811 122 781 b 268 668 182 717 221 689 b 910 982 432 846 656 982 b 1135 819 1050 982 1135 914 m 1081 835 b 914 949 1081 910 1010 949 b 347 628 669 949 493 800 b 729 596 449 596 563 582 b 1081 835 946 614 1081 708 "},"Ê":{"ha":1253,"x_min":0,"x_max":0,"o":"m 1100 271 b 1051 19 1201 219 1174 115 b 449 -162 914 -89 678 -162 b 369 474 -111 -162 -85 338 b 510 497 417 488 465 496 b 344 657 432 525 338 579 b 985 997 365 885 767 1021 b 957 668 1306 961 1233 728 b 953 692 878 650 890 685 b 979 965 1079 704 1231 940 b 449 690 765 985 481 860 b 740 458 411 482 761 557 b 375 415 724 403 551 465 b 454 -132 85 335 -24 -132 b 994 57 668 -132 875 -36 b 1071 253 1097 138 1147 235 b 1100 271 1007 268 1054 293 m 1113 1036 b 1085 1036 1118 1025 1090 1028 l 1022 1131 b 842 1036 1022 1131 858 1046 b 807 1036 828 1025 796 1029 l 1011 1176 b 1064 1176 1011 1176 1063 1183 l 1113 1036 "},"Á":{"ha":989,"x_min":0,"x_max":0,"o":"m 1189 1142 b 957 1032 1179 1121 965 1028 b 953 1049 950 1036 950 1043 b 1106 1161 958 1058 1086 1144 b 1178 1175 1125 1175 1153 1188 b 1189 1142 1190 1169 1194 1154 m 1135 819 b 729 565 1135 726 1033 592 b 326 603 581 553 449 564 b 142 303 286 567 192 426 b 476 99 0 -51 221 -114 b 801 488 619 219 732 361 b 876 451 883 635 951 532 b 738 125 803 371 763 261 b 942 61 694 -110 832 -75 b 1063 258 985 117 1032 189 b 1086 253 1075 285 1101 286 b 957 31 1061 197 1008 99 b 753 -89 910 -33 831 -89 b 696 267 599 -89 633 185 b 125 -49 582 132 322 -133 b 244 640 -71 35 65 443 b 114 729 192 665 146 693 b 101 874 76 769 74 853 b 125 849 117 893 139 879 b 153 749 108 811 122 781 b 268 668 182 717 221 689 b 910 982 432 846 656 982 b 1135 819 1050 982 1135 914 m 1081 835 b 914 949 1081 910 1010 949 b 347 628 669 949 493 800 b 729 596 449 596 563 582 b 1081 835 946 614 1081 708 "},"Ë":{"ha":1253,"x_min":0,"x_max":0,"o":"m 1150 1135 b 1106 1089 1150 1108 1132 1089 b 1058 1135 1079 1089 1058 1107 b 1103 1181 1058 1161 1076 1181 b 1150 1135 1129 1181 1150 1163 m 971 1135 b 926 1089 971 1108 953 1089 b 879 1135 900 1089 879 1107 b 924 1181 879 1161 897 1181 b 971 1135 950 1181 971 1163 m 1100 274 b 1051 22 1201 222 1174 118 b 449 -160 914 -86 678 -160 b 369 476 -111 -160 -85 340 b 510 500 417 490 465 499 b 344 660 432 528 338 582 b 985 1000 365 888 767 1024 b 957 671 1306 964 1233 731 b 953 694 878 653 890 688 b 979 968 1079 707 1231 943 b 449 693 765 988 481 863 b 740 461 411 485 761 560 b 375 418 724 406 551 468 b 454 -129 85 338 -24 -129 b 994 60 668 -129 875 -33 b 1071 256 1097 140 1147 238 b 1100 274 1007 271 1054 296 "},"È":{"ha":1253,"x_min":0,"x_max":0,"o":"m 1118 1032 b 1106 1022 1118 1025 1113 1022 b 946 1103 1096 1022 968 1092 b 901 1156 924 1113 901 1129 b 924 1181 901 1169 911 1181 b 1118 1032 947 1181 1118 1040 m 1100 271 b 1051 19 1201 219 1174 115 b 449 -162 914 -89 678 -162 b 369 474 -111 -162 -85 338 b 510 497 417 488 465 496 b 344 657 432 525 338 579 b 985 997 365 885 767 1021 b 957 668 1306 961 1233 728 b 953 692 878 650 890 685 b 979 965 1079 704 1231 940 b 449 690 765 985 481 860 b 740 458 411 482 761 557 b 375 415 724 403 551 465 b 454 -132 85 335 -24 -132 b 994 57 668 -132 875 -36 b 1071 253 1097 138 1147 235 b 1100 271 1007 268 1054 293 "},"Í":{"ha":1258,"x_min":0,"x_max":0,"o":"m 1661 982 b 1554 885 1663 925 1607 903 b 1496 872 1538 885 1508 872 b 1115 1 1326 561 1336 285 b 567 -339 963 -194 768 -306 b 6 117 175 -404 -125 -231 b 196 299 40 208 151 296 b 197 279 225 300 211 286 b 29 56 149 258 58 171 b 540 -294 -44 -247 318 -350 b 1244 417 944 -193 1169 215 b 1453 865 1326 635 1424 815 b 776 424 1203 811 843 724 b 939 244 746 290 819 199 b 1056 488 1085 303 1078 467 b 1085 500 1050 494 1074 525 b 940 213 1139 396 1054 256 b 683 424 793 156 647 260 b 1475 901 756 751 1213 857 b 1582 1015 1486 924 1538 1000 b 1661 982 1624 1028 1660 1019 m 1594 976 b 1519 907 1581 982 1540 933 b 1594 976 1642 932 1611 976 m 1615 1136 b 1356 1013 1604 1113 1365 1008 b 1351 1031 1349 1017 1347 1025 b 1522 1157 1357 1042 1500 1139 b 1603 1174 1544 1174 1575 1188 b 1615 1136 1617 1167 1622 1150 "},"Î":{"ha":1258,"x_min":0,"x_max":0,"o":"m 1661 982 b 1554 885 1663 925 1607 903 b 1496 872 1538 885 1508 872 b 1115 1 1326 561 1336 285 b 567 -339 963 -194 768 -306 b 6 117 175 -404 -125 -231 b 196 299 40 208 151 296 b 197 279 225 300 211 286 b 29 56 149 258 58 171 b 540 -294 -44 -247 318 -350 b 1244 417 944 -193 1169 215 b 1453 865 1326 635 1424 815 b 776 424 1203 811 843 724 b 939 244 746 290 819 199 b 1056 488 1085 303 1078 467 b 1085 500 1050 494 1074 525 b 940 213 1139 396 1054 256 b 683 424 793 156 647 260 b 1475 901 756 751 1213 857 b 1582 1015 1486 924 1538 1000 b 1661 982 1624 1028 1660 1019 m 1594 976 b 1519 907 1581 982 1540 933 b 1594 976 1642 932 1611 976 m 1719 1029 b 1692 1029 1725 1017 1697 1019 l 1628 1128 b 1444 1029 1628 1128 1463 1039 b 1410 1029 1431 1017 1399 1021 l 1617 1176 b 1669 1176 1617 1176 1668 1183 l 1719 1029 "},"Ï":{"ha":1258,"x_min":0,"x_max":0,"o":"m 1661 982 b 1554 885 1663 925 1607 903 b 1496 872 1538 885 1508 872 b 1115 1 1326 561 1336 285 b 567 -339 963 -194 768 -306 b 6 117 175 -404 -125 -231 b 196 299 40 208 151 296 b 197 279 225 300 211 286 b 29 56 149 258 58 171 b 540 -294 -44 -247 318 -350 b 1244 417 944 -193 1169 215 b 1453 865 1326 635 1424 815 b 776 424 1203 811 843 724 b 939 244 746 290 819 199 b 1056 488 1085 303 1078 467 b 1085 500 1050 494 1074 525 b 940 213 1139 396 1054 256 b 683 424 793 156 647 260 b 1475 901 756 751 1213 857 b 1582 1015 1486 924 1538 1000 b 1661 982 1624 1028 1660 1019 m 1594 976 b 1519 907 1581 982 1540 933 b 1594 976 1642 932 1611 976 m 1760 1126 b 1715 1081 1760 1100 1742 1081 b 1668 1126 1689 1081 1668 1099 b 1713 1172 1668 1153 1686 1172 b 1760 1126 1739 1172 1760 1154 m 1581 1126 b 1536 1081 1581 1100 1563 1081 b 1489 1126 1510 1081 1489 1099 b 1533 1172 1489 1153 1507 1172 b 1581 1126 1560 1172 1581 1154 "},"Ì":{"ha":1258,"x_min":0,"x_max":0,"o":"m 1668 939 b 1503 829 1671 858 1568 840 b 1122 -42 1333 518 1343 242 b 574 -382 969 -237 775 -349 b 13 74 182 -447 -118 -274 b 203 256 47 165 158 253 b 204 236 232 257 218 243 b 36 13 156 215 65 128 b 547 -337 -37 -290 325 -393 b 1251 374 951 -236 1176 172 b 1460 822 1333 592 1431 772 b 783 381 1210 768 850 681 b 946 201 753 247 826 156 b 1063 444 1092 260 1085 424 b 1092 457 1057 451 1081 482 b 947 169 1146 353 1061 213 b 690 381 800 113 654 217 b 1482 858 763 708 1219 814 b 1589 972 1493 881 1544 957 b 1668 939 1631 985 1667 976 m 1601 933 b 1526 864 1588 939 1547 890 b 1601 933 1649 889 1618 933 m 1710 1035 b 1697 1024 1710 1028 1703 1024 b 1538 1104 1688 1024 1560 1093 b 1494 1157 1517 1115 1494 1131 b 1517 1181 1494 1171 1504 1181 b 1710 1035 1539 1181 1710 1043 "},"Ó":{"ha":1089,"x_min":0,"x_max":0,"o":"m 1238 733 b 1031 525 1186 653 1118 581 b 999 376 1026 478 1015 429 b 303 -93 913 114 597 -189 b 160 433 144 -42 65 192 b 53 608 100 474 60 532 b 1036 574 -1 1142 1064 1260 b 1217 749 1111 624 1182 681 b 1238 733 1226 768 1258 767 m 951 529 b 129 596 1017 1263 56 1092 b 185 490 135 553 154 517 b 717 860 261 651 507 978 b 706 840 738 849 724 835 b 256 443 532 894 314 574 b 951 529 419 363 725 407 m 943 481 b 235 394 714 358 418 321 b 307 -49 168 219 172 18 b 918 382 550 -168 822 110 b 943 481 929 414 939 449 m 1099 1136 b 839 1013 1088 1113 849 1008 b 835 1031 832 1017 831 1025 b 1006 1157 840 1042 983 1139 b 1086 1174 1028 1174 1058 1188 b 1099 1136 1100 1167 1106 1150 "},"Ô":{"ha":1089,"x_min":0,"x_max":0,"o":"m 967 1056 b 943 1056 971 1046 947 1049 l 890 1138 b 739 1056 890 1138 754 1064 b 711 1056 728 1046 701 1049 l 882 1178 b 925 1178 882 1178 924 1183 l 967 1056 m 1238 733 b 1031 525 1186 653 1118 581 b 999 376 1026 478 1015 429 b 303 -93 913 114 597 -189 b 160 433 144 -42 65 192 b 53 608 100 474 60 532 b 1036 574 -1 1142 1064 1260 b 1217 749 1111 624 1182 681 b 1238 733 1226 768 1258 767 m 951 529 b 129 596 1017 1263 56 1092 b 185 490 135 553 154 517 b 717 860 261 651 507 978 b 706 840 738 849 724 835 b 256 443 532 894 314 574 b 951 529 419 363 725 407 m 943 481 b 235 394 714 358 418 321 b 307 -49 168 219 172 18 b 918 382 550 -168 822 110 b 943 481 929 414 939 449 "},"":{"ha":779,"x_min":0,"x_max":0,"o":"m 453 60 b 351 60 426 76 375 75 b 293 42 340 53 325 42 b 203 107 260 42 233 69 b 153 454 132 192 96 351 b 306 539 203 547 288 546 b 374 515 319 533 350 522 b 429 517 394 510 411 513 b 497 539 453 524 485 533 b 644 475 514 546 597 551 b 572 338 610 456 569 411 b 661 214 575 282 611 233 b 511 43 636 138 578 43 b 453 60 479 43 463 53 m 432 636 b 525 692 457 675 510 697 b 406 532 558 643 504 526 b 432 636 399 549 404 596 m 226 454 b 225 449 225 453 225 451 b 226 444 225 447 225 446 b 231 443 228 444 229 443 b 233 444 232 443 232 443 l 233 442 b 231 440 233 440 232 440 l 229 440 l 229 442 l 225 442 b 228 439 225 440 226 439 b 231 438 228 438 229 438 b 236 442 233 438 236 439 b 238 447 238 443 238 444 b 236 453 238 449 238 451 b 231 456 236 454 233 456 b 226 454 229 456 228 456 m 240 454 b 239 449 240 453 239 451 b 240 444 239 447 240 446 b 244 443 242 444 243 443 b 247 444 246 443 246 443 l 249 444 b 247 442 249 443 247 443 b 244 440 247 440 246 440 l 243 440 l 243 442 l 239 442 b 242 439 240 440 240 439 b 244 438 243 438 243 438 b 251 442 247 438 250 439 l 251 453 b 244 456 250 454 247 456 b 240 454 243 456 242 456 m 449 401 l 446 401 b 442 400 444 401 443 401 b 440 397 442 400 440 399 b 442 394 440 396 440 394 b 444 393 443 393 443 393 l 447 393 b 449 394 447 394 449 394 l 449 393 l 453 393 l 453 403 b 450 406 453 404 451 406 b 447 407 450 407 449 407 b 442 406 444 407 443 407 b 440 403 442 404 440 404 l 444 403 l 444 404 l 449 404 m 382 318 b 378 317 381 318 379 318 b 376 311 376 315 376 313 b 378 306 376 308 376 307 b 383 304 379 304 381 304 b 388 306 385 304 386 304 b 389 308 389 307 389 307 l 386 308 b 385 307 385 308 385 307 l 381 307 b 379 310 381 308 379 308 l 389 310 l 389 313 b 388 315 389 314 389 315 b 386 318 388 317 386 317 m 247 447 b 246 446 246 447 246 446 b 243 447 244 446 244 447 l 243 453 l 246 453 b 247 451 246 453 247 453 m 232 447 b 231 446 232 447 232 446 l 229 447 l 229 453 l 231 453 b 233 451 232 453 232 453 l 233 450 b 232 447 233 449 233 447 m 381 314 b 382 315 381 315 382 315 b 385 314 383 315 385 315 b 386 313 385 314 386 314 l 379 313 m 449 400 l 449 399 b 447 396 449 397 449 396 l 444 396 l 444 399 l 447 399 "},"Ò":{"ha":1089,"x_min":0,"x_max":0,"o":"m 1017 1025 b 1004 1013 1017 1017 1011 1013 b 833 1099 993 1013 857 1088 b 788 1156 811 1110 788 1128 b 811 1181 788 1169 797 1181 b 1017 1025 835 1181 1017 1033 m 1238 733 b 1031 525 1186 653 1118 581 b 999 376 1026 478 1015 429 b 303 -93 913 114 597 -189 b 160 433 144 -42 65 192 b 53 608 100 474 60 532 b 1036 574 -1 1142 1064 1260 b 1217 749 1111 624 1182 681 b 1238 733 1226 768 1258 767 m 951 529 b 129 596 1017 1263 56 1092 b 185 490 135 553 154 517 b 717 860 261 651 507 978 b 706 840 738 849 724 835 b 256 443 532 894 314 574 b 951 529 419 363 725 407 m 943 481 b 235 394 714 358 418 321 b 307 -49 168 219 172 18 b 918 382 550 -168 822 110 b 943 481 929 414 939 449 "},"Ú":{"ha":1308,"x_min":0,"x_max":0,"o":"m 1369 669 b 1319 454 1438 636 1357 539 b 1236 229 1301 415 1263 328 b 1256 -86 1196 79 1179 -90 b 1246 -118 1322 -81 1289 -125 b 1164 249 1115 -94 1140 129 b 1079 124 1143 214 1114 168 b 669 63 894 -114 699 -115 b 914 807 639 250 863 606 b 885 1108 947 940 951 1068 b 422 1046 771 1178 581 1138 b 389 249 -133 721 3 104 b 460 658 579 319 725 718 b 453 682 388 642 442 678 b 388 217 739 803 694 346 b 425 1092 -28 40 -251 722 b 878 1153 583 1179 754 1207 b 996 801 1014 1094 1031 954 b 749 63 946 582 728 265 b 1058 163 764 -82 906 -58 b 1292 596 1151 297 1235 493 b 1369 669 1322 650 1353 669 m 1400 1054 b 1140 931 1389 1031 1150 926 b 1136 949 1133 935 1132 943 b 1307 1075 1142 960 1285 1057 b 1388 1092 1329 1092 1360 1106 b 1400 1054 1401 1085 1407 1068 "},"Û":{"ha":1308,"x_min":0,"x_max":0,"o":"m 1369 669 b 1319 454 1438 636 1357 539 b 1236 229 1301 415 1263 328 b 1256 -86 1196 79 1179 -90 b 1246 -118 1322 -81 1289 -125 b 1164 249 1115 -94 1140 129 b 1079 124 1143 214 1114 168 b 669 63 894 -114 699 -115 b 914 807 639 250 863 606 b 885 1108 947 940 951 1068 b 422 1046 771 1178 581 1138 b 389 249 -133 721 3 104 b 460 658 579 319 725 718 b 453 682 388 642 442 678 b 388 217 739 803 694 346 b 425 1092 -28 40 -251 722 b 878 1153 583 1179 754 1207 b 996 801 1014 1094 1031 954 b 749 63 946 582 728 265 b 1058 163 764 -82 906 -58 b 1292 596 1151 297 1235 493 b 1369 669 1322 650 1353 669 m 1432 1029 b 1404 1029 1438 1017 1410 1019 l 1340 1128 b 1157 1029 1340 1128 1175 1039 b 1122 1029 1143 1017 1111 1021 l 1329 1176 b 1382 1176 1329 1176 1381 1183 l 1432 1029 "},"Ù":{"ha":1308,"x_min":0,"x_max":0,"o":"m 1369 669 b 1319 454 1438 636 1357 539 b 1236 229 1301 415 1263 328 b 1256 -86 1196 79 1179 -90 b 1246 -118 1322 -81 1289 -125 b 1164 249 1115 -94 1140 129 b 1079 124 1143 214 1114 168 b 669 63 894 -114 699 -115 b 914 807 639 250 863 606 b 885 1108 947 940 951 1068 b 422 1046 771 1178 581 1138 b 389 249 -133 721 3 104 b 460 658 579 319 725 718 b 453 682 388 642 442 678 b 388 217 739 803 694 346 b 425 1092 -28 40 -251 722 b 878 1153 583 1179 754 1207 b 996 801 1014 1094 1031 954 b 749 63 946 582 728 265 b 1058 163 764 -82 906 -58 b 1292 596 1151 297 1235 493 b 1369 669 1322 650 1353 669 m 1394 1006 b 1381 993 1394 997 1388 993 b 1190 1089 1368 993 1217 1076 b 1139 1151 1165 1101 1139 1121 b 1165 1181 1139 1168 1150 1181 b 1394 1006 1192 1181 1394 1015 "},"ı":{"ha":242,"x_min":0,"x_max":0,"o":"m 328 254 b 110 0 292 176 214 0 b 35 181 7 0 -1 113 l 156 411 b 231 478 190 478 186 478 l 301 478 b 250 428 290 467 265 457 b 106 158 250 428 143 254 b 89 118 106 158 92 128 b 118 31 75 72 78 33 b 179 57 139 28 165 43 b 310 267 226 103 272 189 b 328 254 322 292 342 282 "},"ˆ":{"ha":674,"x_min":0,"x_max":0,"o":"m 535 540 b 507 540 540 528 513 531 l 443 639 b 260 540 443 639 278 550 b 225 540 246 528 214 532 l 432 688 b 485 688 432 688 483 694 l 535 540 "},"˜":{"ha":674,"x_min":0,"x_max":0,"o":"m 600 674 b 485 581 579 631 540 576 b 343 625 435 585 390 622 b 282 588 314 628 293 610 b 254 590 279 581 253 585 b 369 676 276 629 315 681 b 511 635 419 674 465 639 b 576 675 543 632 563 649 b 600 674 578 681 603 678 "},"¯":{"ha":674,"x_min":0,"x_max":0,"o":"m 551 571 l 254 571 l 272 613 l 568 613 "},"˘":{"ha":454,"x_min":0,"x_max":0,"o":"m 367 732 b 397 731 379 747 401 744 b 204 611 364 657 293 611 b 81 685 157 611 89 633 b 101 747 72 733 88 747 b 136 693 115 747 115 714 b 232 658 165 665 192 658 b 367 732 310 658 333 689 "},"˙":{"ha":378,"x_min":0,"x_max":0,"o":"m 251 760 b 183 690 251 724 218 690 b 153 718 167 690 153 700 b 218 796 153 747 188 796 b 251 760 239 796 251 778 "},"˚":{"ha":433,"x_min":0,"x_max":0,"o":"m 193 729 b 232 678 192 700 208 678 b 279 732 257 678 276 703 b 240 782 282 761 264 783 b 193 729 217 781 196 758 m 144 726 b 246 804 149 768 196 801 b 329 732 297 806 333 772 b 228 654 324 690 279 656 b 144 726 176 653 139 686 "},"¸":{"ha":526,"x_min":0,"x_max":0,"o":"m 453 -160 b 381 -265 453 -204 415 -242 b 275 -289 351 -285 308 -289 b 100 -225 240 -289 100 -274 b 108 -215 100 -219 103 -215 b 129 -231 117 -215 124 -225 b 249 -265 154 -257 214 -265 b 382 -215 292 -265 357 -254 b 401 -158 393 -199 401 -178 b 297 -79 401 -104 344 -79 b 197 -112 244 -79 211 -112 b 171 -92 185 -112 171 -104 b 176 -79 171 -86 172 -83 b 283 1 186 -69 278 1 b 294 -10 289 1 293 -6 b 233 -58 286 -17 232 -50 b 288 -54 251 -56 269 -54 b 453 -160 350 -54 453 -81 "},"˝":{"ha":371,"x_min":0,"x_max":0,"o":"m 200 778 b 114 575 207 760 122 579 b 100 583 107 574 101 578 b 128 740 96 592 126 719 b 168 792 132 761 142 785 b 200 778 181 794 194 789 m 363 778 b 276 575 369 760 285 579 b 263 583 269 574 264 578 b 292 740 258 592 289 719 b 331 792 294 761 304 785 b 363 778 344 794 357 789 "},"˛":{"ha":463,"x_min":0,"x_max":0,"o":"m 306 -10 b 140 -236 232 -68 143 -172 b 181 -282 140 -261 149 -282 b 251 -240 206 -282 233 -258 b 265 -246 256 -237 268 -233 b 133 -324 260 -274 204 -324 b 71 -261 99 -324 69 -303 b 297 4 74 -175 229 -25 b 306 -10 303 4 308 8 "},"ˇ":{"ha":510,"x_min":0,"x_max":0,"o":"m 118 853 b 146 853 113 865 140 863 l 210 754 b 393 853 210 754 375 843 b 428 853 407 865 439 861 l 221 706 b 168 706 221 706 169 699 l 118 853 "},"·":{"ha":363,"x_min":0,"x_max":0,"o":"m 288 322 b 221 265 282 290 253 265 b 174 322 189 265 168 290 b 240 379 178 354 208 379 b 288 322 271 379 293 354 "},"Ð":{"ha":1426,"x_min":0,"x_max":0,"o":"m 1421 332 b 897 -49 1396 74 1147 -79 b 521 50 717 -26 608 11 b 174 -50 419 -32 307 -67 b 299 203 -110 -17 -14 311 b 510 100 351 183 465 124 b 713 389 588 175 651 278 l 599 376 b 599 443 579 374 558 443 b 742 442 633 443 678 443 b 1038 921 829 607 915 785 b 560 999 901 1003 732 1035 b 264 510 175 917 58 574 b 515 661 428 458 513 613 b 543 649 517 675 547 675 b 250 476 524 511 372 433 b 588 1047 7 561 15 964 b 1076 964 758 1072 932 1040 l 1111 1004 b 1228 1082 1135 1025 1204 1074 b 1242 1061 1272 1100 1275 1082 b 1201 1024 1224 1049 1206 1029 l 1136 929 b 1421 332 1325 804 1447 596 m 910 400 b 807 397 874 400 839 399 b 607 125 738 289 669 193 b 554 75 589 106 572 90 b 896 -11 640 36 747 3 b 1333 329 1136 -33 1313 138 b 1103 876 1357 557 1260 753 b 835 439 1015 740 924 582 b 904 438 856 439 879 438 b 910 400 936 436 947 400 m 474 72 b 264 167 407 104 347 138 b 208 -11 63 236 39 -3 b 474 72 308 -15 397 17 "},"Ł":{"ha":1036,"x_min":0,"x_max":0,"o":"m 906 307 b 675 300 847 307 761 304 l 628 213 l 599 165 b 1054 -42 735 132 925 58 b 1181 -367 1186 -144 1215 -308 b 1146 -404 1169 -387 1157 -399 b 1128 -362 1086 -436 1117 -386 b 1060 -92 1150 -314 1154 -174 b 557 103 925 28 733 68 b 311 -124 485 1 401 -81 b 197 163 21 -264 -176 50 b 546 178 296 192 444 196 b 615 297 571 217 593 256 b 422 283 533 293 458 288 b 422 350 403 281 382 350 b 643 349 453 350 543 349 b 692 446 660 379 675 411 b 642 974 292 433 167 865 b 644 950 700 988 706 958 b 711 481 358 915 265 428 b 829 778 728 518 829 778 b 1329 1089 1044 1310 1314 1197 b 750 451 1368 810 1046 501 l 700 347 b 900 344 769 347 842 346 b 906 307 932 343 943 307 m 1272 1058 b 892 731 1271 1151 1107 1151 b 769 489 892 731 826 607 b 1272 1058 1019 544 1274 801 m 503 111 b 214 106 411 131 304 129 b 289 -85 -122 19 35 -207 b 503 111 364 -49 436 17 "},"ł":{"ha":294,"x_min":0,"x_max":0,"o":"m 194 306 b 156 268 182 292 169 281 b 126 176 149 244 135 211 b 269 89 85 10 196 -14 b 372 265 315 154 354 229 b 393 258 385 289 406 286 b 146 -3 358 185 286 -3 b 75 253 0 -3 49 163 l 11 224 b 21 271 -1 215 -4 261 l 88 297 b 292 761 133 449 215 633 b 440 685 390 926 540 907 b 238 353 390 572 328 457 l 329 386 b 328 360 349 393 351 369 m 419 706 b 386 768 447 769 461 875 b 172 329 321 676 219 446 b 188 335 178 331 182 332 b 419 706 279 435 368 585 "},"Š":{"ha":1251,"x_min":0,"x_max":0,"o":"m 1097 1172 b 1122 1172 1093 1183 1118 1181 l 1181 1083 b 1346 1172 1181 1083 1329 1164 b 1378 1172 1358 1183 1388 1179 l 1190 1039 b 1143 1039 1190 1039 1144 1033 l 1097 1172 m 1156 790 b 1069 749 1135 774 1106 758 b 1075 774 1035 739 1033 769 b 747 965 1236 793 1163 1114 b 678 658 594 910 504 765 b 982 506 757 611 888 565 b 856 -29 1246 343 1072 101 b -7 197 564 -203 14 -167 b 213 554 -14 319 86 494 b 226 535 231 561 268 567 b 138 438 192 507 160 475 b 65 197 90 365 67 279 b 783 -22 63 -122 525 -157 b 935 439 999 92 1090 313 b 586 614 856 504 682 550 b 699 1000 393 742 511 933 b 1113 1006 828 1044 1019 1053 b 1156 790 1204 961 1235 856 "},"š":{"ha":356,"x_min":0,"x_max":0,"o":"m 457 263 b 165 8 406 147 322 -39 b 108 -6 146 0 126 -6 b 39 190 -60 -6 -28 188 b 158 431 76 261 122 351 b 274 550 183 485 225 543 b 325 543 294 553 311 550 b 319 519 350 531 344 507 b 275 521 306 525 289 528 b 246 344 211 490 225 394 b 296 181 268 292 299 242 b 197 26 293 126 251 63 l 207 25 b 332 89 254 18 297 47 b 436 271 364 128 407 214 b 457 263 443 285 464 276 m 211 181 b 193 444 215 268 182 382 b 63 188 156 369 96 249 b 92 143 63 188 93 189 b 150 36 89 90 118 51 b 211 181 181 60 207 107 m 126 24 b 71 128 97 42 74 75 b 99 18 26 83 44 18 b 126 24 108 18 118 19 m 229 818 b 257 818 224 831 251 828 l 321 719 b 504 818 321 719 486 808 b 539 818 518 831 550 826 l 332 671 b 279 671 332 671 281 664 l 229 818 "},"Ý":{"ha":1397,"x_min":0,"x_max":0,"o":"m 1556 -40 b 1456 -182 1567 -76 1540 -146 b 1110 -214 1383 -211 1250 -212 b 725 -510 1017 -354 867 -456 b 464 -268 363 -649 117 -411 b 1064 -179 653 -190 863 -179 b 1254 358 1136 -1 1204 172 b 972 -19 1201 244 1101 68 b 656 118 831 -115 628 -93 b 858 567 675 257 782 442 b 956 1097 982 768 1063 1029 b 153 651 732 1240 282 958 b 400 238 10 308 219 172 b 511 657 593 307 753 700 b 508 676 464 647 483 671 b 394 206 801 756 706 333 b 81 688 174 114 -89 340 b 950 1142 244 1025 707 1251 b 969 585 1154 1050 1094 796 b 753 110 876 426 781 236 b 953 10 717 -57 844 -68 b 1310 624 1125 132 1267 479 b 1378 535 1317 657 1425 742 b 1131 -178 1329 321 1233 4 b 1539 -39 1267 -169 1511 -193 b 1556 -40 1536 -18 1544 -4 m 1044 -214 b 486 -326 857 -214 651 -231 b 704 -481 214 -482 482 -562 b 1044 -214 828 -435 961 -347 m 1503 1047 b 1243 924 1492 1024 1253 919 b 1239 942 1236 928 1235 936 b 1410 1068 1244 953 1388 1050 b 1490 1085 1432 1085 1463 1099 b 1503 1047 1504 1078 1510 1061 "},"ý":{"ha":554,"x_min":0,"x_max":0,"o":"m 651 253 b 321 -69 557 61 521 3 b -110 -439 233 -226 96 -439 b -221 -269 -249 -439 -262 -347 b -90 -156 -194 -218 -144 -181 b 247 -56 3 -111 135 -87 b 367 257 300 36 344 185 b 122 1 319 174 229 1 b 35 64 94 1 46 11 b 82 225 22 124 57 175 b 69 247 74 225 61 229 l 94 296 b 172 449 122 349 151 406 b 226 478 183 471 200 478 l 311 478 b 260 428 299 467 276 457 b 135 182 213 347 174 265 b 217 86 68 38 126 -18 b 435 449 294 176 382 339 b 489 478 446 471 463 478 l 564 478 b 456 293 511 442 490 386 b 344 -25 421 200 385 85 b 544 113 406 -7 490 35 b 632 265 588 175 618 239 b 651 253 644 290 665 281 m 222 -100 b -67 -186 132 -124 13 -151 b -142 -411 -208 -247 -261 -411 b 192 -151 -19 -411 128 -239 l 222 -100 m 625 697 b 365 574 614 674 375 569 b 361 592 358 578 357 586 b 532 718 367 603 510 700 b 613 735 554 735 585 749 b 625 697 626 728 632 711 "},"Þ":{"ha":467,"x_min":0,"x_max":0,"o":"m 510 853 b 667 800 571 843 626 824 b 515 318 974 632 729 371 b 274 289 431 296 335 286 l 169 76 b 74 4 139 17 118 1 b 15 11 56 6 35 14 b 286 482 51 44 231 365 b 513 1181 443 811 514 1132 b 568 1160 524 1164 554 1172 b 585 1042 601 1129 604 1104 m 646 776 b 500 826 611 796 549 815 l 431 638 b 331 407 421 613 358 446 l 286 317 b 475 344 343 318 418 326 b 646 776 707 418 838 660 "},"þ":{"ha":535,"x_min":0,"x_max":0,"o":"m 418 267 b 308 358 510 438 426 524 b 122 43 256 286 188 165 b 418 267 190 -25 343 129 m 211 253 b 456 483 253 321 361 510 b 408 103 588 447 510 225 b 111 22 332 11 210 -36 l -50 -308 b -146 -381 -81 -368 -101 -383 b -204 -374 -164 -379 -185 -371 b 67 97 -168 -340 11 -19 b 314 863 224 426 315 814 b 369 842 325 846 356 854 b 386 724 403 811 406 786 "},"Ž":{"ha":940,"x_min":0,"x_max":0,"o":"m 1286 1171 b 1314 1171 1281 1183 1308 1181 l 1378 1072 b 1561 1171 1378 1072 1543 1161 b 1596 1171 1575 1183 1607 1179 l 1389 1024 b 1336 1024 1389 1024 1338 1017 l 1286 1171 m 976 388 b 788 383 908 388 846 386 b 440 64 633 199 538 143 b 969 -131 440 64 821 -101 b 1354 3 1075 -151 1332 -156 b 1386 -18 1361 47 1394 61 b 1060 -219 1381 -71 1331 -214 b 406 44 856 -224 406 44 b 128 -51 285 -42 193 -65 b 214 185 -47 -11 -17 246 b 413 85 256 174 317 146 b 668 379 413 85 526 211 b 503 367 608 375 553 369 b 503 432 472 364 439 432 b 711 431 553 432 619 432 l 825 567 b 1121 858 903 658 1017 774 b 540 897 957 904 706 940 b 429 651 422 867 285 747 b 413 625 478 618 426 621 b 357 667 401 628 378 643 b 624 990 281 751 300 965 b 1147 879 794 1004 993 926 b 1301 972 1204 924 1258 957 b 1396 846 1417 1013 1488 924 b 1171 846 1353 810 1271 821 b 822 426 1075 758 925 557 b 968 424 865 425 914 424 b 976 388 1018 422 1035 388 m 386 58 b 344 90 386 58 358 81 b 203 144 288 122 239 140 b 208 -11 38 163 35 -17 b 386 58 272 -8 347 25 m 1371 857 b 1356 957 1411 882 1406 957 b 1192 867 1313 957 1256 921 b 1371 857 1271 844 1335 835 "},"ž":{"ha":474,"x_min":0,"x_max":0,"o":"m 572 256 b 331 -17 508 126 449 7 b -83 -421 260 -211 117 -362 b -242 -240 -225 -462 -315 -354 b 246 -15 -167 -128 69 -71 b 219 178 267 51 300 192 b 158 151 201 168 181 160 b 147 178 136 143 125 171 b 303 300 239 206 285 272 b 144 340 368 400 229 486 b 71 201 128 313 92 246 b 54 217 60 178 39 185 b 136 375 79 265 106 319 b 394 401 221 529 400 514 b 258 210 392 340 346 263 b 354 119 328 211 353 171 b 339 18 354 100 346 40 b 553 267 431 36 499 153 b 572 256 565 292 586 283 m 233 -50 b -111 -171 110 -89 -31 -122 b -126 -397 -233 -242 -272 -428 b 233 -50 -18 -374 158 -247 m 279 744 b 307 744 274 757 301 754 l 371 646 b 554 744 371 646 536 735 b 589 744 568 757 600 753 l 382 597 b 329 597 382 597 331 590 l 279 744 "},"­":{"ha":564,"x_min":0,"x_max":0,"o":"m 539 293 b 228 269 411 293 311 279 b 228 336 208 267 188 336 b 533 331 286 336 372 335 b 539 293 565 329 576 293 "},"§":{"ha":1311,"x_min":0,"x_max":0,"o":"m 926 -18 b 851 -57 903 -32 878 -46 b 658 -407 947 -187 831 -344 b 213 -414 519 -456 313 -464 b 167 -181 114 -365 81 -251 b 260 -136 189 -162 219 -147 b 253 -164 297 -126 299 -158 b 606 -369 79 -185 158 -529 b 681 -39 771 -310 868 -154 b 353 125 596 13 456 61 b 490 701 69 300 256 561 b 565 739 514 715 539 728 b 758 1090 468 869 585 1028 b 1204 1097 897 1139 1104 1147 b 1250 864 1303 1049 1336 935 b 1157 819 1228 846 1197 831 b 1164 847 1119 810 1118 842 b 811 1053 1338 868 1258 1213 b 736 722 646 993 549 838 b 1064 558 821 671 961 622 b 926 -18 1347 383 1161 122 m 636 675 b 594 707 619 685 606 696 l 568 694 b 404 197 335 572 236 333 b 781 8 490 128 676 78 b 822 -24 796 -1 810 -12 l 849 -11 b 1013 486 1082 111 1181 350 b 636 675 926 556 740 606 "},"ð":{"ha":539,"x_min":0,"x_max":0,"o":"m 508 828 b 404 763 469 806 436 783 b 465 522 449 697 465 607 b 439 331 465 458 456 393 b 139 -7 404 194 304 -7 b 50 125 72 -7 50 71 b 63 215 50 156 54 186 b 325 447 92 317 214 447 b 400 368 375 447 400 414 l 400 347 b 415 478 410 390 415 435 b 353 726 415 547 397 650 b 250 651 315 700 281 674 b 217 710 235 640 182 689 l 322 768 b 197 831 290 806 249 831 b 147 825 179 831 164 825 b 132 835 140 825 132 826 b 213 864 132 864 193 864 b 376 799 283 864 338 839 l 485 857 b 508 828 513 872 540 846 m 381 363 b 332 433 381 397 372 433 b 139 213 251 433 161 278 b 111 65 124 169 111 111 b 150 10 111 43 118 10 b 344 222 229 10 311 161 b 381 363 368 264 381 315 "},"÷":{"ha":557,"x_min":0,"x_max":0,"o":"m 410 349 b 343 292 404 317 375 292 b 296 349 311 292 290 317 b 363 406 300 381 331 406 b 410 349 393 406 415 381 m 350 38 b 283 -19 346 6 315 -19 b 236 38 253 -19 231 6 b 303 94 242 69 271 94 b 350 38 335 94 356 69 m 568 206 l 90 206 l 89 207 l 89 232 l 90 233 l 568 233 l 571 232 l 571 207 "},"ø":{"ha":465,"x_min":0,"x_max":0,"o":"m 69 -64 l 108 4 b 71 253 31 29 24 142 b 335 486 125 381 240 489 b 375 476 350 486 364 482 l 410 538 l 436 525 l 399 461 b 403 233 443 418 442 324 b 286 69 382 185 339 119 b 351 35 297 49 318 35 b 546 274 440 35 513 207 b 567 261 553 288 576 282 b 349 11 543 208 465 11 b 260 47 307 11 278 26 b 139 0 221 18 179 -1 l 138 0 l 94 -75 m 167 258 b 131 44 121 161 104 78 l 356 442 b 167 258 296 449 215 363 m 353 213 b 381 429 399 310 411 397 l 243 186 b 271 194 250 192 260 194 b 313 153 294 194 313 175 b 310 138 313 147 311 143 b 353 213 325 160 340 186 m 222 150 l 154 31 b 244 67 181 26 213 40 b 222 135 229 89 222 114 "},"Ø":{"ha":1071,"x_min":0,"x_max":0,"o":"m 201 -144 l 261 -36 b 178 460 144 47 96 250 b 71 635 118 500 78 558 b 849 1008 32 1010 549 1179 l 915 1126 l 963 1104 l 892 979 b 1054 600 994 903 1061 778 b 1235 775 1129 650 1200 707 b 1256 760 1244 794 1276 793 b 1049 551 1204 679 1136 607 b 1017 403 1044 504 1033 456 b 321 -67 931 140 615 -162 l 304 -60 l 246 -164 m 274 469 b 524 429 339 438 426 425 l 828 971 b 147 622 576 1167 94 979 b 203 517 153 579 172 543 b 735 886 279 678 525 1004 b 724 867 756 875 742 861 b 274 469 550 921 332 600 m 961 507 b 557 388 836 440 692 399 l 325 -22 b 936 408 568 -140 840 136 b 961 507 947 440 957 475 m 969 556 b 867 935 985 732 942 856 l 583 435 b 969 556 713 449 851 492 m 253 421 b 285 4 193 265 190 89 l 497 383 b 253 421 406 381 321 393 "},"◊":{"ha":799,"x_min":0,"x_max":0,"o":"m 382 -19 b 351 6 368 -19 358 -8 b 328 67 342 25 336 46 b 151 413 278 188 211 297 b 146 440 147 422 146 428 b 458 953 147 496 419 953 b 492 924 474 953 483 938 b 572 728 518 858 542 792 b 692 513 610 656 653 583 b 693 490 692 506 693 497 b 418 6 692 436 468 82 b 382 -19 411 -10 401 -19 m 447 831 b 258 501 383 721 318 611 b 393 101 307 371 351 233 b 585 428 458 207 519 318 b 447 831 533 561 489 696 "},"Ľ":{"ha":1036,"x_min":0,"x_max":0,"o":"m 1274 1126 b 1172 1011 1274 1061 1215 1025 b 1171 1022 1161 1006 1158 1018 b 1247 1108 1208 1033 1242 1064 b 1219 1099 1239 1103 1229 1099 b 1185 1140 1196 1099 1181 1117 b 1233 1181 1188 1163 1210 1181 b 1274 1126 1263 1181 1274 1153 m 1199 888 b 690 340 1221 635 986 390 b 599 164 650 258 678 300 b 1054 -43 735 131 925 57 b 1181 -368 1186 -146 1215 -310 b 1146 -406 1169 -389 1157 -400 b 1128 -364 1086 -437 1117 -387 b 1060 -93 1150 -315 1154 -175 b 557 101 925 26 733 67 b 311 -125 485 0 401 -82 b 197 161 21 -265 -176 49 b 546 176 296 190 444 194 b 632 335 599 258 582 232 b 582 863 232 322 107 754 b 585 839 640 876 646 847 b 651 369 299 804 206 317 b 754 608 668 407 754 608 b 1199 888 949 1099 1189 1003 m 1147 860 b 810 565 1146 944 1001 944 b 710 378 810 565 767 496 b 1147 860 960 433 1149 629 m 503 110 b 214 104 411 129 304 128 b 289 -86 -122 18 35 -208 b 503 110 364 -50 436 15 "},"Ś":{"ha":1251,"x_min":0,"x_max":0,"o":"m 1224 754 b 1135 713 1203 738 1174 722 b 1142 739 1099 703 1097 733 b 803 936 1308 758 1232 1089 b 731 618 644 879 550 729 b 1046 461 813 569 947 522 b 919 -97 1317 293 1154 43 b -10 146 606 -285 14 -246 b 228 531 -17 278 92 467 b 242 510 247 539 288 544 b 146 406 204 481 171 446 b 68 146 96 328 69 235 b 842 -90 65 -199 564 -235 b 996 392 1075 32 1157 261 b 635 574 914 458 735 507 b 751 972 436 706 557 903 b 1181 979 885 1018 1083 1026 b 1224 754 1275 932 1307 822 m 1232 1144 b 1019 1043 1222 1125 1028 1040 b 1017 1058 1014 1047 1013 1054 b 1156 1161 1021 1068 1138 1147 b 1221 1175 1174 1175 1199 1186 b 1232 1144 1232 1169 1238 1156 "},"Ą":{"ha":989,"x_min":0,"x_max":0,"o":"m 903 -36 b 738 -262 829 -94 740 -199 b 778 -308 738 -287 746 -308 b 849 -267 803 -308 831 -285 b 863 -272 853 -264 865 -260 b 731 -350 857 -300 801 -350 b 668 -287 696 -350 667 -329 b 813 -78 669 -228 744 -137 b 753 -89 793 -85 772 -89 b 696 267 599 -89 633 185 b 125 -49 582 132 322 -133 b 131 506 -8 8 -8 254 b 253 682 165 568 206 628 b 114 778 197 708 149 739 b 101 935 75 822 71 913 b 126 908 118 957 142 942 b 156 799 108 867 124 835 b 278 711 186 764 228 735 b 956 1074 453 906 685 1074 b 1194 897 1104 1074 1194 1000 b 763 621 1194 796 1086 650 b 343 653 606 607 474 611 b 142 303 293 582 192 426 b 476 99 0 -51 221 -114 b 840 536 619 219 767 400 b 919 497 926 697 1000 585 b 738 125 842 410 763 261 b 942 61 694 -110 832 -75 b 1063 258 985 117 1032 189 b 1086 253 1075 285 1101 286 b 957 31 1061 197 1008 99 b 903 -26 942 10 924 -8 l 903 -36 m 1138 914 b 960 1038 1138 996 1061 1038 b 365 681 700 1038 521 867 b 763 654 474 646 586 639 b 1138 914 993 674 1138 776 "},"Ș":{"ha":1251,"x_min":0,"x_max":0,"o":"m 1250 864 b 1157 819 1228 846 1197 831 b 1164 847 1119 810 1118 842 b 811 1053 1338 868 1258 1213 b 736 722 646 993 549 838 b 1064 558 821 671 961 622 b 926 -18 1347 383 1161 122 b -3 225 613 -206 21 -167 b 235 610 -10 357 99 546 b 249 589 254 618 294 624 b 153 485 211 560 178 525 b 75 225 103 407 76 314 b 849 -11 72 -119 571 -156 b 1013 486 1082 111 1181 350 b 636 675 926 556 740 606 b 758 1090 429 813 556 1018 b 1204 1097 897 1139 1104 1147 b 1250 864 1303 1049 1336 935 m 500 -271 b 369 -424 500 -353 422 -406 b 368 -410 356 -429 351 -414 b 463 -301 414 -394 457 -357 b 428 -314 453 -308 440 -314 b 385 -262 399 -314 381 -290 b 444 -211 389 -233 417 -211 b 500 -271 482 -211 500 -239 "},"Ť":{"ha":1511,"x_min":0,"x_max":0,"o":"m 1936 771 b 1779 699 1936 718 1867 688 b 1429 788 1574 725 1458 775 b 1047 -15 1263 522 1251 218 b 60 340 753 -350 -128 -253 b 231 468 101 469 239 526 b 88 276 208 440 110 408 b 508 -157 38 -8 294 -161 b 981 51 726 -151 875 -64 b 1389 801 1149 233 1331 724 b 968 878 1243 847 1117 871 b 629 421 571 897 411 490 b 894 578 800 367 900 539 l 894 581 b 922 569 908 593 922 588 b 615 386 904 421 746 342 b 958 949 332 485 438 996 b 1411 828 1125 935 1322 853 b 1513 913 1424 843 1481 910 b 1522 872 1557 926 1568 858 b 1450 817 1510 882 1468 835 b 1907 779 1569 778 1907 685 b 1922 800 1907 792 1910 800 b 1936 771 1932 800 1936 778 m 1464 1171 b 1492 1171 1458 1183 1486 1181 l 1556 1072 b 1739 1171 1556 1072 1721 1161 b 1774 1171 1753 1183 1785 1179 l 1567 1024 b 1514 1024 1567 1024 1515 1017 l 1464 1171 "},"Ź":{"ha":940,"x_min":0,"x_max":0,"o":"m 1456 843 b 1231 843 1413 807 1331 818 b 878 406 1131 751 982 535 b 443 -11 719 210 544 72 b 972 -206 443 -11 824 -176 b 1357 -72 1078 -226 1335 -231 b 1389 -93 1364 -28 1397 -14 b 1063 -294 1383 -146 1333 -289 b 408 -31 858 -299 408 -31 b 131 -126 288 -117 196 -140 b 217 110 -44 -86 -14 171 b 415 10 258 99 319 71 b 885 564 415 10 776 432 b 1181 856 963 656 1076 771 b 600 894 1017 901 765 938 b 489 649 482 864 344 744 b 472 622 538 615 486 618 b 417 664 461 625 438 640 b 683 988 340 749 360 963 b 1207 876 854 1001 1053 924 b 1361 969 1264 921 1318 954 b 1456 843 1476 1010 1547 921 m 1431 854 b 1415 954 1471 879 1465 954 b 1251 864 1372 954 1315 918 b 1431 854 1331 842 1394 832 m 389 -17 b 347 15 389 -17 361 6 b 206 69 290 47 242 65 b 211 -86 40 88 38 -92 b 389 -17 275 -83 350 -50 m 1386 1136 b 1126 1013 1375 1113 1136 1008 b 1122 1031 1119 1017 1118 1025 b 1293 1157 1128 1042 1271 1139 b 1374 1174 1315 1174 1346 1188 b 1386 1136 1388 1167 1393 1150 "},"Ż":{"ha":940,"x_min":0,"x_max":0,"o":"m 1136 1140 b 1068 1071 1136 1104 1103 1071 b 1038 1099 1051 1071 1038 1081 b 1103 1176 1038 1128 1072 1176 b 1136 1140 1124 1176 1136 1158 m 1456 843 b 1231 843 1413 807 1331 818 b 878 406 1131 751 982 535 b 443 -11 719 210 544 72 b 972 -206 443 -11 824 -176 b 1357 -72 1078 -226 1335 -231 b 1389 -93 1364 -28 1397 -14 b 1063 -294 1383 -146 1333 -289 b 408 -31 858 -299 408 -31 b 131 -126 288 -117 196 -140 b 217 110 -44 -86 -14 171 b 415 10 258 99 319 71 b 885 564 415 10 776 432 b 1181 856 963 656 1076 771 b 600 894 1017 901 765 938 b 489 649 482 864 344 744 b 472 622 538 615 486 618 b 417 664 461 625 438 640 b 683 988 340 749 360 963 b 1207 876 854 1001 1053 924 b 1361 969 1264 921 1318 954 b 1456 843 1476 1010 1547 921 m 1431 854 b 1415 954 1471 879 1465 954 b 1251 864 1372 954 1315 918 b 1431 854 1331 842 1394 832 m 389 -17 b 347 15 389 -17 361 6 b 206 69 290 47 242 65 b 211 -86 40 88 38 -92 b 389 -17 275 -83 350 -50 "},"ą":{"ha":486,"x_min":0,"x_max":0,"o":"m 585 256 b 425 19 551 188 490 68 b 274 -196 354 -40 276 -136 b 314 -242 274 -221 282 -242 b 385 -200 339 -242 367 -218 b 399 -206 389 -197 401 -193 b 267 -283 393 -233 338 -283 b 204 -221 232 -283 203 -262 b 360 -1 206 -158 289 -61 b 306 176 317 3 268 46 b 206 46 283 140 246 85 b 150 388 46 -107 -60 136 b 472 451 233 486 393 538 b 457 411 492 431 481 407 b 339 446 442 463 390 474 b 154 247 276 411 204 329 b 97 107 143 228 106 160 b 225 99 83 10 160 21 b 349 293 274 157 313 225 b 443 382 379 351 399 385 b 501 376 461 381 482 372 b 372 117 472 347 390 201 b 386 33 361 60 368 33 b 565 267 444 31 536 207 b 585 256 578 292 599 283 "},"ľ":{"ha":514,"x_min":0,"x_max":0,"o":"m 440 685 b 156 268 376 542 292 392 b 126 176 149 244 135 211 b 269 89 85 10 196 -14 b 372 265 315 154 354 229 b 393 258 385 289 406 286 b 146 -3 358 185 286 -3 b 81 271 -10 -3 57 188 b 292 761 124 426 211 626 b 440 685 390 926 540 907 m 419 706 b 386 768 447 769 461 875 b 167 313 318 672 210 424 b 419 706 265 413 365 576 m 675 775 b 535 614 675 683 593 633 b 532 629 518 607 514 624 b 638 750 583 646 631 688 b 599 736 626 742 613 736 b 551 793 567 736 546 761 b 618 850 556 825 586 850 b 675 775 658 850 675 811 "},"ś":{"ha":356,"x_min":0,"x_max":0,"o":"m 457 263 b 165 8 406 147 322 -39 b 108 -6 146 0 126 -6 b 39 190 -60 -6 -28 188 b 158 431 76 261 122 351 b 274 550 183 485 225 543 b 325 543 294 553 311 550 b 319 519 350 531 344 507 b 275 521 306 525 289 528 b 246 344 211 490 225 394 b 296 181 268 292 299 242 b 197 26 293 126 251 63 l 207 25 b 332 89 254 18 297 47 b 436 271 364 128 407 214 b 457 263 443 285 464 276 m 211 181 b 193 444 215 268 182 382 b 63 188 156 369 96 249 b 92 143 63 188 93 189 b 150 36 89 90 118 51 b 211 181 181 60 207 107 m 126 24 b 71 128 97 42 74 75 b 99 18 26 83 44 18 b 126 24 108 18 118 19 m 493 757 b 233 633 482 733 243 629 b 229 651 226 638 225 646 b 400 778 235 663 378 760 b 481 794 422 794 453 808 b 493 757 494 788 500 771 "},"ș":{"ha":356,"x_min":0,"x_max":0,"o":"m 457 263 b 165 8 406 147 322 -39 b 108 -6 146 0 126 -6 b 39 190 -60 -6 -28 188 b 158 431 76 261 122 351 b 274 550 183 485 225 543 b 325 543 294 553 311 550 b 319 519 350 531 344 507 b 275 521 306 525 289 528 b 246 344 211 490 225 394 b 296 181 268 292 299 242 b 197 26 293 126 251 63 l 207 25 b 332 89 254 18 297 47 b 436 271 364 128 407 214 b 457 263 443 285 464 276 m 211 181 b 193 444 215 268 182 382 b 63 188 156 369 96 249 b 92 143 63 188 93 189 b 150 36 89 90 118 51 b 211 181 181 60 207 107 m 126 24 b 71 128 97 42 74 75 b 99 18 26 83 44 18 b 126 24 108 18 118 19 m 132 -124 b 1 -276 132 -206 54 -258 b 0 -262 -12 -282 -17 -267 b 94 -154 46 -247 89 -210 b 60 -167 85 -161 72 -167 b 17 -115 31 -167 13 -143 b 76 -64 21 -86 49 -64 b 132 -124 114 -64 132 -92 "},"ť":{"ha":613,"x_min":0,"x_max":0,"o":"m 421 528 b 418 497 435 528 432 497 l 338 497 b 153 268 290 417 235 343 b 121 126 140 232 121 126 b 210 54 100 33 164 21 b 357 264 274 101 319 189 b 375 256 368 289 389 283 b 239 39 314 128 290 90 b 47 143 164 -33 26 -10 b 156 497 60 238 111 389 l 83 497 b 86 528 68 497 71 528 l 169 528 b 271 725 201 597 236 665 b 414 647 367 893 517 869 b 354 528 394 606 375 567 l 421 528 m 393 669 b 353 731 419 728 439 851 b 254 528 319 683 289 607 l 324 528 b 393 669 350 575 374 624 m 240 497 b 165 313 211 429 185 361 b 306 497 218 367 265 431 m 633 765 b 493 604 633 674 551 624 b 490 619 476 597 472 614 b 596 740 542 636 589 678 b 557 726 585 732 571 726 b 510 783 525 726 504 751 b 576 840 514 815 544 840 b 633 765 617 840 633 801 "},"ź":{"ha":474,"x_min":0,"x_max":0,"o":"m 572 256 b 331 -17 508 126 449 7 b -83 -421 260 -211 117 -362 b -242 -240 -225 -462 -315 -354 b 246 -15 -167 -128 69 -71 b 219 178 267 51 300 192 b 158 151 201 168 181 160 b 147 178 136 143 125 171 b 303 300 239 206 285 272 b 144 340 368 400 229 486 b 71 201 128 313 92 246 b 54 217 60 178 39 185 b 136 375 79 265 106 319 b 394 401 221 529 400 514 b 258 210 392 340 346 263 b 354 119 328 211 353 171 b 339 18 354 100 346 40 b 553 267 431 36 499 153 b 572 256 565 292 586 283 m 233 -50 b -111 -171 110 -89 -31 -122 b -126 -397 -233 -242 -272 -428 b 233 -50 -18 -374 158 -247 m 596 697 b 336 574 585 674 346 569 b 332 592 329 578 328 586 b 503 718 338 603 481 700 b 583 735 525 735 556 749 b 596 697 597 728 603 711 "},"ż":{"ha":474,"x_min":0,"x_max":0,"o":"m 572 256 b 331 -17 508 126 449 7 b -83 -421 260 -211 117 -362 b -242 -240 -225 -462 -315 -354 b 246 -15 -167 -128 69 -71 b 219 178 267 51 300 192 b 158 151 201 168 181 160 b 147 178 136 143 125 171 b 303 300 239 206 285 272 b 144 340 368 400 229 486 b 71 201 128 313 92 246 b 54 217 60 178 39 185 b 136 375 79 265 106 319 b 394 401 221 529 400 514 b 258 210 392 340 346 263 b 354 119 328 211 353 171 b 339 18 354 100 346 40 b 553 267 431 36 499 153 b 572 256 565 292 586 283 m 233 -50 b -111 -171 110 -89 -31 -122 b -126 -397 -233 -242 -272 -428 b 233 -50 -18 -374 158 -247 m 376 661 b 308 592 376 625 343 592 b 278 619 292 592 278 601 b 343 697 278 649 313 697 b 376 661 364 697 376 679 "},"Ŕ":{"ha":1422,"x_min":0,"x_max":0,"o":"m 1428 207 b 1296 -24 1411 169 1351 38 b 1024 -22 1217 -110 1107 -110 b 836 436 906 101 850 353 b 610 79 775 314 715 194 b 204 -81 496 -43 353 -100 b 319 154 -69 -49 19 257 b 311 138 343 144 333 131 b 236 -44 106 217 58 -36 b 744 422 464 -57 607 179 b 1050 913 849 604 944 796 b 571 883 904 926 744 921 b 204 603 351 838 226 713 b 482 486 168 428 371 368 b 531 569 514 521 529 553 b 547 567 533 601 549 582 b 497 463 542 526 524 490 b 138 603 367 326 118 385 b 588 938 150 739 301 896 b 1079 943 767 963 929 964 b 1126 938 1135 1004 1139 978 b 1254 913 1172 929 1215 924 b 1036 463 1604 811 1444 531 b 918 451 986 456 946 453 b 1061 67 924 415 964 214 b 1282 14 1125 -31 1189 -78 b 1406 207 1344 76 1392 178 b 1428 207 1418 228 1440 235 m 1238 881 b 1111 906 1200 890 1157 897 b 864 485 1029 764 938 635 b 1026 501 900 482 964 494 b 1238 881 1293 535 1490 804 m 1396 1139 b 1154 1025 1385 1117 1164 1021 b 1150 1042 1149 1028 1147 1036 b 1310 1158 1156 1051 1289 1142 b 1383 1174 1329 1174 1358 1188 b 1396 1139 1397 1168 1401 1151 "},"Ă":{"ha":989,"x_min":0,"x_max":0,"o":"m 1175 1165 b 1206 1164 1188 1181 1210 1178 b 1013 1044 1172 1090 1101 1044 b 889 1118 965 1044 897 1067 b 910 1181 881 1167 896 1181 b 944 1126 924 1181 924 1147 b 1040 1092 974 1099 1000 1092 b 1175 1165 1118 1092 1142 1122 m 1135 819 b 729 565 1135 726 1033 592 b 326 603 581 553 449 564 b 142 303 286 567 192 426 b 476 99 0 -51 221 -114 b 801 488 619 219 732 361 b 876 451 883 635 951 532 b 738 125 803 371 763 261 b 942 61 694 -110 832 -75 b 1063 258 985 117 1032 189 b 1086 253 1075 285 1101 286 b 957 31 1061 197 1008 99 b 753 -89 910 -33 831 -89 b 696 267 599 -89 633 185 b 125 -49 582 132 322 -133 b 244 640 -71 35 65 443 b 114 729 192 665 146 693 b 101 874 76 769 74 853 b 125 849 117 893 139 879 b 153 749 108 811 122 781 b 268 668 182 717 221 689 b 910 982 432 846 656 982 b 1135 819 1050 982 1135 914 m 1081 835 b 914 949 1081 910 1010 949 b 347 628 669 949 493 800 b 729 596 449 596 563 582 b 1081 835 946 614 1081 708 "},"Ĺ":{"ha":1036,"x_min":0,"x_max":0,"o":"m 1271 892 b 701 274 1296 619 997 324 b 610 97 661 192 689 243 b 1065 -110 746 64 936 -10 b 1192 -435 1197 -212 1226 -376 b 1157 -472 1181 -456 1168 -467 b 1139 -431 1097 -504 1128 -454 b 1071 -160 1161 -382 1165 -242 b 568 35 936 -40 744 0 b 322 -192 496 -67 413 -149 b 208 94 32 -332 -165 -18 b 557 110 307 124 456 128 b 643 268 578 138 593 165 b 593 796 243 256 118 688 b 596 772 651 810 657 781 b 663 303 310 738 217 250 b 779 590 679 340 779 590 b 1271 892 993 1121 1260 1017 m 1214 863 b 840 544 1213 953 1051 953 b 721 311 840 544 778 429 b 1214 863 971 367 1215 613 m 514 43 b 225 38 422 63 315 61 b 300 -153 -111 -49 46 -275 b 514 43 375 -117 447 -51 m 1413 1138 b 1157 1018 1401 1115 1167 1014 b 1153 1035 1150 1022 1149 1029 b 1321 1158 1158 1046 1299 1140 b 1400 1174 1343 1174 1374 1188 b 1413 1138 1414 1168 1419 1151 "},"Ć":{"ha":986,"x_min":0,"x_max":0,"o":"m 1083 254 b 860 -35 1024 132 978 49 b 319 -97 718 -132 521 -183 b 263 789 -29 50 74 600 b 257 1038 240 856 229 957 b 283 1032 263 1056 290 1063 b 294 826 268 964 281 885 b 858 1024 440 976 644 1043 b 636 521 1388 976 1194 456 b 300 704 494 536 371 588 b 374 -71 251 654 13 40 b 839 -12 522 -115 701 -94 b 1067 268 960 58 1008 149 b 1083 254 1078 292 1097 282 m 871 983 b 326 739 668 1007 461 903 b 657 546 388 614 508 560 b 871 983 1146 503 1267 938 m 1113 1144 b 899 1043 1104 1125 907 1039 b 896 1058 893 1046 892 1053 b 1036 1163 900 1067 1018 1147 b 1103 1175 1054 1175 1079 1188 b 1113 1144 1114 1169 1118 1156 "},"Č":{"ha":986,"x_min":0,"x_max":0,"o":"m 840 1171 b 868 1171 835 1183 863 1181 l 932 1072 b 1115 1171 932 1072 1097 1161 b 1150 1171 1129 1183 1161 1179 l 943 1024 b 890 1024 943 1024 892 1017 l 840 1171 m 1083 254 b 860 -35 1024 132 978 49 b 319 -97 718 -132 521 -183 b 249 749 -29 50 60 560 b 243 997 226 815 215 917 b 269 992 249 1015 276 1022 b 281 786 254 924 267 844 b 844 983 426 936 631 1003 b 622 481 1374 936 1181 415 b 286 664 481 496 357 547 b 374 -71 238 614 13 40 b 839 -12 522 -115 701 -94 b 1067 268 960 58 1008 149 b 1083 254 1078 292 1097 282 m 857 943 b 313 699 654 967 447 863 b 643 506 374 574 494 519 b 857 943 1132 463 1253 897 "},"Ę":{"ha":1217,"x_min":0,"x_max":0,"o":"m 1101 357 b 1053 106 1203 306 1175 201 b 506 -75 926 6 717 -64 b 342 -300 432 -133 344 -236 b 382 -346 342 -325 350 -346 b 453 -304 407 -346 435 -322 b 467 -310 457 -301 469 -297 b 335 -387 461 -337 406 -387 b 272 -325 300 -387 271 -367 b 468 -76 274 -250 393 -126 l 450 -76 b 371 560 -110 -76 -83 424 b 511 583 418 574 467 582 b 344 757 433 611 338 675 b 993 1114 365 996 772 1139 b 964 768 1317 1076 1244 831 b 960 793 885 750 897 786 b 988 1081 1088 807 1242 1054 b 450 792 771 1101 482 969 b 742 544 413 574 763 643 b 376 501 725 489 553 551 b 456 -46 86 421 -22 -46 b 996 143 669 -46 876 50 b 1072 339 1099 224 1149 321 b 1101 357 1008 354 1056 379 "},"Ě":{"ha":1217,"x_min":0,"x_max":0,"o":"m 1100 267 b 1051 15 1201 215 1174 111 b 449 -167 914 -93 678 -167 b 369 469 -111 -167 -85 333 b 510 493 417 483 465 492 b 343 667 432 521 336 585 b 982 1010 364 906 761 1035 b 953 664 1306 972 1233 726 b 949 689 874 646 886 682 b 976 976 1076 703 1231 950 b 449 701 760 997 481 879 b 740 454 411 483 761 553 b 375 411 724 399 551 461 b 454 -136 85 331 -24 -136 b 994 53 668 -136 875 -40 b 1071 249 1097 133 1147 231 b 1100 267 1007 264 1054 289 m 918 1167 b 943 1167 914 1176 939 1174 l 1001 1090 b 1168 1167 1001 1090 1151 1158 b 1200 1167 1181 1176 1210 1172 l 1011 1053 b 964 1053 1011 1053 965 1047 l 918 1167 "},"Ď":{"ha":1426,"x_min":0,"x_max":0,"o":"m 1421 301 b 521 42 1378 -107 801 -106 b 174 -51 419 -35 307 -67 b 299 182 -110 -21 -14 282 b 510 88 351 164 465 110 b 1038 846 715 269 819 621 b 560 918 901 921 732 951 b 264 465 175 842 58 525 b 515 606 428 418 513 561 b 543 594 517 618 547 618 b 250 435 524 467 372 396 b 588 963 7 514 15 886 b 1076 886 758 986 932 956 b 1258 1003 1147 963 1219 1010 b 1258 986 1276 999 1268 986 b 1136 854 1221 986 1153 882 b 1421 301 1325 738 1447 546 m 1333 299 b 1103 804 1357 510 1260 690 b 607 111 940 568 760 263 b 554 64 589 93 572 78 b 1333 299 822 -83 1294 -31 m 474 61 b 264 149 407 92 347 122 b 208 -15 63 213 39 -7 b 474 61 308 -19 397 10 m 1118 1172 b 1146 1172 1113 1183 1140 1181 l 1210 1081 b 1393 1172 1210 1081 1375 1164 b 1428 1172 1407 1183 1439 1181 l 1221 1036 b 1168 1036 1221 1036 1169 1029 l 1118 1172 "},"Đ":{"ha":1426,"x_min":0,"x_max":0,"o":"m 1421 332 b 521 50 1378 -110 801 -108 b 174 -50 419 -32 307 -67 b 299 203 -110 -17 -14 311 b 510 100 351 183 465 124 b 713 389 588 175 651 278 l 599 376 b 599 443 579 374 558 443 b 742 442 633 443 678 443 b 1038 921 829 607 915 785 b 560 999 901 1003 732 1035 b 264 510 175 917 58 574 b 515 661 428 458 513 613 b 543 649 517 675 547 675 b 250 476 524 511 372 433 b 588 1047 7 561 15 964 b 1076 964 758 1072 932 1040 b 1258 1090 1147 1047 1219 1099 b 1258 1072 1276 1086 1268 1072 b 1136 929 1221 1072 1153 960 b 1421 332 1325 804 1447 596 m 1333 329 b 1103 876 1357 557 1260 753 b 835 439 1015 740 924 582 b 904 438 856 439 879 438 b 910 400 936 436 947 400 b 807 397 874 400 839 399 b 607 125 738 289 669 193 b 554 75 589 106 572 90 b 1333 329 822 -85 1294 -28 m 474 72 b 264 167 407 104 347 138 b 208 -11 63 236 39 -3 b 474 72 308 -15 397 17 "},"Ń":{"ha":1443,"x_min":0,"x_max":0,"o":"m 1565 853 b 1271 199 1563 699 1399 478 b 1346 -147 1154 -57 1197 -217 b 1318 -197 1435 -107 1411 -200 b 1160 138 1142 -189 1090 -72 b 1463 839 1206 271 1443 706 b 1306 886 1479 929 1396 929 b 1019 651 1211 840 1111 761 b 621 -56 838 431 706 121 b 514 -62 600 -101 504 -104 b 840 706 578 31 779 432 b 436 881 915 1044 657 1018 b 267 174 56 644 11 174 b 469 540 538 174 699 571 b 467 561 443 538 454 558 b 263 149 772 635 604 149 b 68 576 100 149 -40 314 b 422 936 131 725 274 856 b 925 754 635 1053 963 1072 b 817 454 913 656 861 551 b 824 440 750 308 799 403 b 994 672 871 513 929 594 b 1300 940 1090 789 1200 894 b 1565 853 1421 997 1568 993 m 1571 1139 b 1331 1025 1561 1118 1339 1021 b 1326 1042 1324 1029 1322 1036 b 1485 1158 1332 1051 1464 1142 b 1560 1174 1506 1174 1535 1188 b 1571 1139 1572 1168 1578 1153 "},"Ň":{"ha":1443,"x_min":0,"x_max":0,"o":"m 1335 1165 b 1363 1165 1329 1178 1357 1175 l 1426 1067 b 1610 1165 1426 1067 1592 1156 b 1644 1165 1624 1178 1656 1174 l 1438 1018 b 1385 1018 1438 1018 1386 1011 l 1335 1165 m 1565 853 b 1271 199 1563 699 1399 478 b 1346 -147 1154 -57 1197 -217 b 1318 -197 1435 -107 1411 -200 b 1160 138 1142 -189 1090 -72 b 1463 839 1206 271 1443 706 b 1306 886 1479 929 1396 929 b 1019 651 1211 840 1111 761 b 621 -56 838 431 706 121 b 514 -62 600 -101 504 -104 b 840 706 578 31 779 432 b 436 881 915 1044 657 1018 b 267 174 56 644 11 174 b 469 540 538 174 699 571 b 467 561 443 538 454 558 b 263 149 772 635 604 149 b 68 576 100 149 -40 314 b 422 936 131 725 274 856 b 925 754 635 1053 963 1072 b 817 454 913 656 861 551 b 824 440 750 308 799 403 b 994 672 871 513 929 594 b 1300 940 1090 789 1200 894 b 1565 853 1421 997 1568 993 "},"Ő":{"ha":1071,"x_min":0,"x_max":0,"o":"m 882 1168 b 811 1000 889 1153 818 1004 b 800 1007 806 999 801 1003 b 822 1138 796 1014 822 1119 b 856 1179 826 1154 835 1174 b 882 1168 867 1182 878 1178 m 1235 689 b 1028 481 1183 608 1115 536 b 996 332 1024 433 1013 385 b 300 -137 910 69 594 -233 b 157 389 142 -86 63 147 b 50 564 97 429 57 488 b 1033 529 -4 1097 1061 1215 b 1214 704 1108 579 1179 636 b 1235 689 1224 724 1256 722 m 949 485 b 126 551 1014 1218 53 1047 b 182 446 132 508 151 472 b 714 815 258 607 504 933 b 703 796 735 804 721 790 b 253 399 529 850 311 529 b 949 485 417 318 722 363 m 940 436 b 232 350 711 314 415 276 b 304 -93 165 175 169 -26 b 915 338 547 -212 819 65 b 940 436 926 369 936 404 m 1014 1136 b 943 968 1021 1121 950 972 b 932 975 938 967 933 971 b 954 1106 928 982 954 1088 b 988 1147 958 1122 967 1142 b 1014 1136 999 1150 1010 1146 "},"Ř":{"ha":1422,"x_min":0,"x_max":0,"o":"m 1183 1171 b 1211 1171 1178 1183 1206 1181 l 1275 1072 b 1458 1171 1275 1072 1440 1161 b 1493 1171 1472 1183 1504 1179 l 1286 1024 b 1233 1024 1286 1024 1235 1017 l 1183 1171 m 1428 207 b 1296 -24 1411 169 1351 38 b 1024 -22 1217 -110 1107 -110 b 836 436 906 101 850 353 b 610 79 775 314 715 194 b 204 -81 496 -43 353 -100 b 319 154 -69 -49 19 257 b 311 138 343 144 333 131 b 236 -44 106 217 58 -36 b 744 422 464 -57 607 179 b 1050 913 849 604 944 796 b 571 883 904 926 744 921 b 204 603 351 838 226 713 b 482 486 168 428 371 368 b 531 569 514 521 529 553 b 547 567 533 601 549 582 b 497 463 542 526 524 490 b 138 603 367 326 118 385 b 588 938 150 739 301 896 b 1079 943 767 963 929 964 b 1126 938 1135 1004 1139 978 b 1254 913 1172 929 1215 924 b 1036 463 1604 811 1444 531 b 918 451 986 456 946 453 b 1061 67 924 415 964 214 b 1282 14 1125 -31 1189 -78 b 1406 207 1344 76 1392 178 b 1428 207 1418 228 1440 235 m 1238 881 b 1111 906 1200 890 1157 897 b 864 485 1029 764 938 635 b 1026 501 900 482 964 494 b 1238 881 1293 535 1490 804 "},"Ů":{"ha":1308,"x_min":0,"x_max":0,"o":"m 1369 679 b 1319 464 1438 646 1357 549 b 1236 239 1301 425 1263 338 b 1256 -76 1196 89 1179 -81 b 1246 -108 1322 -71 1289 -115 b 1164 258 1115 -85 1140 139 b 1079 133 1143 224 1114 178 b 669 72 894 -104 699 -106 b 914 817 639 260 863 615 b 886 1108 947 950 953 1068 b 424 1046 772 1178 582 1138 b 389 258 -132 721 3 114 b 460 668 579 329 725 728 b 453 692 388 651 442 688 b 388 226 739 813 694 356 b 426 1092 -28 50 -250 722 b 879 1153 585 1179 756 1207 b 996 811 1015 1094 1031 964 b 749 72 946 592 728 275 b 1058 172 764 -72 906 -49 b 1292 606 1151 307 1235 503 b 1369 679 1322 660 1353 679 m 1215 1097 b 1254 1046 1214 1068 1231 1046 b 1301 1100 1279 1046 1299 1071 b 1263 1150 1304 1129 1286 1151 b 1215 1097 1239 1149 1218 1126 m 1167 1094 b 1268 1172 1171 1136 1218 1169 b 1351 1100 1319 1174 1356 1140 b 1250 1022 1346 1058 1301 1024 b 1167 1094 1199 1021 1161 1054 "},"Ű":{"ha":1308,"x_min":0,"x_max":0,"o":"m 1369 679 b 1319 464 1438 646 1357 549 b 1236 239 1301 425 1263 338 b 1256 -76 1196 89 1179 -81 b 1246 -108 1322 -71 1289 -115 b 1164 258 1115 -85 1140 139 b 1079 133 1143 224 1114 178 b 669 72 894 -104 699 -106 b 914 817 639 260 863 615 b 886 1108 947 950 953 1068 b 424 1046 772 1178 582 1138 b 389 258 -132 721 3 114 b 460 668 579 329 725 728 b 453 692 388 651 442 688 b 388 226 739 813 694 356 b 426 1092 -28 50 -250 722 b 879 1153 585 1179 756 1207 b 996 811 1015 1094 1031 964 b 749 72 946 592 728 275 b 1058 172 764 -72 906 -49 b 1292 606 1151 307 1235 503 b 1369 679 1322 660 1353 679 m 1225 1160 b 1139 957 1232 1142 1147 961 b 1125 965 1132 956 1126 960 b 1153 1122 1121 974 1151 1101 b 1193 1174 1157 1143 1167 1167 b 1225 1160 1206 1176 1219 1171 m 1388 1160 b 1301 957 1394 1142 1310 961 b 1288 965 1294 956 1289 960 b 1317 1122 1283 974 1314 1101 b 1356 1174 1319 1143 1329 1167 b 1388 1160 1369 1176 1382 1171 "},"Ţ":{"ha":1511,"x_min":0,"x_max":0,"o":"m 1944 847 b 1788 775 1944 794 1875 764 b 1438 864 1582 801 1467 851 b 1056 61 1271 599 1260 294 b 68 417 761 -274 -119 -176 b 239 544 110 546 247 603 b 96 353 217 517 118 485 b 517 -81 46 68 303 -85 b 989 128 735 -75 883 13 b 1397 878 1157 310 1339 800 b 976 954 1251 924 1125 947 b 638 497 579 974 419 567 b 903 654 808 443 908 615 l 903 657 b 931 646 917 669 931 664 b 624 463 913 497 754 418 b 967 1025 340 561 446 1072 b 1419 904 1133 1011 1331 929 b 1521 989 1432 919 1489 986 b 1531 949 1565 1003 1576 935 b 1458 893 1518 958 1476 911 b 1915 856 1578 854 1915 761 b 1931 876 1915 868 1918 876 b 1944 847 1940 876 1944 854 m 471 -274 b 340 -426 471 -356 393 -408 b 339 -412 326 -432 322 -417 b 433 -304 385 -397 428 -360 b 399 -317 424 -311 411 -317 b 356 -265 369 -317 351 -293 b 415 -214 360 -236 388 -214 b 471 -274 453 -214 471 -242 "},"ŕ":{"ha":361,"x_min":0,"x_max":0,"o":"m 458 254 b 257 1 418 171 347 24 b 181 176 210 -10 125 32 b 267 340 201 233 251 306 b 160 406 286 386 238 404 l 143 361 b -25 54 110 274 43 119 b -36 72 -36 44 -44 60 b 178 582 74 217 150 426 b 263 532 192 660 282 625 b 186 439 254 493 210 456 b 378 444 238 436 310 438 b 349 338 388 425 365 372 b 269 36 328 294 186 40 b 442 268 326 35 413 208 b 458 254 454 292 472 282 m 538 818 b 278 694 526 794 288 690 b 274 713 271 699 269 707 b 444 839 279 724 422 821 b 525 856 467 856 497 869 b 538 818 539 849 544 832 "},"ă":{"ha":486,"x_min":0,"x_max":0,"o":"m 585 256 b 375 -3 543 171 458 4 b 306 176 329 -6 264 31 b 206 46 283 140 246 85 b 150 388 46 -107 -60 136 b 472 451 233 486 393 538 b 457 411 492 431 481 407 b 339 446 442 463 390 474 b 154 247 276 411 204 329 b 97 107 143 228 106 160 b 225 99 83 10 160 21 b 349 293 274 157 313 225 b 443 382 379 351 399 385 b 501 376 461 381 482 372 b 372 117 472 347 390 201 b 386 33 361 60 368 33 b 565 267 444 31 536 207 b 585 256 578 292 599 283 m 610 732 b 640 731 622 747 644 744 b 447 611 607 657 536 611 b 324 685 400 611 332 633 b 344 747 315 733 331 747 b 379 693 358 747 358 714 b 475 658 408 665 435 658 b 610 732 553 658 576 689 "},"ĺ":{"ha":294,"x_min":0,"x_max":0,"o":"m 440 685 b 156 268 376 542 292 392 b 126 176 149 244 135 211 b 269 89 85 10 196 -14 b 372 265 315 154 354 229 b 393 258 385 289 406 286 b 146 -3 358 185 286 -3 b 81 271 -10 -3 57 188 b 292 761 124 426 211 626 b 440 685 390 926 540 907 m 419 706 b 386 768 447 769 461 875 b 167 313 318 672 210 424 b 419 706 265 413 365 576 m 683 1094 b 424 971 672 1071 433 967 b 419 989 417 975 415 983 b 590 1115 425 1000 568 1097 b 671 1132 613 1132 643 1146 b 683 1094 685 1125 690 1108 "},"ć":{"ha":361,"x_min":0,"x_max":0,"o":"m 469 254 b 193 -6 401 110 346 -6 b 146 379 -26 -6 46 244 b 332 489 197 449 265 489 b 428 393 401 489 435 450 b 335 319 422 347 365 289 b 378 390 350 338 371 365 b 350 458 390 439 376 458 b 201 339 300 458 240 394 b 125 126 176 303 125 207 b 207 19 125 71 147 19 b 450 264 328 19 394 154 b 469 254 463 289 482 282 m 596 706 b 336 582 585 682 346 578 b 332 600 329 586 328 594 b 503 726 338 611 481 708 b 583 743 525 743 556 757 b 596 706 597 736 603 719 "},"č":{"ha":361,"x_min":0,"x_max":0,"o":"m 469 254 b 193 -6 401 110 346 -6 b 146 379 -26 -6 46 244 b 332 489 197 449 265 489 b 428 393 401 489 435 450 b 335 319 422 347 365 289 b 378 390 350 338 371 365 b 350 458 390 439 376 458 b 201 339 300 458 240 394 b 125 126 176 303 125 207 b 207 19 125 71 147 19 b 450 264 328 19 394 154 b 469 254 463 289 482 282 m 321 775 b 349 775 315 788 343 785 l 413 676 b 596 775 413 676 578 765 b 631 775 610 788 642 783 l 424 628 b 371 628 424 628 372 621 l 321 775 "},"ę":{"ha":342,"x_min":0,"x_max":0,"o":"m 442 260 b 275 19 403 176 360 68 b 128 -192 206 -39 131 -132 b 168 -237 128 -217 136 -237 b 239 -196 193 -237 221 -214 b 253 -201 243 -193 256 -189 b 121 -279 247 -229 192 -279 b 58 -217 86 -279 57 -258 b 208 -3 60 -156 139 -62 b 176 -6 199 -4 188 -6 b 43 128 107 -6 44 40 b 150 388 42 211 89 315 b 388 478 221 471 326 524 b 311 275 440 438 400 343 b 140 214 268 243 178 214 b 188 24 119 164 96 24 b 417 261 310 24 385 188 b 442 260 428 286 456 289 m 297 299 b 233 368 411 394 404 575 b 150 238 197 324 163 263 b 297 299 175 238 247 257 "},"ě":{"ha":342,"x_min":0,"x_max":0,"o":"m 442 260 b 176 -6 390 149 331 -6 b 43 128 107 -6 44 40 b 150 388 42 211 89 315 b 388 478 221 471 326 524 b 311 275 440 438 400 343 b 140 214 268 243 178 214 b 188 24 119 164 96 24 b 417 261 310 24 385 188 b 442 260 428 286 456 289 m 297 299 b 233 368 411 394 404 575 b 150 238 197 324 163 263 b 297 299 175 238 247 257 m 294 746 b 322 746 289 758 317 756 l 386 647 b 569 746 386 647 551 736 b 604 746 583 758 615 754 l 397 599 b 344 599 397 599 346 592 l 294 746 "},"ď":{"ha":910,"x_min":0,"x_max":0,"o":"m 767 864 b 400 185 725 825 481 376 b 408 36 386 153 343 36 b 588 267 478 36 558 208 b 608 258 599 292 621 286 b 383 0 575 181 494 0 b 321 38 361 0 339 11 b 308 160 306 61 294 103 b 106 6 267 92 201 -19 b 153 388 -25 42 51 265 b 451 468 231 478 351 526 b 613 797 518 594 579 722 b 707 869 639 860 663 874 b 767 864 725 868 746 861 m 440 446 b 144 224 371 514 218 360 b 254 132 53 51 136 -35 b 440 446 306 204 375 324 m 921 796 b 781 635 921 704 839 654 b 778 650 764 628 760 644 b 883 771 829 667 876 708 b 844 757 872 763 858 757 b 797 814 813 757 792 782 b 864 871 801 846 832 871 b 921 796 904 871 921 832 "},"đ":{"ha":510,"x_min":0,"x_max":0,"o":"m 767 660 b 638 656 719 660 678 658 b 400 185 551 500 447 297 b 408 36 386 153 343 36 b 588 267 478 36 558 208 b 608 258 599 292 621 286 b 383 0 575 181 494 0 b 321 38 361 0 339 11 b 308 160 306 61 294 103 b 106 6 267 92 201 -19 b 153 388 -25 42 51 265 b 451 468 231 478 351 526 b 542 646 483 529 514 590 l 456 636 b 456 703 436 633 415 703 b 568 701 483 703 521 703 l 613 797 b 707 869 639 860 663 874 b 767 864 725 868 746 861 b 663 700 751 850 711 786 b 761 697 692 699 725 697 b 767 660 793 696 804 660 m 440 446 b 144 224 371 514 218 360 b 254 132 53 51 136 -35 b 440 446 306 204 375 324 "},"ń":{"ha":465,"x_min":0,"x_max":0,"o":"m 564 256 b 335 -6 522 171 442 -6 b 261 157 286 -6 219 28 b 338 303 272 193 299 240 b 239 294 371 357 346 394 b 46 19 192 251 124 174 b -7 -1 35 0 22 -1 b -54 -10 -28 -3 -40 -1 b 138 379 13 122 69 254 b 236 467 174 446 192 469 b 294 461 254 465 275 457 b 126 200 253 439 176 300 b 242 325 154 235 199 288 b 499 456 308 385 451 472 b 332 97 499 456 350 194 b 354 28 321 40 336 28 b 544 268 426 28 515 210 b 564 256 556 293 578 283 m 625 697 b 365 574 614 674 375 569 b 361 592 358 578 357 586 b 532 718 367 603 510 700 b 613 735 554 735 585 749 b 625 697 626 728 632 711 "},"ň":{"ha":465,"x_min":0,"x_max":0,"o":"m 564 256 b 335 -6 522 171 442 -6 b 261 157 286 -6 219 28 b 338 303 272 193 299 240 b 239 294 371 357 346 394 b 46 19 192 251 124 174 b -7 -1 35 0 22 -1 b -54 -10 -28 -3 -40 -1 b 138 379 13 122 69 254 b 236 467 174 446 192 469 b 294 461 254 465 275 457 b 126 200 253 439 176 300 b 242 325 154 235 199 288 b 499 456 308 385 451 472 b 332 97 499 456 350 194 b 354 28 321 40 336 28 b 544 268 426 28 515 210 b 564 256 556 293 578 283 m 342 746 b 369 746 336 758 364 756 l 433 647 b 617 746 433 647 599 736 b 651 746 631 758 663 754 l 444 599 b 392 599 444 599 393 592 l 342 746 "},"ő":{"ha":465,"x_min":0,"x_max":0,"o":"m 567 261 b 349 11 543 208 465 11 b 260 47 307 11 278 26 b 139 0 221 18 179 -1 b 71 253 33 3 18 129 b 335 486 125 381 240 489 b 403 233 440 485 456 357 b 286 69 382 185 339 119 b 351 35 297 49 318 35 b 546 274 440 35 513 207 b 567 261 553 288 576 282 m 364 440 b 167 258 304 457 218 368 b 150 32 113 144 100 47 b 244 67 176 25 211 39 b 222 135 229 89 222 114 b 271 194 224 167 236 194 b 313 153 294 194 313 175 b 310 138 313 147 311 143 b 353 213 325 160 340 186 b 364 440 407 326 414 425 m 376 782 b 290 579 383 764 299 583 b 276 588 283 578 278 582 b 304 744 272 596 303 724 b 344 796 308 765 318 789 b 376 782 357 799 371 793 m 539 782 b 453 579 546 764 461 583 b 439 588 446 578 440 582 b 468 744 435 596 465 724 b 507 796 471 765 481 789 b 539 782 521 799 533 793 "},"ř":{"ha":361,"x_min":0,"x_max":0,"o":"m 458 254 b 257 1 418 171 347 24 b 181 176 210 -10 125 32 b 267 340 201 233 251 306 b 160 406 286 386 238 404 l 143 361 b -25 54 110 274 43 119 b -36 72 -36 44 -44 60 b 178 582 74 217 150 426 b 263 532 192 660 282 625 b 186 439 254 493 210 456 b 378 444 238 436 310 438 b 349 338 388 425 365 372 b 269 36 328 294 186 40 b 442 268 326 35 413 208 b 458 254 454 292 472 282 m 279 874 b 307 874 274 886 301 883 l 371 775 b 554 874 371 775 536 864 b 589 874 568 886 600 882 l 382 726 b 329 726 382 726 331 719 l 279 874 "},"ů":{"ha":496,"x_min":0,"x_max":0,"o":"m 594 256 b 374 1 550 161 475 1 b 310 179 311 1 274 67 b 122 1 263 96 190 1 b 35 64 94 1 46 11 b 82 225 22 124 57 175 b 69 247 74 225 61 229 l 94 296 b 172 449 122 349 151 406 b 226 478 183 471 200 478 l 311 478 b 222 361 279 454 260 438 b 135 182 222 361 160 235 b 217 86 68 38 126 -18 b 424 449 294 176 371 339 b 478 478 435 471 451 478 l 553 478 b 457 340 513 446 499 426 b 364 119 418 263 372 167 b 390 36 351 60 371 38 b 575 268 458 36 528 168 b 594 256 586 293 608 283 m 342 671 b 443 749 346 713 393 746 b 526 676 494 750 531 717 b 425 599 521 635 476 600 b 342 671 374 597 336 631 m 390 674 b 429 622 389 644 406 622 b 476 676 454 622 474 647 b 438 726 479 706 461 728 b 390 674 414 725 393 703 "},"ű":{"ha":496,"x_min":0,"x_max":0,"o":"m 594 256 b 374 1 550 161 475 1 b 310 179 311 1 274 67 b 122 1 263 96 190 1 b 35 64 94 1 46 11 b 82 225 22 124 57 175 b 69 247 74 225 61 229 l 94 296 b 172 449 122 349 151 406 b 226 478 183 471 200 478 l 311 478 b 222 361 279 454 260 438 b 135 182 222 361 160 235 b 217 86 68 38 126 -18 b 424 449 294 176 371 339 b 478 478 435 471 451 478 l 553 478 b 457 340 513 446 499 426 b 364 119 418 263 372 167 b 390 36 351 60 371 38 b 575 268 458 36 528 168 b 594 256 586 293 608 283 m 414 778 b 328 575 421 760 336 579 b 314 583 321 574 315 578 b 342 740 310 592 340 719 b 382 792 346 761 356 785 b 414 778 394 794 408 789 m 576 778 b 490 575 583 760 499 579 b 476 583 483 574 478 578 b 506 740 472 592 503 719 b 544 792 508 761 518 785 b 576 778 558 794 571 789 "},"ţ":{"ha":278,"x_min":0,"x_max":0,"o":"m 421 528 b 418 497 435 528 432 497 l 338 497 b 153 268 290 417 235 343 b 121 126 140 232 121 126 b 210 54 100 33 164 21 b 357 264 274 101 319 189 b 375 256 368 289 389 283 b 239 39 314 128 290 90 b 47 143 164 -33 26 -10 b 156 497 60 238 111 389 l 83 497 b 86 528 68 497 71 528 l 169 528 b 271 725 201 597 236 665 b 414 647 367 893 517 869 b 354 528 394 606 375 567 l 421 528 m 393 669 b 353 731 419 728 439 851 b 254 528 319 683 289 607 l 324 528 b 393 669 350 575 374 624 m 240 497 b 165 313 211 429 185 361 b 306 497 218 367 265 431 m 154 -124 b 24 -276 154 -206 76 -258 b 22 -262 10 -282 6 -267 b 117 -154 68 -247 111 -210 b 82 -167 107 -161 94 -167 b 39 -115 53 -167 35 -143 b 99 -64 43 -86 71 -64 b 154 -124 136 -64 154 -92 "},"Ħ":{"ha":1918,"x_min":0,"x_max":0,"o":"m 2115 1042 b 1951 789 2097 1032 2029 940 l 2174 789 l 2161 733 l 1925 733 b 1828 494 1892 663 1858 583 b 1939 504 1856 494 1917 496 b 1950 488 1965 514 1974 504 b 1815 450 1914 463 1856 453 b 1743 11 1790 368 1682 78 b 1821 11 1761 -8 1790 -11 b 1994 263 1892 64 1950 172 b 2015 253 2010 293 2031 286 b 1846 -8 1943 100 1908 53 b 1689 -46 1797 -56 1738 -71 b 1735 450 1563 19 1701 354 b 1264 468 1672 450 1390 463 b 543 -232 1156 146 901 -186 b 6 257 226 -272 -85 -90 b 175 433 29 347 131 432 b 178 414 204 433 192 419 b 36 194 132 394 51 310 b 529 -139 -3 -108 335 -182 b 1192 471 918 -51 1100 229 b 1108 449 1163 471 1135 461 b 1071 464 1093 442 1050 428 b 1157 517 1083 485 1121 513 l 1211 517 b 1303 733 1239 586 1271 663 l 1028 733 l 1042 789 l 1329 789 b 1414 967 1367 871 1399 938 b 714 636 1142 936 814 957 b 896 410 667 485 756 358 b 1018 657 999 447 1036 631 b 1036 667 1003 679 1026 688 b 897 383 1089 551 997 419 b 619 658 731 322 574 476 b 1433 1000 707 1010 1163 974 b 1540 1111 1443 1017 1496 1097 b 1619 1072 1581 1122 1619 1111 b 1456 969 1619 1007 1511 969 b 1378 789 1435 929 1406 861 l 1872 789 b 2050 1040 1929 908 1997 1022 b 2115 1042 2104 1060 2167 1068 m 1747 493 b 1846 733 1756 518 1796 622 l 1357 733 l 1276 517 b 1747 493 1463 517 1650 493 m 1554 1071 b 1481 1004 1540 1078 1500 1029 b 1554 1071 1599 1022 1571 1071 "},"Ĥ":{"ha":1918,"x_min":0,"x_max":0,"o":"m 2115 1042 b 1828 494 2089 1028 1939 818 b 1939 504 1856 494 1917 496 b 1950 488 1965 514 1974 504 b 1815 450 1914 463 1856 453 b 1743 11 1790 368 1682 78 b 1821 11 1761 -8 1790 -11 b 1994 263 1892 64 1950 172 b 2015 253 2010 293 2031 286 b 1846 -8 1943 100 1908 53 b 1689 -46 1797 -56 1738 -71 b 1735 450 1563 19 1701 354 b 1264 468 1672 450 1390 463 b 543 -232 1156 146 901 -186 b 6 257 226 -272 -85 -90 b 175 433 29 347 131 432 b 178 414 204 433 192 419 b 36 194 132 394 51 310 b 529 -139 -3 -108 335 -182 b 1192 471 918 -51 1100 229 b 1108 449 1163 471 1135 461 b 1071 464 1093 442 1050 428 b 1157 517 1083 485 1121 513 l 1211 517 b 1414 967 1281 690 1385 908 b 714 636 1142 936 814 957 b 896 410 667 485 756 358 b 1018 657 999 447 1036 631 b 1036 667 1003 679 1026 688 b 897 383 1089 551 997 419 b 619 658 731 322 574 476 b 1433 1000 707 1010 1163 974 b 1540 1111 1443 1017 1496 1097 b 1619 1072 1581 1122 1619 1111 b 1456 969 1619 1007 1511 969 b 1276 517 1403 867 1300 576 b 1747 493 1463 517 1650 493 b 2050 1040 1768 551 1940 1003 b 2115 1042 2104 1060 2167 1068 m 1949 1064 b 1928 1064 1953 1054 1932 1057 l 1878 1140 b 1738 1064 1878 1140 1751 1072 b 1710 1064 1726 1054 1701 1058 l 1869 1178 b 1911 1178 1869 1178 1910 1183 l 1949 1064 m 1554 1071 b 1481 1004 1540 1078 1500 1029 b 1554 1071 1599 1022 1571 1071 "},"İ":{"ha":1290,"x_min":0,"x_max":0,"o":"m 1661 983 b 1554 886 1663 926 1607 904 b 1496 874 1538 886 1508 874 b 1115 3 1326 563 1336 286 b 567 -337 963 -193 768 -304 b 6 118 175 -403 -125 -229 b 196 300 40 210 151 297 b 197 281 225 301 211 288 b 29 57 149 260 58 172 b 540 -293 -44 -246 318 -349 b 1244 418 944 -192 1169 217 b 1453 867 1326 636 1424 817 b 776 425 1203 813 843 725 b 939 246 746 292 819 200 b 1056 489 1085 304 1078 468 b 1085 501 1050 496 1074 526 b 940 214 1139 397 1054 257 b 683 425 793 157 647 261 b 1475 903 756 753 1213 858 b 1582 1017 1486 925 1538 1001 b 1661 983 1624 1029 1660 1021 m 1594 978 b 1519 908 1581 983 1540 935 b 1594 978 1642 933 1611 978 m 1574 1144 b 1506 1075 1574 1108 1540 1075 b 1475 1103 1489 1075 1475 1085 b 1540 1181 1475 1132 1510 1181 b 1574 1144 1561 1181 1574 1163 "},"Ş":{"ha":1251,"x_min":0,"x_max":0,"o":"m 628 -281 b 556 -386 628 -325 590 -362 b 450 -410 526 -406 483 -410 b 275 -346 415 -410 275 -394 b 283 -336 275 -340 278 -336 b 304 -351 292 -336 299 -346 b 424 -386 329 -378 389 -386 b 557 -336 467 -386 532 -375 b 576 -279 568 -319 576 -299 b 472 -200 576 -225 519 -200 b 372 -233 419 -200 386 -233 b 346 -212 360 -233 346 -225 b 351 -200 346 -207 347 -204 b 447 -125 358 -192 422 -143 b -3 225 217 -111 11 -3 b 235 610 -10 357 99 546 b 249 589 254 618 294 624 b 153 485 211 560 178 525 b 75 225 103 407 76 314 b 849 -11 72 -119 571 -156 b 1013 486 1082 111 1181 350 b 636 675 926 556 740 606 b 758 1090 429 813 556 1018 b 1204 1097 897 1139 1104 1147 b 1250 864 1303 1049 1336 935 b 1157 819 1228 846 1197 831 b 1164 847 1119 810 1118 842 b 811 1053 1338 868 1258 1213 b 736 722 646 993 549 838 b 1064 558 821 671 961 622 b 926 -18 1347 383 1161 122 b 467 -126 800 -93 628 -132 l 469 -131 b 408 -179 461 -137 407 -171 b 463 -175 426 -176 444 -175 b 628 -281 525 -175 628 -201 "},"Ğ":{"ha":1008,"x_min":0,"x_max":0,"o":"m 1053 1168 b 1078 1167 1063 1181 1081 1178 b 922 1071 1050 1108 994 1071 b 824 1131 885 1071 831 1089 b 840 1181 817 1169 829 1181 b 868 1138 851 1181 851 1154 b 944 1110 892 1115 913 1110 b 1053 1168 1007 1110 1026 1133 m 1081 -192 b 1069 -217 1121 -201 1122 -229 b 757 -192 1006 -200 868 -190 b 46 -543 579 -449 201 -600 b 413 -178 -212 -449 67 -226 b 707 -156 485 -167 619 -157 b 847 186 775 -40 818 57 l 853 210 b 278 14 769 131 507 -62 b 181 632 104 74 47 338 b 176 1007 86 736 63 886 b 192 997 193 1026 213 1024 b 201 671 111 890 125 765 b 228 721 208 688 218 704 b 810 1040 360 946 610 1072 b 583 494 1192 978 1108 503 b 258 585 464 492 338 528 b 325 60 149 338 163 113 b 800 240 508 0 761 147 b 965 303 881 429 975 374 b 776 -156 946 149 878 11 b 1081 -192 900 -157 997 -171 m 815 1001 b 313 689 647 1026 429 889 b 274 618 299 665 285 642 b 604 535 351 557 478 522 b 815 1001 1021 579 1119 953 m 685 -193 b 429 -215 597 -196 507 -203 b 82 -507 183 -253 -122 -464 b 685 -193 206 -535 522 -426 "},"Ĵ":{"ha":1386,"x_min":0,"x_max":0,"o":"m 1758 985 b 1646 890 1757 928 1700 907 b 1586 879 1629 890 1599 879 b 1124 -174 1406 571 1372 213 b 503 -546 961 -426 683 -521 b -37 -69 108 -600 -183 -417 b 160 107 0 21 115 106 b 158 88 189 108 174 94 b -17 -131 110 68 15 -17 b 486 -501 -104 -435 263 -550 b 1322 451 974 -393 1192 163 b 1544 874 1419 667 1514 825 b 889 418 1321 838 933 688 b 1049 246 869 290 932 203 b 1176 486 1197 299 1197 464 b 1206 497 1154 500 1183 525 b 1047 213 1251 390 1164 254 b 796 426 899 161 769 263 b 1568 910 847 747 1314 878 b 1681 1021 1581 931 1635 1007 b 1758 985 1722 1032 1758 1022 m 1692 981 b 1611 914 1676 988 1635 939 b 1692 981 1735 935 1707 981 m 1840 1029 b 1813 1029 1846 1017 1818 1019 l 1749 1128 b 1565 1029 1749 1128 1583 1039 b 1531 1029 1551 1017 1519 1021 l 1738 1176 b 1790 1176 1738 1176 1789 1183 l 1840 1029 "},"ħ":{"ha":461,"x_min":0,"x_max":0,"o":"m 465 668 l 372 668 b 128 203 294 532 199 347 b 240 325 165 250 203 293 b 497 456 307 385 450 472 b 331 97 497 456 349 194 b 351 24 319 40 333 25 b 539 268 415 19 510 208 b 558 254 551 293 572 283 b 333 -6 513 158 436 -6 b 260 157 285 -6 218 28 b 336 303 271 193 297 240 b 238 294 369 357 344 394 b 43 19 190 251 122 174 b -8 -1 33 0 21 -1 b -56 -10 -29 -3 -42 -1 b 279 668 43 196 160 442 l 172 668 l 190 696 l 293 696 l 326 756 b 425 843 358 814 381 846 b 483 838 443 842 464 835 b 389 696 463 817 429 764 l 482 696 "},"ĥ":{"ha":461,"x_min":0,"x_max":0,"o":"m 558 254 b 333 -6 513 158 436 -6 b 260 157 285 -6 218 28 b 336 303 271 193 297 240 b 238 294 369 357 344 394 b 43 19 190 251 122 174 b -8 -1 33 0 21 -1 b -56 -10 -29 -3 -42 -1 b 326 756 57 224 192 507 b 425 843 358 814 381 846 b 483 838 443 842 464 835 b 128 203 422 775 242 435 b 240 325 165 250 203 293 b 497 456 307 385 450 472 b 331 97 497 456 349 194 b 351 24 319 40 333 25 b 539 268 415 19 510 208 b 558 254 551 293 572 283 m 611 929 b 583 929 617 917 589 919 l 519 1028 b 336 929 519 1028 354 939 b 301 929 322 917 290 921 l 508 1076 b 561 1076 508 1076 560 1083 l 611 929 "},"ş":{"ha":356,"x_min":0,"x_max":0,"o":"m 233 -156 b 161 -261 233 -200 196 -237 b 56 -285 132 -281 89 -285 b -119 -221 21 -285 -119 -269 b -111 -211 -119 -215 -117 -211 b -90 -226 -103 -211 -96 -221 b 29 -261 -65 -253 -6 -261 b 163 -211 72 -261 138 -250 b 182 -154 174 -194 182 -174 b 78 -75 182 -100 125 -75 b -22 -108 25 -75 -8 -108 b -49 -87 -35 -108 -49 -100 b -43 -75 -49 -82 -47 -79 b 57 1 -35 -67 33 -12 b 39 190 -51 38 -19 188 b 158 431 76 261 122 351 b 274 550 183 485 225 543 b 325 543 294 553 311 550 b 319 519 350 531 344 507 b 275 521 306 525 289 528 b 246 344 211 490 225 394 b 296 181 268 292 299 242 b 197 26 293 126 251 63 l 207 25 b 332 89 254 18 297 47 b 436 271 364 128 407 214 b 457 263 443 285 464 276 b 165 8 406 147 322 -39 b 108 -6 146 0 126 -6 b 74 -3 96 -6 85 -4 b 75 -6 75 -3 75 -4 b 14 -54 67 -12 13 -46 b 68 -50 32 -51 50 -50 b 233 -156 131 -50 233 -76 m 211 181 b 193 444 215 268 182 382 b 63 188 156 369 96 249 b 92 143 63 188 93 189 b 150 36 89 90 118 51 b 211 181 181 60 207 107 m 126 24 b 71 128 97 42 74 75 b 99 18 26 83 44 18 b 126 24 108 18 118 19 "},"ğ":{"ha":544,"x_min":0,"x_max":0,"o":"m 643 256 b 429 -17 572 110 532 32 b -17 -439 368 -192 185 -439 b -147 -332 -104 -439 -147 -404 b -26 -172 -147 -264 -93 -211 b 343 -22 110 -92 236 -65 b 375 132 360 26 369 76 b 376 246 381 186 381 231 b 110 6 332 160 221 -28 b 157 388 -29 65 54 265 b 479 451 239 486 375 533 b 464 411 528 411 479 369 b 240 360 428 510 325 454 b 133 46 139 246 61 78 b 376 311 215 11 350 224 b 463 367 396 375 440 350 b 444 29 481 256 474 139 b 542 119 478 53 514 82 b 622 267 588 181 608 240 b 643 256 635 292 657 283 m 281 -79 b -25 -212 179 -114 63 -154 b -50 -411 -115 -272 -165 -411 b 125 -339 10 -411 92 -364 b 250 -203 168 -304 211 -254 b 329 -62 283 -156 310 -110 m 572 746 b 603 744 585 761 607 758 b 410 625 569 671 499 625 b 286 699 363 625 294 647 b 307 761 278 747 293 761 b 342 707 321 761 321 728 b 438 672 371 679 397 672 b 572 746 515 672 539 703 "},"ĵ":{"ha":246,"x_min":0,"x_max":0,"o":"m 82 225 b 69 247 74 225 61 229 l 143 407 b 129 465 156 432 135 458 l 206 467 b 235 418 250 467 250 451 l 124 158 b 38 -25 97 97 68 36 b 242 119 121 7 179 28 b 325 268 286 185 311 242 b 344 256 338 293 358 283 b 14 -69 250 63 214 3 b -417 -439 -74 -226 -211 -439 b -528 -269 -556 -439 -569 -347 b -397 -156 -501 -218 -451 -181 b -60 -56 -304 -111 -172 -87 b -15 25 -44 -29 -28 -1 b 82 225 18 92 58 176 m -86 -100 b -374 -186 -175 -124 -294 -151 b -450 -411 -517 -247 -568 -411 b -117 -151 -328 -411 -179 -239 b -86 -100 -106 -136 -96 -118 m 354 540 b 326 540 360 528 332 531 l 263 639 b 79 540 263 639 97 550 b 44 540 65 528 33 532 l 251 688 b 304 688 251 688 303 694 l 354 540 "},"ȷ":{"ha":246,"x_min":0,"x_max":0,"o":"m 82 225 b 69 247 74 225 61 229 l 143 407 b 129 465 156 432 135 458 l 206 467 b 235 418 250 467 250 451 l 124 158 b 38 -25 97 97 68 36 b 242 119 121 7 179 28 b 325 268 286 185 311 242 b 344 256 338 293 358 283 b 14 -69 250 63 214 3 b -417 -439 -74 -226 -211 -439 b -528 -269 -556 -439 -569 -347 b -397 -156 -501 -218 -451 -181 b -60 -56 -304 -111 -172 -87 b -15 25 -44 -29 -28 -1 b 82 225 18 92 58 176 m -86 -100 b -374 -186 -175 -124 -294 -151 b -450 -411 -517 -247 -568 -411 b -117 -151 -328 -411 -179 -239 b -86 -100 -106 -136 -96 -118 "},"Ċ":{"ha":986,"x_min":0,"x_max":0,"o":"m 1047 1144 b 979 1075 1047 1108 1014 1075 b 949 1103 963 1075 949 1085 b 1014 1181 949 1132 983 1181 b 1047 1144 1035 1181 1047 1163 m 1083 254 b 860 -35 1024 132 978 49 b 319 -97 718 -132 521 -183 b 263 789 -29 50 74 600 b 257 1038 240 856 229 957 b 283 1032 263 1056 290 1063 b 294 826 268 964 281 885 b 858 1024 440 976 644 1043 b 636 521 1388 976 1194 456 b 300 704 494 536 371 588 b 374 -71 251 654 13 40 b 839 -12 522 -115 701 -94 b 1067 268 960 58 1008 149 b 1083 254 1078 292 1097 282 m 871 983 b 326 739 668 1007 461 903 b 657 546 388 614 508 560 b 871 983 1146 503 1267 938 "},"Ĉ":{"ha":986,"x_min":0,"x_max":0,"o":"m 1092 1044 b 1067 1044 1096 1032 1071 1035 l 1008 1133 b 854 1060 1008 1133 871 1068 b 822 1060 842 1047 813 1051 l 999 1178 b 1046 1178 999 1178 1044 1183 l 1092 1044 m 1083 254 b 860 -35 1024 132 978 49 b 319 -97 718 -132 521 -183 b 263 789 -29 50 74 600 b 257 1038 240 856 229 957 b 283 1032 263 1056 290 1063 b 294 826 268 964 281 885 b 858 1024 440 976 644 1043 b 636 521 1388 976 1194 456 b 300 704 494 536 371 588 b 374 -71 251 654 13 40 b 839 -12 522 -115 701 -94 b 1067 268 960 58 1008 149 b 1083 254 1078 292 1097 282 m 871 983 b 326 739 668 1007 461 903 b 657 546 388 614 508 560 b 871 983 1146 503 1267 938 "},"Ġ":{"ha":1008,"x_min":0,"x_max":0,"o":"m 1081 -192 b 1069 -217 1121 -201 1122 -229 b 757 -192 1006 -200 868 -190 b 46 -543 579 -449 201 -600 b 413 -178 -212 -449 67 -226 b 707 -156 485 -167 619 -157 b 847 186 775 -40 818 57 l 853 210 b 278 14 769 131 507 -62 b 181 632 104 74 47 338 b 176 1007 86 736 63 886 b 192 997 193 1026 213 1024 b 201 671 111 890 125 765 b 228 721 208 688 218 704 b 810 1040 360 946 610 1072 b 583 494 1192 978 1108 503 b 258 585 464 492 338 528 b 325 60 149 338 163 113 b 800 240 508 0 761 147 b 965 303 881 429 975 374 b 776 -156 946 149 878 11 b 1081 -192 900 -157 997 -171 m 815 1001 b 313 689 647 1026 429 889 b 274 618 299 665 285 642 b 604 535 351 557 478 522 b 815 1001 1021 579 1119 953 m 685 -193 b 429 -215 597 -196 507 -203 b 82 -507 183 -253 -122 -464 b 685 -193 206 -535 522 -426 m 925 1151 b 871 1096 925 1122 899 1096 b 846 1118 857 1096 846 1104 b 899 1181 846 1142 874 1181 b 925 1151 915 1181 925 1165 "},"Ĝ":{"ha":1008,"x_min":0,"x_max":0,"o":"m 1040 1060 b 1018 1060 1044 1050 1022 1051 l 967 1139 b 821 1060 967 1139 835 1067 b 793 1060 810 1050 783 1053 l 958 1178 b 1000 1178 958 1178 1000 1183 l 1040 1060 m 1081 -192 b 1069 -217 1121 -201 1122 -229 b 757 -192 1006 -200 868 -190 b 46 -543 579 -449 201 -600 b 413 -178 -212 -449 67 -226 b 707 -156 485 -167 619 -157 b 847 186 775 -40 818 57 l 853 210 b 278 14 769 131 507 -62 b 181 632 104 74 47 338 b 176 1007 86 736 63 886 b 192 997 193 1026 213 1024 b 201 671 111 890 125 765 b 228 721 208 688 218 704 b 832 1022 360 946 632 1054 b 583 494 1214 960 1108 503 b 258 585 464 492 338 528 b 325 60 149 338 163 113 b 800 240 508 0 761 147 b 965 303 881 429 975 374 b 776 -156 946 149 878 11 b 1081 -192 900 -157 997 -171 m 838 983 b 313 689 669 1008 429 889 b 274 618 299 665 285 642 b 604 535 351 557 478 522 b 838 983 1021 579 1142 935 m 685 -193 b 429 -215 597 -196 507 -203 b 82 -507 183 -253 -122 -464 b 685 -193 206 -535 522 -426 "},"Ŭ":{"ha":1308,"x_min":0,"x_max":0,"o":"m 1369 669 b 1319 454 1438 636 1357 539 b 1236 229 1301 415 1263 328 b 1256 -86 1196 79 1179 -90 b 1246 -118 1322 -81 1289 -125 b 1164 249 1115 -94 1140 129 b 1079 124 1143 214 1114 168 b 669 63 894 -114 699 -115 b 914 807 639 250 863 606 b 885 1108 947 940 951 1068 b 422 1046 771 1178 581 1138 b 389 249 -133 721 3 104 b 460 658 579 319 725 718 b 453 682 388 642 442 678 b 388 217 739 803 694 346 b 425 1092 -28 40 -251 722 b 878 1153 583 1179 754 1207 b 996 801 1014 1094 1031 954 b 749 63 946 582 728 265 b 1058 163 764 -82 906 -58 b 1292 596 1151 297 1235 493 b 1369 669 1322 650 1353 669 m 1435 1113 b 1465 1111 1447 1128 1469 1125 b 1272 992 1432 1038 1361 992 b 1149 1065 1225 992 1157 1014 b 1169 1128 1140 1114 1156 1128 b 1204 1074 1183 1128 1183 1094 b 1300 1039 1233 1046 1260 1039 b 1435 1113 1378 1039 1401 1069 "},"Ŝ":{"ha":1251,"x_min":0,"x_max":0,"o":"m 1199 763 b 1114 721 1178 746 1150 731 b 1121 747 1081 711 1079 742 b 801 942 1278 767 1206 1093 b 733 628 651 885 564 738 b 1031 472 810 579 938 533 b 906 -60 1286 307 1118 74 b 65 171 622 -237 88 -201 b 281 535 60 296 157 475 b 293 515 299 543 335 549 b 207 417 260 488 229 456 b 136 171 161 343 138 254 b 835 -53 133 -156 585 -190 b 983 404 1046 63 1135 275 b 643 583 906 469 738 518 b 754 976 456 714 571 908 b 1157 983 879 1024 1067 1031 b 1199 763 1246 938 1276 829 m 1208 1060 b 1186 1060 1213 1050 1190 1051 l 1135 1139 b 989 1060 1135 1139 1003 1067 b 961 1060 978 1050 951 1053 l 1126 1178 b 1168 1178 1126 1178 1168 1183 l 1208 1060 "},"ĉ":{"ha":361,"x_min":0,"x_max":0,"o":"m 469 254 b 193 -6 401 110 346 -6 b 146 379 -26 -6 46 244 b 332 489 197 449 265 489 b 428 393 401 489 435 450 b 335 319 422 347 365 289 b 378 390 350 338 371 365 b 350 458 390 439 376 458 b 201 339 300 458 240 394 b 125 126 176 303 125 207 b 207 19 125 71 147 19 b 450 264 328 19 394 154 b 469 254 463 289 482 282 m 488 561 b 460 561 493 549 465 551 l 396 660 b 213 561 396 660 231 571 b 178 561 199 549 167 553 l 385 708 b 438 708 385 708 436 715 l 488 561 "},"ċ":{"ha":361,"x_min":0,"x_max":0,"o":"m 469 254 b 193 -6 401 110 346 -6 b 146 379 -26 -6 46 244 b 332 489 197 449 265 489 b 428 393 401 489 435 450 b 335 319 422 347 365 289 b 378 390 350 338 371 365 b 350 458 390 439 376 458 b 201 339 300 458 240 394 b 125 126 176 303 125 207 b 207 19 125 71 147 19 b 450 264 328 19 394 154 b 469 254 463 289 482 282 m 446 643 b 378 574 446 607 413 574 b 347 601 361 574 347 583 b 413 679 347 631 382 679 b 446 643 433 679 446 661 "},"ġ":{"ha":544,"x_min":0,"x_max":0,"o":"m 643 256 b 429 -17 572 110 532 32 b -17 -439 368 -192 185 -439 b -147 -332 -104 -439 -147 -404 b -26 -172 -147 -264 -93 -211 b 343 -22 110 -92 236 -65 b 375 132 360 26 369 76 b 376 246 381 186 381 231 b 110 6 332 160 221 -28 b 157 388 -29 65 54 265 b 479 451 239 486 375 533 b 464 411 528 411 479 369 b 240 360 428 510 325 454 b 133 46 139 246 61 78 b 376 311 215 11 350 224 b 463 367 396 375 440 350 b 444 29 481 256 474 139 b 542 119 478 53 514 82 b 622 267 588 181 608 240 b 643 256 635 292 657 283 m 281 -79 b -25 -212 179 -114 63 -154 b -50 -411 -115 -272 -165 -411 b 125 -339 10 -411 92 -364 b 250 -203 168 -304 211 -254 b 329 -62 283 -156 310 -110 m 493 692 b 425 622 493 656 460 622 b 394 650 408 622 394 632 b 460 728 394 679 429 728 b 493 692 481 728 493 710 "},"ĝ":{"ha":544,"x_min":0,"x_max":0,"o":"m 643 256 b 429 -17 572 110 532 32 b -17 -439 368 -192 185 -439 b -147 -332 -104 -439 -147 -404 b -26 -172 -147 -264 -93 -211 b 343 -22 110 -92 236 -65 b 375 132 360 26 369 76 b 376 246 381 186 381 231 b 110 6 332 160 221 -28 b 157 388 -29 65 54 265 b 479 451 239 486 375 533 b 464 411 528 411 479 369 b 240 360 428 510 325 454 b 133 46 139 246 61 78 b 376 311 215 11 350 224 b 463 367 396 375 440 350 b 444 29 481 256 474 139 b 542 119 478 53 514 82 b 622 267 588 181 608 240 b 643 256 635 292 657 283 m 281 -79 b -25 -212 179 -114 63 -154 b -50 -411 -115 -272 -165 -411 b 125 -339 10 -411 92 -364 b 250 -203 168 -304 211 -254 b 329 -62 283 -156 310 -110 m 524 540 b 496 540 529 528 501 531 l 432 639 b 249 540 432 639 267 550 b 214 540 235 528 203 532 l 421 688 b 474 688 421 688 472 694 l 524 540 "},"ŭ":{"ha":496,"x_min":0,"x_max":0,"o":"m 594 256 b 374 1 550 161 475 1 b 310 179 311 1 274 67 b 122 1 263 96 190 1 b 35 64 94 1 46 11 b 82 225 22 124 57 175 b 69 247 74 225 61 229 l 94 296 b 172 449 122 349 151 406 b 226 478 183 471 200 478 l 311 478 b 222 361 279 454 260 438 b 135 182 222 361 160 235 b 217 86 68 38 126 -18 b 424 449 294 176 371 339 b 478 478 435 471 451 478 l 553 478 b 457 340 513 446 499 426 b 364 119 418 263 372 167 b 390 36 351 60 371 38 b 575 268 458 36 528 168 b 594 256 586 293 608 283 m 543 732 b 574 731 556 747 578 744 b 381 611 540 657 469 611 b 257 685 333 611 265 633 b 278 747 249 733 264 747 b 313 693 292 747 292 714 b 408 658 342 665 368 658 b 543 732 486 658 510 689 "},"ŝ":{"ha":356,"x_min":0,"x_max":0,"o":"m 351 540 b 338 532 354 533 346 531 b 319 519 344 521 338 510 b 275 521 306 525 289 528 b 246 344 211 490 225 394 b 296 181 268 292 299 242 b 197 26 293 126 251 63 l 207 25 b 332 89 254 18 297 47 b 436 271 364 128 407 214 b 457 263 443 285 464 276 b 165 8 406 147 322 -39 b 108 -6 146 0 126 -6 b 39 190 -60 -6 -28 188 b 158 431 76 261 122 351 b 274 550 183 485 225 543 b 319 546 292 553 307 551 l 260 639 b 76 540 260 639 94 550 b 42 540 63 528 31 532 l 249 688 b 301 688 249 688 300 694 l 351 540 m 211 181 b 193 444 215 268 182 382 b 63 188 156 369 96 249 b 92 143 63 188 93 189 b 150 36 89 90 118 51 b 211 181 181 60 207 107 m 126 24 b 71 128 97 42 74 75 b 99 18 26 83 44 18 b 126 24 108 18 118 19 "},"ĸ":{"ha":479,"x_min":0,"x_max":0,"o":"m 522 457 b 461 382 539 413 503 371 b 275 354 458 421 376 433 b 447 81 189 107 322 -51 b 560 271 482 118 521 190 b 578 258 571 293 588 281 b 301 -8 468 6 382 -17 b 171 124 251 -3 188 29 b 169 246 161 183 164 221 b 103 143 146 215 122 181 b 47 19 82 101 65 60 b -4 -1 39 -1 25 -1 b -51 -10 -25 -3 -37 -1 b 154 429 68 247 111 342 b 253 517 183 489 208 519 l 286 511 l 274 486 b 160 263 235 414 197 338 b 393 465 218 336 310 433 b 522 457 465 492 507 483 "},"Ŗ":{"ha":1422,"x_min":0,"x_max":0,"o":"m 1522 260 b 1381 13 1504 219 1440 78 b 1086 14 1294 -81 1176 -81 b 885 507 960 146 900 417 b 640 122 818 375 754 247 b 203 -50 518 -10 364 -71 b 328 203 -92 -15 4 314 b 319 186 353 193 343 178 b 238 -11 97 271 46 -1 b 786 492 483 -24 638 231 b 1115 1021 899 689 1001 894 b 599 989 958 1036 786 1029 b 203 686 363 940 228 806 b 503 561 164 499 383 433 b 556 651 538 599 554 633 b 574 649 558 685 575 664 b 519 536 567 604 547 565 b 132 686 379 389 111 451 b 617 1047 146 833 308 1003 b 1146 1054 810 1075 985 1076 b 1197 1047 1206 1119 1211 1090 b 1335 1021 1247 1039 1293 1032 b 1100 536 1713 911 1540 608 b 972 524 1046 528 1003 525 b 1126 110 979 485 1022 268 b 1365 53 1196 4 1265 -46 b 1499 260 1432 119 1483 229 b 1522 260 1511 283 1536 290 m 1317 986 b 1181 1013 1276 997 1231 1004 b 914 560 1093 860 994 721 b 1089 578 968 569 1022 569 b 1317 986 1376 614 1589 904 m 785 -150 b 654 -303 785 -232 707 -285 b 653 -289 640 -308 636 -293 b 747 -181 699 -274 742 -236 b 713 -193 738 -187 725 -193 b 669 -142 683 -193 665 -169 b 729 -90 674 -112 701 -90 b 785 -150 767 -90 785 -118 "},"Ĩ":{"ha":1290,"x_min":0,"x_max":0,"o":"m 1661 982 b 1554 885 1663 925 1607 903 b 1496 872 1538 885 1508 872 b 1115 1 1326 561 1336 285 b 567 -339 963 -194 768 -306 b 6 117 175 -404 -125 -231 b 196 299 40 208 151 296 b 197 279 225 300 211 286 b 29 56 149 258 58 171 b 540 -294 -44 -247 318 -350 b 1244 417 944 -193 1169 215 b 1453 865 1326 635 1424 815 b 776 424 1203 811 843 724 b 939 244 746 290 819 199 b 1056 488 1085 303 1078 467 b 1085 500 1050 494 1074 525 b 940 213 1139 396 1054 256 b 683 424 793 156 647 260 b 1475 901 756 751 1213 857 b 1582 1015 1486 924 1538 1000 b 1661 982 1624 1028 1660 1019 m 1594 976 b 1519 907 1581 982 1540 933 b 1594 976 1642 932 1611 976 m 1782 1167 b 1667 1074 1761 1124 1722 1069 b 1525 1118 1617 1078 1572 1115 b 1464 1081 1496 1121 1475 1103 b 1436 1083 1461 1074 1435 1078 b 1551 1169 1458 1122 1497 1174 b 1693 1128 1601 1167 1647 1132 b 1758 1168 1725 1125 1744 1142 b 1782 1167 1760 1174 1785 1171 "},"Ļ":{"ha":1036,"x_min":0,"x_max":0,"o":"m 1329 1076 b 750 450 1354 796 1046 500 b 628 211 710 368 678 300 l 599 164 b 1054 -43 735 131 925 57 b 1181 -368 1186 -146 1215 -310 b 1146 -406 1169 -389 1157 -400 b 1128 -364 1086 -437 1117 -387 b 1060 -93 1150 -315 1154 -175 b 557 101 925 26 733 67 b 311 -125 485 0 401 -82 b 197 161 21 -265 -176 49 b 546 176 296 190 444 194 b 692 444 599 258 642 342 b 642 972 292 432 167 864 b 644 949 700 986 706 957 b 711 479 358 914 265 426 b 829 765 728 517 829 765 b 1329 1076 1047 1311 1318 1204 m 1272 1046 b 892 718 1271 1139 1107 1139 b 769 488 892 718 826 606 b 1272 1046 1019 543 1274 789 m 503 110 b 214 104 411 129 304 128 b 289 -86 -122 18 35 -208 b 503 110 364 -50 436 15 m 565 -193 b 435 -346 565 -275 488 -328 b 433 -332 421 -351 417 -336 b 528 -224 479 -317 522 -279 b 493 -236 518 -231 506 -236 b 450 -185 464 -236 446 -212 b 510 -133 454 -156 482 -133 b 565 -193 547 -133 565 -161 "},"Ē":{"ha":1217,"x_min":0,"x_max":0,"o":"m 1174 1139 l 876 1139 l 894 1181 l 1190 1181 m 1104 288 b 1056 36 1206 236 1178 132 b 453 -146 918 -72 682 -146 b 374 490 -107 -146 -81 354 b 514 514 421 504 469 513 b 347 688 436 542 340 606 b 985 1021 368 926 764 1046 b 956 675 1308 983 1236 738 b 951 700 876 657 889 693 b 979 988 1079 714 1233 961 b 453 722 763 1008 485 900 b 744 475 415 504 765 574 b 379 432 728 419 556 482 b 458 -115 89 351 -19 -115 b 999 74 672 -115 879 -19 b 1075 269 1101 154 1151 251 b 1104 288 1011 285 1058 310 "},"Ģ":{"ha":776,"x_min":0,"x_max":0,"o":"m 536 -425 b 432 -547 536 -492 474 -533 b 431 -536 421 -553 418 -540 b 507 -450 468 -525 501 -494 b 479 -460 499 -456 489 -460 b 444 -419 456 -460 440 -442 b 492 -378 447 -396 469 -378 b 536 -425 522 -378 536 -400 m 1081 -87 b 1069 -112 1121 -97 1122 -125 b 757 -87 1006 -96 868 -86 b 46 -439 579 -344 201 -496 b 413 -74 -212 -344 67 -122 b 707 -51 485 -62 619 -53 b 847 290 775 64 818 161 l 853 314 b 278 118 769 235 507 42 b 181 736 104 178 47 442 b 176 1111 86 840 63 990 b 192 1101 193 1131 213 1128 b 201 775 111 994 125 869 b 228 825 208 792 218 808 b 810 1144 360 1050 610 1176 b 583 599 1192 1082 1108 607 b 258 689 464 596 338 632 b 325 164 149 442 163 217 b 800 344 508 104 761 251 b 965 407 881 533 975 478 b 776 -51 946 253 878 115 b 1081 -87 900 -53 997 -67 m 815 1106 b 313 793 647 1131 429 993 b 274 722 299 769 285 746 b 604 639 351 661 478 626 b 815 1106 1021 683 1119 1057 m 685 -89 b 429 -111 597 -92 507 -99 b 82 -403 183 -149 -122 -360 b 685 -89 206 -431 522 -322 "},"Ŧ":{"ha":1511,"x_min":0,"x_max":0,"o":"m 1429 550 l 1294 550 b 1056 61 1233 376 1182 206 b 68 417 761 -274 -119 -176 b 239 544 110 546 247 603 b 96 353 217 517 118 485 b 517 -81 46 68 303 -85 b 989 128 735 -75 883 13 b 1238 550 1074 219 1164 392 l 1064 550 l 1086 578 l 1251 578 b 1397 878 1317 718 1369 842 b 976 954 1251 924 1125 947 b 638 497 579 974 419 567 b 903 654 808 443 908 615 l 903 657 b 931 646 917 669 931 664 b 624 463 913 497 754 418 b 967 1025 340 561 446 1072 b 1419 904 1133 1011 1331 929 b 1522 989 1432 919 1492 989 l 1521 989 b 1531 949 1565 1003 1576 935 b 1458 893 1518 958 1476 911 b 1915 856 1578 854 1915 761 b 1931 876 1915 868 1918 876 b 1944 847 1940 876 1944 854 b 1788 775 1944 794 1875 764 b 1438 864 1582 801 1467 851 b 1306 578 1379 771 1340 675 l 1450 578 "},"ŗ":{"ha":361,"x_min":0,"x_max":0,"o":"m 458 254 b 257 1 418 171 347 24 b 181 176 210 -10 125 32 b 267 340 201 233 251 306 b 160 406 286 386 238 404 l 143 361 b -25 54 110 274 43 119 b -36 72 -36 44 -44 60 b 178 582 74 217 150 426 b 263 532 192 660 282 625 b 186 439 254 493 210 456 b 378 444 238 436 310 438 b 349 338 388 425 365 372 b 269 36 328 294 186 40 b 442 268 326 35 413 208 b 458 254 454 292 472 282 m 144 -124 b 14 -276 144 -206 67 -258 b 13 -262 0 -282 -4 -267 b 107 -154 58 -247 101 -210 b 72 -167 97 -161 85 -167 b 29 -115 43 -167 25 -143 b 89 -64 33 -86 61 -64 b 144 -124 126 -64 144 -92 "},"ĩ":{"ha":242,"x_min":0,"x_max":0,"o":"m 328 254 b 110 0 292 176 214 0 b 35 181 7 0 -1 113 l 156 411 b 231 478 190 478 186 478 l 301 478 b 250 428 290 467 265 457 b 106 158 250 428 143 254 b 89 118 106 158 92 128 b 118 31 75 72 78 33 b 179 57 139 28 165 43 b 310 267 226 103 272 189 b 328 254 322 292 342 282 m 475 651 b 360 558 454 608 415 554 b 218 603 310 563 265 600 b 157 565 189 606 168 588 b 129 568 154 558 128 563 b 244 654 151 607 190 658 b 386 613 294 651 340 617 b 451 653 418 610 438 626 b 475 651 453 658 478 656 "},"ļ":{"ha":294,"x_min":0,"x_max":0,"o":"m 440 685 b 156 268 376 542 292 392 b 126 176 149 244 135 211 b 269 89 85 10 196 -14 b 372 265 315 154 354 229 b 393 258 385 289 406 286 b 146 -3 358 185 286 -3 b 81 271 -10 -3 57 188 b 292 761 124 426 211 626 b 440 685 390 926 540 907 m 419 706 b 386 768 447 769 461 875 b 167 313 318 672 210 424 b 419 706 265 413 365 576 m 167 -132 b 36 -285 167 -214 89 -267 b 35 -271 22 -290 18 -275 b 129 -162 81 -256 124 -218 b 94 -175 119 -169 107 -175 b 51 -124 65 -175 47 -151 b 111 -72 56 -94 83 -72 b 167 -132 149 -72 167 -100 "},"ē":{"ha":342,"x_min":0,"x_max":0,"o":"m 442 260 b 176 -6 390 149 331 -6 b 43 128 107 -6 44 40 b 150 388 42 211 89 315 b 388 478 221 471 326 524 b 311 275 440 438 400 343 b 140 214 268 243 178 214 b 188 24 119 164 96 24 b 417 261 310 24 385 188 b 442 260 428 286 456 289 m 297 299 b 233 368 411 394 404 575 b 150 238 197 324 163 263 b 297 299 175 238 247 257 m 496 622 l 199 622 l 217 664 l 513 664 "},"ģ":{"ha":544,"x_min":0,"x_max":0,"o":"m 643 256 b 429 -17 572 110 532 32 b -17 -439 368 -192 185 -439 b -147 -332 -104 -439 -147 -404 b -26 -172 -147 -264 -93 -211 b 343 -22 110 -92 236 -65 b 375 132 360 26 369 76 b 376 246 381 186 381 231 b 110 6 332 160 221 -28 b 157 388 -29 65 54 265 b 479 451 239 486 375 533 b 464 411 528 411 479 369 b 240 360 428 510 325 454 b 133 46 139 246 61 78 b 376 311 215 11 350 224 b 463 367 396 375 440 350 b 444 29 481 256 474 139 b 542 119 478 53 514 82 b 622 267 588 181 608 240 b 643 256 635 292 657 283 m 281 -79 b -25 -212 179 -114 63 -154 b -50 -411 -115 -272 -165 -411 b 125 -339 10 -411 92 -364 b 250 -203 168 -304 211 -254 b 329 -62 283 -156 310 -110 m 365 658 b 496 811 365 740 443 793 b 497 797 510 817 514 801 b 403 689 451 782 408 744 b 438 701 413 696 425 701 b 481 650 467 701 485 678 b 421 599 476 621 449 599 b 365 658 383 599 365 626 "},"ŧ":{"ha":278,"x_min":0,"x_max":0,"o":"m 282 325 l 210 325 b 153 268 193 306 174 286 b 121 126 140 232 121 126 b 210 54 100 33 164 21 b 357 264 274 101 319 189 b 375 256 368 289 389 283 b 239 39 314 128 290 90 b 47 143 164 -33 26 -10 b 92 325 53 193 71 258 l 6 325 l 22 343 l 99 343 b 156 497 117 397 136 450 l 83 497 b 86 528 68 497 71 528 l 169 528 b 271 725 201 597 236 665 b 414 647 367 893 517 869 b 354 528 394 606 375 567 l 421 528 b 418 497 435 528 432 497 l 338 497 b 226 343 306 443 271 393 l 299 343 m 393 669 b 353 731 419 728 439 851 b 254 528 319 683 289 607 l 324 528 b 393 669 350 575 374 624 m 240 497 b 178 343 217 442 194 388 l 193 343 b 306 497 235 390 272 443 m 176 325 l 169 325 l 165 313 "},"Ŋ":{"ha":1443,"x_min":0,"x_max":0,"o":"m 1596 928 b 1468 383 1606 838 1547 618 b 799 -547 1344 18 1178 -483 b 376 -161 525 -592 303 -446 b 500 -15 394 -86 469 -17 b 501 -32 521 -14 511 -25 b 396 -211 469 -47 408 -118 b 782 -511 358 -460 628 -550 b 1369 361 1088 -429 1210 -106 b 1488 913 1424 519 1489 769 b 1311 964 1486 1010 1403 1011 b 1035 711 1215 915 1118 829 b 697 -50 867 474 764 139 b 583 -58 679 -100 576 -103 b 833 769 639 42 803 475 b 375 958 871 1135 596 1107 b 285 196 -4 704 8 196 b 456 592 576 196 699 624 b 450 614 428 589 436 611 b 285 169 769 693 653 169 b 19 631 108 169 -65 347 b 353 1018 67 790 203 931 b 918 822 567 1143 918 1164 b 842 499 918 715 876 603 b 850 483 789 342 829 443 b 1004 733 892 561 944 650 b 1297 1022 1093 860 1197 974 b 1596 928 1421 1083 1579 1079 "},"Ā":{"ha":989,"x_min":0,"x_max":0,"o":"m 1194 897 b 763 621 1194 796 1086 650 b 343 653 606 607 474 611 b 142 303 293 582 192 426 b 476 99 0 -51 221 -114 b 840 536 619 219 767 400 b 919 497 926 697 1000 585 b 738 125 842 410 763 261 b 942 61 694 -110 832 -75 b 1063 258 985 117 1032 189 b 1086 253 1075 285 1101 286 b 957 31 1061 197 1008 99 b 753 -89 910 -33 831 -89 b 696 267 599 -89 633 185 b 125 -49 582 132 322 -133 b 131 506 -8 8 -8 254 b 253 682 165 568 206 628 b 114 778 197 708 149 739 b 101 935 75 822 71 913 b 126 908 118 957 142 942 b 156 799 108 867 124 835 b 278 711 186 764 228 735 b 956 1074 453 906 685 1074 b 1194 897 1104 1074 1194 1000 m 1138 914 b 960 1038 1138 996 1061 1038 b 365 681 700 1038 521 867 b 763 654 474 646 586 639 b 1138 914 993 674 1138 776 m 1183 1139 l 886 1139 l 904 1181 l 1200 1181 "},"ŋ":{"ha":465,"x_min":0,"x_max":0,"o":"m 564 256 b 335 -6 522 171 442 -6 b 278 13 315 -6 294 0 b 168 -187 246 -47 210 -112 b -192 -439 82 -315 -35 -439 b -303 -269 -331 -439 -344 -347 b -172 -156 -276 -218 -226 -181 b 165 -56 -79 -111 53 -87 b 210 25 181 -29 197 -1 l 249 104 b 261 157 251 119 254 138 b 338 303 272 193 299 240 b 239 294 371 357 346 394 b 46 19 192 251 124 174 b -7 -1 35 0 22 -1 b -54 -10 -28 -3 -40 -1 b 138 379 13 122 69 254 b 236 467 174 446 192 469 b 294 461 254 465 275 457 b 126 200 253 439 176 300 b 242 325 154 235 199 288 b 499 456 308 385 451 472 b 332 97 499 456 350 194 b 354 28 321 40 336 28 b 544 268 426 28 515 210 b 564 256 556 293 578 283 m 139 -100 b -149 -186 50 -124 -69 -151 b -225 -411 -292 -247 -343 -411 b 108 -151 -103 -411 46 -239 b 139 -100 119 -136 129 -118 "}}}
